<?xml version="1.0" encoding="utf-8"?>
<!DOCTYPE svg PUBLIC "-//W3C//DTD SVG 1.1//EN" "http://www.w3.org/Graphics/SVG/1.1/DTD/svg11.dtd">
<svg version="1.1" id="VARG" xmlns="http://www.w3.org/2000/svg" xmlns:xlink="http://www.w3.org/1999/xlink" x="0px" y="0px"
 width="148.256px" height="37.541px" viewBox="0 0 148.256 37.541" enable-background="new 0 0 148.256 37.541"
 xml:space="preserve">
<g>
<path fill="#FF0000" d="M100.523,36.253h26.336L146.553,2.14h-26.335L100.523,36.253z M126.68,22.378v7.486h-6.343v-7.486h-7.485
v-6.343h7.485V8.549h6.343v7.486h7.485v6.343H126.68z"/>
<path d="M97.846,17.26v-1.444h-5.188v14.014h5.18v-6.735c-0.009-2.235,2.088-3.682,5.122-2.787l-0.01-4.603
C101.644,15.376,99.679,15.449,97.846,17.26z"/>
<path d="M79.763,28.411v1.42h5.071V15.816h-5.072v1.328c-1.364-1.34-2.359-1.777-4.366-1.809c-3.3-0.053-6.817,2.52-6.813,7.253
c0.005,5.068,3.378,7.545,6.764,7.538C77.426,30.121,79.152,29.254,79.763,28.411z M76.972,25.826c-1.69,0-3.061-1.371-3.061-3.061
c0-1.691,1.37-3.062,3.061-3.062s3.062,1.371,3.062,3.062C80.033,24.455,78.662,25.826,76.972,25.826z"/>
<path d="M57.665,25.185l-1.835,3.599c1.673,1.017,4.115,1.573,5.975,1.57c1.524-0.002,3.072-0.369,4.308-1.245
c1.399-0.992,2.208-2.528,2.076-4.446c-0.12-1.733-0.935-2.742-2.149-3.285c-1.218-0.544-2.493-0.539-3.529-0.815
c-0.392-0.104-0.667-0.3-0.591-0.879c0.088-0.664,0.978-0.831,1.662-0.798c1.013,0.049,1.725,0.399,2.373,0.66l1.688-3.31
c-1.011-0.591-3.256-0.977-4.746-0.932c-1.379,0.041-2.716,0.282-3.808,0.883c-1.473,0.811-2.346,2.209-2.405,3.928
c-0.058,1.663,0.724,3.331,2.55,3.922c0.882,0.286,1.823,0.213,2.87,0.453c0.485,0.111,0.94,0.524,0.807,1.078
c-0.168,0.694-0.837,0.889-1.522,0.901C60.166,26.489,58.578,25.854,57.665,25.185z"/>
<rect x="86.164" y="15.816" width="5.18" height="14.016"/>
<polygon points="29.032,15.816 23.894,15.816 21.705,23.276 19.747,15.815 14.413,15.815 19.113,29.83 24.033,29.83 26.287,22.145 
28.304,29.83 33.305,29.83 38.307,15.816 33.269,15.816 31.032,23.438 "/>
<circle cx="88.775" cy="10.766" r="2.92"/>
<rect x="38.447" y="15.816" width="5.181" height="14.016"/>
<circle cx="41.06" cy="10.766" r="2.92"/>
<path d="M4.39,25.188l-1.835,3.6c1.673,1.017,4.115,1.572,5.975,1.57c1.524-0.002,3.072-0.369,4.308-1.245
c1.4-0.993,2.208-2.528,2.076-4.446c-0.119-1.733-0.935-2.742-2.149-3.285c-1.218-0.544-2.493-0.539-3.529-0.814
c-0.392-0.104-0.667-0.3-0.591-0.879c0.088-0.665,0.979-0.831,1.663-0.798c1.012,0.049,1.724,0.399,2.372,0.66l1.688-3.31
c-1.011-0.591-3.256-0.977-4.745-0.933c-1.379,0.041-2.717,0.282-3.809,0.883c-1.473,0.811-2.346,2.209-2.405,3.929
c-0.058,1.663,0.724,3.331,2.551,3.922c0.881,0.285,1.822,0.213,2.869,0.452c0.485,0.111,0.941,0.524,0.807,1.078
c-0.168,0.694-0.836,0.89-1.522,0.901C6.891,26.492,5.303,25.857,4.39,25.188z"/>
<path d="M45.69,25.185l-1.835,3.599c1.673,1.017,4.115,1.573,5.975,1.57c1.524-0.002,3.072-0.369,4.308-1.245
c1.399-0.992,2.208-2.528,2.076-4.446c-0.12-1.733-0.935-2.742-2.149-3.285c-1.218-0.544-2.493-0.539-3.529-0.815
c-0.392-0.104-0.667-0.3-0.591-0.879c0.088-0.664,0.978-0.831,1.662-0.798c1.013,0.049,1.725,0.399,2.373,0.66l1.688-3.31
c-1.011-0.591-3.256-0.977-4.746-0.932c-1.379,0.041-2.716,0.282-3.808,0.883c-1.473,0.811-2.346,2.209-2.405,3.928
c-0.058,1.663,0.724,3.331,2.55,3.922c0.882,0.286,1.823,0.213,2.869,0.453c0.486,0.111,0.941,0.524,0.808,1.078
c-0.168,0.694-0.837,0.889-1.522,0.901C48.191,26.489,46.603,25.854,45.69,25.185z"/>
</g>
</svg>
