<?xml version="1.0" encoding="UTF-8" standalone="no"?>
<!-- Created with Inkscape (http://www.inkscape.org/) -->
<svg
   xmlns:dc="http://purl.org/dc/elements/1.1/"
   xmlns:cc="http://web.resource.org/cc/"
   xmlns:rdf="http://www.w3.org/1999/02/22-rdf-syntax-ns#"
   xmlns:svg="http://www.w3.org/2000/svg"
   xmlns="http://www.w3.org/2000/svg"
   xmlns:sodipodi="http://sodipodi.sourceforge.net/DTD/sodipodi-0.dtd"
   xmlns:inkscape="http://www.inkscape.org/namespaces/inkscape"
   width="857.01965"
   height="319.0748"
   id="svg6952"
   sodipodi:version="0.32"
   inkscape:version="0.44"
   version="1.0"
   sodipodi:docbase="C:\Dokumente und Einstellungen\Andreas\Eigene Dateien\Eigene Bilder\sonstiges\Logos\Vektor\other"
   sodipodi:docname="Hugo-Boss-Logo.svg">
  <defs
     id="defs6954" />
  <sodipodi:namedview
     id="base"
     pagecolor="#ffffff"
     bordercolor="#666666"
     borderopacity="1.0"
     inkscape:pageopacity="0.0"
     inkscape:pageshadow="2"
     inkscape:zoom="0.35"
     inkscape:cx="350"
     inkscape:cy="435.9217"
     inkscape:document-units="px"
     inkscape:current-layer="layer1"
     width="241.87mm"
     height="90.05mm"
     inkscape:window-width="904"
     inkscape:window-height="574"
     inkscape:window-x="23"
     inkscape:window-y="23" />
  <metadata
     id="metadata6957">
    <rdf:RDF>
      <cc:Work
         rdf:about="">
        <dc:format>image/svg+xml</dc:format>
        <dc:type
           rdf:resource="http://purl.org/dc/dcmitype/StillImage" />
      </cc:Work>
    </rdf:RDF>
  </metadata>
  <g
     inkscape:label="Ebene 1"
     inkscape:groupmode="layer"
     id="layer1"
     transform="translate(-268.43,-697.22)">
    <g
       id="g6981"
       transform="translate(3.536427,3.542911)">
      <path
         id="path7114"
         class="ps010"
         d="M 280.55825,960.90104 C 280.55825,960.90104 287.26113,960.90104 287.26113,960.90104 C 287.26113,960.90104 287.26113,981.01048 287.26113,981.01048 C 287.26113,981.01048 312.95672,981.01048 312.95672,981.01048 C 312.95672,981.01048 312.95672,960.90104 312.95672,960.90104 C 312.95672,960.90104 319.43685,960.90104 319.43685,960.90104 C 319.43685,960.90104 319.43685,1007.8232 319.43685,1007.8232 C 319.43685,1007.8232 312.95672,1007.8232 312.95672,1007.8232 C 312.95672,1007.8232 312.95672,986.37308 312.95672,986.37308 C 312.95672,986.37308 287.26113,986.37308 287.26113,986.37308 C 287.26113,986.37308 287.26113,1007.8232 287.26113,1007.8232 C 287.26113,1007.8232 280.55825,1007.8232 280.55825,1007.8232 C 280.55825,1007.8232 280.55825,960.90104 280.55825,960.90104 z "
         style="fill:#231f20;fill-rule:nonzero;stroke:none" />
      <path
         id="path7116"
         class="ps010"
         d="M 423.33588,990.84184 C 423.33588,1002.6841 416.18532,1008.9403 403.89622,1008.9403 C 391.38364,1008.9403 383.78685,1003.3544 383.78685,990.84184 C 383.78685,990.84184 383.78685,960.90104 383.78685,960.90104 C 383.78685,960.90104 390.48973,960.90104 390.48973,960.90104 C 390.48973,960.90104 390.48973,990.84184 390.48973,990.84184 C 390.48973,999.10906 395.40551,1003.8013 403.89622,1003.8013 C 412.16345,1003.8013 416.85575,999.10906 416.85575,990.84184 C 416.85575,990.84184 416.85575,960.90104 416.85575,960.90104 C 416.85575,960.90104 423.33588,960.90104 423.33588,960.90104 C 423.33588,960.90104 423.33588,990.84184 423.33588,990.84184 z "
         style="fill:#231f20;fill-rule:nonzero;stroke:none" />
      <path
         id="path7118"
         class="ps010"
         d="M 504.4438,1009.1638 C 489.69717,1010.0576 480.75951,997.54501 480.75951,985.25584 C 480.75951,971.62609 488.57978,959.7838 504.22033,959.7838 C 514.94581,959.7838 523.43579,964.25263 525.22361,975.42456 C 525.22361,975.42456 518.7442,975.42456 518.7442,975.42456 C 517.40334,968.2745 511.37017,964.92291 504.22033,964.92291 C 492.1547,964.92291 487.23892,974.97767 487.23892,985.03243 C 487.23892,994.86371 493.49557,1004.2482 505.33771,1004.0247 C 511.37017,1003.8013 516.28595,1002.6841 518.7442,998.66218 C 520.5313,996.20436 520.08435,991.7356 519.86087,988.38402 C 519.86087,988.38402 504.22033,988.38402 504.22033,988.38402 C 504.22033,988.38402 504.22033,983.02149 504.22033,983.02149 C 504.22033,983.02149 525.67057,983.02149 525.67057,983.02149 C 525.67057,983.02149 525.67057,995.3106 525.67057,1000.6731 C 520.08435,1007.5997 513.38146,1008.7169 504.4438,1009.1638 z "
         style="fill:#231f20;fill-rule:nonzero;stroke:none" />
      <path
         id="path7120"
         class="ps010"
         d="M 605.8853,1003.8013 C 617.72745,1003.8013 622.86671,993.74654 622.86671,984.36207 C 622.86671,974.97767 617.72745,964.92291 605.8853,964.92291 C 593.81968,964.92291 588.90389,974.97767 588.90389,984.36207 C 588.90389,993.74654 593.81968,1003.8013 605.8853,1003.8013 z M 605.8853,959.7838 C 621.52584,959.7838 629.34612,971.62609 629.34612,984.36207 C 629.34612,997.09813 621.52584,1008.9403 605.8853,1008.9403 C 590.24404,1008.9403 582.42377,997.09813 582.42377,984.36207 C 582.42377,971.62609 590.24404,959.7838 605.8853,959.7838 z "
         style="fill:#231f20;fill-rule:nonzero;stroke:none" />
      <path
         id="path7122"
         class="ps010"
         d="M 760.95131,981.01048 C 760.95131,981.01048 773.91085,981.01048 773.91085,981.01048 C 781.28488,981.01048 784.41285,978.55266 784.41285,973.63702 C 784.41285,967.15733 779.72054,966.04009 773.91085,966.04009 C 773.91085,966.04009 760.95131,966.04009 760.95131,966.04009 C 760.95131,966.04009 760.95131,981.01048 760.95131,981.01048 z M 760.95131,1002.6841 C 760.95131,1002.6841 777.26229,1002.6841 777.26229,1002.6841 C 782.84851,1002.6841 786.42343,999.33247 786.42343,994.19342 C 786.42343,988.16054 781.28488,986.37308 775.69867,986.37308 C 775.69867,986.37308 760.95131,986.37308 760.95131,986.37308 C 760.95131,986.37308 760.95131,1002.6841 760.95131,1002.6841 z M 754.47191,960.90104 C 754.47191,960.90104 772.12375,960.90104 772.12375,960.90104 C 776.59258,960.90104 782.17807,960.90104 785.08328,962.46509 C 788.43472,964.47603 790.89225,967.82762 790.89225,972.29637 C 790.89225,977.43549 788.21124,981.23396 783.74241,983.02149 C 783.74241,983.02149 783.74241,983.02149 783.74241,983.02149 C 789.77487,984.13867 793.12703,988.60742 793.12703,994.41683 C 793.12703,1001.3435 787.76429,1007.8232 778.1562,1007.8232 C 778.1562,1007.8232 754.47191,1007.8232 754.47191,1007.8232 C 754.47191,1007.8232 754.47191,960.90104 754.47191,960.90104 z "
         style="fill:#231f20;fill-rule:nonzero;stroke:none" />
      <path
         id="path7124"
         class="ps010"
         d="M 875.12886,1003.8013 C 887.19449,1003.8013 892.11027,993.74654 892.11027,984.36207 C 892.11027,974.97767 887.19449,964.92291 875.12886,964.92291 C 863.28672,964.92291 858.14746,974.97767 858.14746,984.36207 C 858.14746,993.74654 863.28672,1003.8013 875.12886,1003.8013 z M 875.12886,959.7838 C 890.76941,959.7838 898.81316,971.62609 898.81316,984.36207 C 898.81316,997.09813 890.76941,1008.9403 875.12886,1008.9403 C 859.48832,1008.9403 851.66805,997.09813 851.66805,984.36207 C 851.66805,971.62609 859.48832,959.7838 875.12886,959.7838 z "
         style="fill:#231f20;fill-rule:nonzero;stroke:none" />
      <path
         id="path7126"
         class="ps010"
         d="M 988.85946,974.75419 C 988.18903,967.82762 983.49672,964.92291 976.79384,964.92291 C 971.20762,964.92291 965.84488,966.93385 965.84488,972.96674 C 965.84488,978.77614 973.66515,979.66991 981.48543,981.45737 C 989.30642,983.02149 997.12669,985.70272 997.12669,995.08719 C 997.12669,1004.9185 986.84816,1008.9403 977.91051,1008.9403 C 966.96227,1008.9403 957.80113,1003.8013 957.80113,992.40589 C 957.80113,992.40589 963.8343,992.40589 963.8343,992.40589 C 963.8343,1000.2262 970.76067,1003.8013 978.13398,1003.8013 C 984.16715,1003.8013 990.64656,1002.0138 990.64656,995.08719 C 990.64656,988.60742 982.82629,987.71366 975.00602,985.9262 C 967.18575,984.36207 959.142,982.12773 959.142,973.41362 C 959.142,964.02915 968.07966,959.7838 977.0166,959.7838 C 987.07164,959.7838 994.66844,964.25263 995.11539,974.75419 C 995.11539,974.75419 988.85946,974.75419 988.85946,974.75419 z "
         style="fill:#231f20;fill-rule:nonzero;stroke:none" />
      <path
         id="path7128"
         class="ps010"
         d="M 1094.7691,974.75419 C 1093.8752,967.82762 1089.1836,964.92291 1082.48,964.92291 C 1077.1172,964.92291 1071.5317,966.93385 1071.5317,972.96674 C 1071.5317,978.77614 1079.352,979.66991 1087.3958,981.45737 C 1095.216,983.02149 1103.0363,985.70272 1103.0363,995.08719 C 1103.0363,1004.9185 1092.7585,1008.9403 1083.8208,1008.9403 C 1072.8719,1008.9403 1063.488,1003.8013 1063.488,992.40589 C 1063.488,992.40589 1069.7439,992.40589 1069.7439,992.40589 C 1069.7439,1000.2262 1076.671,1003.8013 1084.0443,1003.8013 C 1089.8533,1003.8013 1096.5569,1002.0138 1096.5569,995.08719 C 1096.5569,988.60742 1088.5131,987.71366 1080.6929,985.9262 C 1072.8719,984.36207 1065.0516,982.12773 1065.0516,973.41362 C 1065.0516,964.02915 1073.7658,959.7838 1082.9269,959.7838 C 1092.7585,959.7838 1100.5788,964.25263 1100.8022,974.75419 C 1100.8022,974.75419 1094.7691,974.75419 1094.7691,974.75419 z "
         style="fill:#231f20;fill-rule:nonzero;stroke:none" />
      <path
         id="path7130"
         class="ps010"
         d="M 338.20536,712.88395 C 338.20536,712.88395 338.20536,797.34382 338.20536,797.34382 C 338.20536,797.34382 368.81673,797.34382 368.81673,797.34382 C 368.81673,797.34382 371.49774,797.12034 373.06209,796.67346 C 390.93669,795.1094 402.3326,773.65931 403.44926,758.01855 C 405.23708,741.26069 394.95856,713.55424 369.26369,712.88395 C 361.66618,712.66047 338.20536,712.88395 338.20536,712.88395 z M 338.20536,807.1751 C 338.20536,807.1751 338.20536,908.3929 338.20536,908.3929 C 338.20536,908.3929 365.91153,908.3929 365.91153,908.3929 C 365.91153,908.3929 381.55279,909.51007 395.62899,898.11474 C 409.48244,886.94274 416.63228,870.40828 415.06865,851.41601 C 413.95126,834.43467 400.99173,810.30328 371.9447,807.1751 C 356.52763,807.1751 338.20536,807.1751 338.20536,807.1751 z M 403.44926,703.05259 C 426.46384,704.39324 441.43396,716.68242 442.77482,718.24647 C 454.61697,729.195 458.19189,745.72945 455.2874,761.59361 C 451.489,788.18283 418.42009,799.35476 418.42009,799.35476 C 446.12626,802.70634 466.90607,823.48615 470.03403,845.83001 C 472.71576,867.72706 464.67201,887.16621 446.57322,900.79596 C 428.25094,914.42572 401.43869,918.89454 386.91481,918.89454 C 386.91481,918.89454 274.74856,918.89454 268.49262,918.89454 C 268.49262,915.31948 268.49262,912.63826 268.49262,909.51007 C 283.68621,909.73355 285.47403,909.73355 285.47403,903.70067 C 285.25056,880.90993 285.47403,721.82146 285.47403,717.57618 C 285.47403,712.66047 283.01578,712.43706 268.49262,712.43706 C 268.26915,708.6386 268.7161,703.05259 268.7161,703.05259 C 268.7161,703.05259 403.44926,703.05259 403.44926,703.05259 z "
         style="fill:#231f20;fill-rule:nonzero;stroke:none" />
      <path
         id="path7132"
         class="ps010"
         d="M 586.22216,714.67141 C 571.47553,724.50276 561.19701,747.0701 556.28194,765.83897 C 548.46095,794.21564 550.02529,827.7315 557.84556,862.14106 C 565.88931,896.55061 588.00998,908.61631 601.19299,911.52101 C 625.7712,917.10701 641.8587,902.8069 650.57288,889.62403 C 667.55429,863.92859 671.79964,810.97357 666.4369,780.58589 C 661.52111,752.43262 653.92432,732.76999 639.17768,719.58712 C 622.64323,705.0636 598.95822,706.18078 586.22216,714.67141 z M 718.72199,848.28783 C 708.44346,878.89899 687.88714,898.11474 664.20284,910.62732 C 633.14451,927.38518 588.68041,930.06647 557.62209,911.52101 C 538.40662,900.12568 489.47369,869.738 495.9531,798.01411 C 497.29396,782.59683 505.11424,743.94192 548.23819,714.89489 C 577.73146,695.67913 620.18498,690.0932 659.73401,708.41519 C 721.403,736.56846 734.36253,806.05793 718.72199,848.28783 z "
         style="fill:#231f20;fill-rule:nonzero;stroke:none" />
      <path
         id="path7134"
         class="ps010"
         d="M 899.93054,713.10735 C 900.15402,729.195 899.93054,762.48738 899.93054,762.48738 C 899.93054,762.48738 892.11027,762.71079 892.11027,762.71079 C 887.41797,741.93098 877.36292,724.05588 860.15875,715.78865 C 843.6243,707.74483 818.59914,703.72296 802.28745,718.02299 C 792.68007,726.5137 791.33921,735.22781 794.69065,745.05909 C 800.50035,759.58268 816.58784,764.05143 829.10042,769.63736 C 839.37895,773.65931 861.27542,780.80937 861.27542,780.80937 C 885.63015,789.3 912.6666,805.83445 920.03992,833.31743 C 923.39136,845.15972 923.39136,858.56607 920.71035,870.63176 C 914.67718,897.44438 897.47301,903.92415 887.64144,910.62732 C 882.72566,913.97883 836.69722,931.63053 781.28488,913.53202 C 769.88897,909.73355 756.70596,905.26472 756.70596,905.26472 C 756.70596,905.26472 756.70596,845.15972 756.70596,845.15972 C 756.70596,845.15972 762.73913,845.38313 765.19666,845.38313 C 768.99506,854.991 772.34722,866.60981 780.39097,878.22863 C 799.15948,905.4882 825.74898,913.75543 855.01949,907.49914 C 866.63816,904.81791 879.37422,896.77409 882.72566,884.70839 C 886.97101,871.07864 885.63015,848.51131 844.51749,833.31743 C 814.80003,819.68768 777.48577,814.10175 759.83464,781.03277 C 752.90756,762.48738 754.91886,730.31217 777.70924,714.67141 C 800.72382,699.03072 823.06725,695.45573 850.10371,699.03072 C 876.91668,702.82919 884.06652,706.40418 899.93054,713.10735 z "
         style="fill:#231f20;fill-rule:nonzero;stroke:none" />
      <path
         id="path7136"
         class="ps010"
         d="M 1095.663,713.10735 C 1095.8865,729.195 1095.663,762.48738 1095.663,762.48738 C 1095.663,762.48738 1087.8427,762.71079 1087.8427,762.71079 C 1083.1504,741.93098 1073.0954,724.05588 1055.8912,715.78865 C 1039.356,707.74483 1014.3316,703.72296 998.01988,718.02299 C 988.41251,726.5137 987.07164,735.22781 990.42308,745.05909 C 996.23278,759.58268 1012.3203,764.05143 1024.8329,769.63736 C 1035.1114,773.65931 1057.0079,780.80937 1057.0079,780.80937 C 1081.3626,789.3 1108.399,805.83445 1115.7724,833.31743 C 1119.1238,845.15972 1119.1238,858.56607 1116.4428,870.63176 C 1110.4096,897.44438 1093.2054,903.92415 1083.3739,910.62732 C 1078.4581,913.97883 1032.4297,931.63053 977.0166,913.53202 C 965.6214,909.73355 952.43839,905.26472 952.43839,905.26472 C 952.43839,905.26472 952.43839,845.15972 952.43839,845.15972 C 952.43839,845.15972 958.47156,845.38313 960.9291,845.38313 C 964.72749,854.991 968.07966,866.60981 976.12341,878.22863 C 994.89191,905.4882 1021.4814,913.75543 1050.7519,907.49914 C 1062.3706,904.81791 1075.1066,896.77409 1078.4581,884.70839 C 1082.7034,871.07864 1081.3626,848.51131 1040.2499,833.31743 C 1010.5325,819.68768 973.2182,814.10175 955.56708,781.03277 C 948.64,762.48738 950.65129,730.31217 973.66515,714.67141 C 996.45626,699.03072 1018.7997,695.45573 1045.6127,699.03072 C 1072.6484,702.82919 1079.799,706.40418 1095.663,713.10735 z "
         style="fill:#231f20;fill-rule:nonzero;stroke:none" />
    </g>
  </g>
</svg>
