<?xml version="1.0" encoding="UTF-8"?>
<svg width="170px" height="24px" viewBox="0 0 170 24" version="1.1" xmlns="http://www.w3.org/2000/svg" xmlns:xlink="http://www.w3.org/1999/xlink">
    <!-- Generator: Sketch 49.2 (51160) - http://www.bohemiancoding.com/sketch -->
    <title>cathaypacific-en-green</title>
    <desc>Created with Sketch.</desc>
    <defs></defs>
    <g id="Page-1" stroke="none" stroke-width="1" fill="none" fill-rule="evenodd">
        <g id="Artboard-Copy" transform="translate(-77.000000, -772.000000)" fill="#006564">
            <g id="cathaypacific-en-green" transform="translate(77.000000, 772.000000)">
                <path d="M73.5896347,21.9159077 C73.5896347,20.5340202 73.5846821,14.703764 73.5846821,13.3216285 C73.5846821,11.9375098 74.367446,11.8373515 74.367446,11.8373515 L74.4481739,11.7609931 L70.2557689,11.7609931 L70.3327823,11.8373515 C70.3327823,11.8373515 71.1177749,11.9375098 71.1177749,13.3216285 C71.1177749,14.703764 71.1239657,16.6947827 71.1239657,16.6947827 L65.3563753,16.6947827 L65.3563753,13.3216285 C65.3563753,11.9375098 66.1433489,11.8423098 66.1433489,11.8423098 L66.2196195,11.7622327 L62.0306813,11.7622327 L62.1119045,11.8423098 C62.1119045,11.8423098 62.8941731,11.9375098 62.8941731,13.3216285 L62.8941731,21.9159077 C62.8941731,23.3010181 62.1119045,23.4197702 62.1119045,23.4197702 L62.0306813,23.4981119 L66.2196195,23.4981119 L66.1433489,23.4197702 C66.1433489,23.4197702 65.3563753,23.3010181 65.3563753,21.9159077 L65.3563753,17.8456119 L71.1239657,17.8456119 L71.1239657,21.9159077 C71.1239657,23.3010181 70.3419447,23.4197702 70.3419447,23.4197702 L70.2607215,23.4981119 L74.45486,23.4981119 L74.3736368,23.4197702 C74.3736368,23.4197702 73.5896347,23.3010181 73.5896347,21.9159077 L73.5896347,21.9159077 Z M51.5865658,11.7622327 C50.2035426,11.7622327 50.0098946,11.6295973 50.0098946,11.6295973 L50.0037038,13.965964 L50.0849271,13.906464 C50.0849271,13.906464 50.715645,12.8937244 52.0939632,12.8937244 L54.0616449,12.8937244 L54.0616449,21.9159077 C54.0616449,23.3010181 53.2823478,23.4197702 53.2823478,23.4197702 L53.2011246,23.4981119 L57.3920439,23.4981119 L57.3140399,23.4197702 C57.3140399,23.4197702 56.5287997,23.3010181 56.5287997,21.9159077 L56.5392002,12.8937244 L58.4613176,12.8937244 C59.8431026,12.8937244 60.5067557,13.906464 60.5067557,13.906464 L60.5879789,13.965964 L60.5929315,11.6295973 C60.5929315,11.6295973 60.3975501,11.7622327 59.0142793,11.7622327 L51.5865658,11.7622327 Z M79.327757,19.0180098 L81.1389354,15.2097619 L82.7891532,19.0180098 L79.327757,19.0180098 Z M86.831741,21.9099577 L81.6743152,11.1716952 L76.5515577,21.9099577 C75.7848899,23.3791119 74.9399705,23.4103494 74.9399705,23.4103494 L74.8602331,23.491914 L78.3642219,23.491914 L78.2879514,23.4103494 C78.2879514,23.4103494 77.3070821,23.2167265 77.927152,21.9099577 L78.8463609,20.0151306 L83.2405858,20.0151306 L84.1303266,21.9099577 C84.7548538,23.2167265 83.7744798,23.4103494 83.7744798,23.4103494 L83.6947424,23.491914 L88.5235609,23.491914 L88.4420901,23.4103494 C88.4420901,23.4103494 87.5518541,23.4041515 86.831741,21.9099577 L86.831741,21.9099577 Z M95.1061073,11.7622327 L95.1873305,11.8423098 C95.1873305,11.8423098 96.2236693,12.133116 95.4431341,13.349891 C95.0590573,13.9409244 93.9065793,15.5947765 92.8546397,17.1923515 C91.7992333,15.5947765 90.6626037,13.9315035 90.2814985,13.3404702 C89.5009633,12.1219598 90.5407689,11.8423098 90.5407689,11.8423098 L90.6187729,11.7622327 L85.7899544,11.7622327 L85.868206,11.8423098 C85.868206,11.8423098 86.567518,11.9580869 87.4835077,13.3404702 C87.8675845,13.9248098 89.8283325,16.6667681 90.8842341,18.2673181 L90.8842341,21.9159077 C90.8842341,23.3010181 90.1002321,23.4197702 90.1002321,23.4197702 L90.0222281,23.4981119 L94.2126521,23.4981119 L94.1314289,23.4197702 C94.1314289,23.4197702 93.351389,23.3010181 93.351389,21.9159077 C93.351389,21.331816 93.3444553,19.865141 93.3444553,18.2673181 C94.4003569,16.6667681 96.3645717,13.9349744 96.7513725,13.349891 C97.6601809,11.9687473 98.7034533,11.8423098 98.7034533,11.8423098 L98.7846765,11.7622327 L95.1061073,11.7622327 Z M33.4888967,22.381991 C30.9670153,22.381991 29.2276501,20.727891 29.2276501,17.7077702 C29.2276501,14.6911202 30.9192224,12.7184473 33.5812634,12.7184473 C36.3433476,12.7184473 37.337589,14.8693723 37.337589,14.8693723 L37.4029637,14.9256494 L37.4029637,12.386239 C37.4029637,12.386239 35.7485362,11.5765431 33.3920727,11.5765431 C29.1372645,11.5765431 26.4675469,14.2002452 26.4675469,17.7236369 C26.4675469,20.5588119 28.6719645,23.688264 33.2189782,23.688264 C34.9348184,23.688264 36.9349398,23.006989 36.9349398,23.006989 L37.8541487,19.862166 L37.753115,19.927616 C37.753115,19.927616 36.2621244,22.381991 33.4888967,22.381991 L33.4888967,22.381991 Z M42.4026482,19.0180098 L44.2123408,15.2097619 L45.8625586,19.0180098 L42.4026482,19.0180098 Z M49.9068798,21.9099577 L44.7497016,11.1716952 L39.626449,21.9099577 C38.8602764,23.3791119 38.0123854,23.4103494 38.0123854,23.4103494 L37.9356196,23.491914 L41.4440658,23.491914 L41.359871,23.4103494 C41.359871,23.4103494 40.379497,23.2167265 41.0037766,21.9099577 L41.9217474,20.0151306 L46.3139912,20.0151306 L47.2052178,21.9099577 C47.8252876,23.2167265 46.8463994,23.4103494 46.8463994,23.4103494 L46.7698812,23.491914 L51.599195,23.491914 L51.516486,23.4103494 C51.516486,23.4103494 50.6252595,23.4041515 49.9068798,21.9099577 L49.9068798,21.9099577 Z" id="Fill-4"></path>
                <path d="M115.113413,19.0181338 L116.921372,15.2098858 L118.573571,19.0181338 L115.113413,19.0181338 Z M122.61393,21.9098337 L117.458733,11.1718192 L112.337214,21.9098337 C111.56906,23.3792358 110.725627,23.4104733 110.725627,23.4104733 L110.644899,23.49179 L114.148392,23.49179 L114.073608,23.4104733 C114.073608,23.4104733 113.089767,23.2168504 113.711322,21.9098337 L114.635484,20.0150067 L119.02327,20.0150067 L119.91623,21.9098337 C120.537538,23.2168504 119.556669,23.4104733 119.556669,23.4104733 L119.478913,23.49179 L124.306741,23.49179 L124.225518,23.4104733 C124.225518,23.4104733 123.335529,23.4040275 122.61393,21.9098337 L122.61393,21.9098337 Z" id="Fill-6"></path>
                <path d="M156.864022,11.8372771 L156.942274,11.7609188 L152.751602,11.7609188 L152.829359,11.8372771 C152.829359,11.8372771 153.613361,11.9550375 153.613361,13.3374208 L153.613361,21.9317 C153.613361,23.3135875 152.829359,23.4293646 152.829359,23.4293646 L152.751602,23.5106813 L156.942274,23.5106813 L156.864022,23.4293646 C156.864022,23.4293646 156.08002,23.3135875 156.08002,21.9317 L156.08002,13.3374208 C156.08002,11.9550375 156.864022,11.8372771 156.864022,11.8372771" id="Fill-8"></path>
                <path d="M130.739371,22.3819663 C128.218975,22.3819663 126.479858,20.7278663 126.479858,17.7077454 C126.479858,14.6913433 128.169201,12.7184225 130.836195,12.7184225 C133.593327,12.7184225 134.589797,14.8693475 134.589797,14.8693475 L134.655171,14.9256246 L134.655171,12.3862142 C134.655171,12.3862142 133.000001,11.5765183 130.645519,11.5765183 C126.389472,11.5765183 123.719507,14.2002204 123.719507,17.7236121 C123.719507,20.5587871 125.924172,23.6884871 130.470938,23.6884871 C132.188512,23.6884871 134.1869,23.0069642 134.1869,23.0069642 L135.104871,19.8621413 L135.005323,19.9278392 C135.005323,19.9278392 133.512599,22.3819663 130.739371,22.3819663" id="Fill-10"></path>
                <path d="M142.989886,11.7610179 L143.064918,11.8423346 C143.064918,11.8423346 143.848425,11.9581117 143.848425,13.340495 L143.848425,21.9315512 C143.848425,23.3136867 143.064918,23.4292158 143.064918,23.4292158 L142.989886,23.5107804 L147.177338,23.5107804 L147.096115,23.4292158 C147.096115,23.4292158 146.31558,23.3136867 146.31558,21.9315512 L146.31558,21.9285762 L146.31558,17.7737408 L148.788925,17.7737408 C150.168729,17.7737408 150.284373,18.3798971 150.284373,18.3798971 L150.365596,18.4617096 L150.365596,15.9386617 L150.284373,16.0199783 C150.284373,16.0199783 150.168729,16.6231596 148.788925,16.6231596 L146.31558,16.6231596 L146.31558,12.8687096 L149.288646,12.8687096 C150.671917,12.8687096 151.246422,13.6627867 151.246422,13.6627867 L151.327646,13.7252617 L151.327646,11.6283825 C151.327646,11.6283825 151.127807,11.7610179 149.744536,11.7610179 L142.989886,11.7610179 Z" id="Fill-12"></path>
                <path d="M140.735075,11.8372771 L140.813079,11.7609188 L136.619683,11.7609188 L136.700907,11.8372771 C136.700907,11.8372771 137.484413,11.9550375 137.484413,13.3374208 L137.484413,21.9317 C137.484413,23.3135875 136.700907,23.4293646 136.700907,23.4293646 L136.619683,23.5106813 L140.813079,23.5106813 L140.735075,23.4293646 C140.735075,23.4293646 139.948101,23.3135875 139.948101,21.9317 L139.948101,13.3374208 C139.948101,11.9550375 140.735075,11.8372771 140.735075,11.8372771" id="Fill-14"></path>
                <path d="M169.414419,19.92774 C169.414419,19.92774 167.928133,22.3818671 165.148467,22.3818671 C162.631538,22.3818671 160.885982,20.7277671 160.885982,17.7078942 C160.885982,14.6912442 162.578793,12.7185712 165.24232,12.7185712 C168.006137,12.7185712 168.998893,14.8694962 168.998893,14.8694962 L169.067734,14.9255254 L169.067734,12.386115 C169.067734,12.386115 167.406373,11.5734442 165.054615,11.5734442 C160.802035,11.5734442 158.128851,14.2001212 158.128851,17.7235129 C158.128851,20.5589358 160.333268,23.6883879 164.883501,23.6883879 C166.597608,23.6883879 168.595996,23.0071129 168.595996,23.0071129 L169.517434,19.8620421 L169.414419,19.92774 Z" id="Fill-16"></path>
                <path d="M106.213678,13.3373713 L106.213678,12.8836838 L106.763172,12.8836838 C107.437721,12.8836838 108.137033,12.8836838 108.555531,13.0220213 C109.661207,13.350015 110.220359,14.1939233 110.220359,15.5225088 C110.220359,16.6073921 109.529962,18.2208338 107.624931,18.2208338 C107.074941,18.2208338 106.50093,18.0019233 106.213678,17.8705275 L106.213678,13.3373713 Z M108.443354,19.3463754 C111.028877,19.3463754 112.571375,17.3858504 112.571375,15.4944942 C112.571375,14.4472942 112.184326,12.5839525 109.570326,11.9235025 C108.98641,11.7747525 108.336872,11.7655796 107.484771,11.7655796 L102.884764,11.7611171 L102.962521,11.8372275 C102.962521,11.8372275 103.746523,11.9549879 103.746523,13.3373713 L103.746523,21.9316504 C103.746523,23.3135379 102.962521,23.429315 102.962521,23.429315 L102.884764,23.5106317 L107.072217,23.5106317 L106.994213,23.429315 C106.994213,23.429315 106.213678,23.3135379 106.213678,21.9316504 L106.213678,18.9368171 C106.578934,19.0994504 107.315886,19.3463754 108.443354,19.3463754 L108.443354,19.3463754 Z" id="Fill-18"></path>
                <path d="M7.21564166,11.3935062 C7.1386282,11.4036708 7.05220473,11.2916125 7.0153076,11.23955 C7.00416417,11.2236833 6.96181915,11.1344333 6.97296258,11.1207979 C6.98881101,11.1074104 7.07672027,11.1374083 7.10049291,11.1564979 C7.15769584,11.2023625 7.20449824,11.2658292 7.23149009,11.3751604 C7.23347115,11.3873083 7.22232772,11.3927625 7.21564166,11.3935062 M5.35023191,10.3577104 C5.29748635,10.3770479 5.16772733,10.2302812 5.13206836,10.1764833 C5.0652078,10.0755812 4.99958539,9.96501042 4.92851509,9.86782708 C4.86363558,9.77956875 4.79157475,9.71758958 4.77473579,9.56561667 C4.77275474,9.54776667 4.76210657,9.50215 4.77325,9.50289375 C4.84481557,9.50859583 4.91291429,9.63379375 4.94832563,9.6821375 C4.97383169,9.71709375 5.00379513,9.75205 5.02756778,9.78874167 C5.06198859,9.84204375 5.07684649,9.90675 5.11324835,9.95633333 C5.15757443,10.0175687 5.21230104,10.0745896 5.25984633,10.135825 C5.2853524,10.1690458 5.31977321,10.1980521 5.33562164,10.2424292 C5.34305059,10.2652375 5.36508981,10.3505208 5.35023191,10.3577104 M4.81584266,10.3371333 C4.77597395,10.3341583 4.75913499,10.3091187 4.73437182,10.2907729 C4.66825415,10.2421812 4.61451807,10.1643354 4.61253701,10.0510375 C4.61154649,10.0388896 4.61600386,10.0359146 4.62318518,10.0359146 C4.70118917,10.0354187 4.78142185,10.1559062 4.81138528,10.2116875 C4.82005239,10.2290417 4.83986293,10.2739146 4.83738662,10.3061437 C4.83614846,10.3272167 4.82772898,10.3366375 4.81584266,10.3371333 M3.03982795,10.6971083 C3.03735164,10.7052896 3.03017032,10.7161979 3.0175411,10.7169417 C2.93334631,10.7152062 2.90784025,10.5877771 2.87044786,10.5302604 C2.84048442,10.4826604 2.81448309,10.43035 2.7825386,10.3820062 C2.76025174,10.3485375 2.73226936,10.3133333 2.71369698,10.2751542 C2.69116249,10.2258187 2.68100959,10.1742521 2.65228431,10.1306187 C2.63742641,10.1075625 2.6131585,10.0874812 2.5968148,10.0659125 C2.55174583,10.0039333 2.50865791,9.93823542 2.479685,9.85989375 C2.47299894,9.83212708 2.46507473,9.80436042 2.45838867,9.77634583 C2.44105445,9.72899375 2.41975812,9.67841875 2.40366206,9.62809167 C2.39598548,9.60280417 2.39128048,9.55148542 2.39598548,9.53388333 C2.39895706,9.52570208 2.4024239,9.52074375 2.40811943,9.52198333 C2.47299894,9.53214792 2.53540214,9.68982292 2.56734663,9.74684375 C2.60151981,9.80832708 2.65674168,9.85840625 2.68720038,9.92212083 C2.71419224,9.97938958 2.72285935,10.0522771 2.75381332,10.1085542 C2.77808122,10.1514437 2.81869283,10.1861521 2.84494179,10.2270583 C2.88010549,10.2806083 2.90387814,10.3502729 2.93136526,10.409525 C2.96182396,10.4762146 3.00590241,10.5277812 3.03190374,10.5922396 C3.04304717,10.6200062 3.0479998,10.6673583 3.03982795,10.6971083 M2.7099825,8.27297917 C2.6943817,8.24422083 2.67605696,8.20926458 2.66441826,8.17777917 C2.65129378,8.14207917 2.64956036,8.10885833 2.63445483,8.07514167 C2.58468085,7.964075 2.52896371,7.84160417 2.47869447,7.73252083 C2.45739815,7.68665625 2.42941576,7.60087708 2.4492263,7.54261667 C2.45219788,7.5341875 2.46903684,7.54038542 2.47621816,7.54732708 C2.49330475,7.56245 2.50494344,7.57211875 2.51930608,7.58872917 C2.52995424,7.60459583 2.53292582,7.62195 2.54357398,7.63806458 C2.56808952,7.67599583 2.60003402,7.71392708 2.61934929,7.75632083 C2.66095142,7.84581875 2.67159958,7.94672083 2.71270645,8.0339875 C2.73994594,8.092 2.78476728,8.14207917 2.81349256,8.20157917 C2.8278552,8.23256875 2.83701757,8.26653333 2.84667521,8.30049792 C2.8536089,8.3255375 2.85212311,8.36024583 2.8536089,8.38007917 C2.85509469,8.40982917 2.85162785,8.42891875 2.83998915,8.42941458 C2.76223279,8.4252 2.73945068,8.32950417 2.7099825,8.27297917 M19.5890559,15.7588229 C19.4902508,15.3966167 18.4306347,15.5520604 17.5587234,15.4724792 C16.7653113,15.4000875 15.7482879,15.2575354 14.5247395,14.8323583 C13.3811762,14.4349479 12.2732719,13.979525 11.3082511,13.4571646 C11.3082511,13.4571646 10.9174883,13.2513937 10.8763814,13.2280896 C10.7961487,13.17925 10.7332503,13.1440458 10.6540081,13.0947104 C10.6069581,13.0664479 10.5348972,13.0235583 10.4814088,13.0002542 C10.414053,12.9719917 10.3684887,12.9355479 10.3100476,12.8993521 C10.250616,12.8629083 10.1693928,12.8239854 10.109466,12.7870458 C10.0203185,12.7322562 9.96484903,12.6893667 9.88164477,12.628875 C9.82939448,12.5914396 9.80364078,12.5802833 9.73405626,12.5378896 C9.6929494,12.51285 9.61692646,12.4719437 9.5797817,12.4471521 C9.50227297,12.3960812 9.45299426,12.3531917 9.37573316,12.2993937 C9.32769261,12.2661729 9.29302417,12.2453479 9.23582124,12.2103917 C9.17985647,12.1756833 9.12711092,12.1315542 9.0778322,12.0956062 C9.05059271,12.0752771 9.01047638,12.0519729 8.98521794,12.0266854 C8.92875791,11.9718958 8.87254551,11.9223125 8.81360916,11.8742167 C8.75838728,11.8338062 8.70762278,11.7837271 8.65363907,11.7435646 C8.61971352,11.718525 8.5617677,11.6689417 8.52784215,11.6446458 C8.44067579,11.581675 8.38570154,11.5345708 8.29903044,11.4713521 C8.24281804,11.42995 8.19601565,11.3751604 8.14029851,11.3340062 C8.07740005,11.28715 8.02044476,11.2340958 7.95556524,11.1882312 C7.91396312,11.1584812 7.86617019,11.1212937 7.83472096,11.0885687 C7.79262357,11.0389854 7.7530025,11.0052687 7.71040984,10.9554375 C7.67896061,10.9197375 7.61606216,10.8818062 7.58139371,10.8448667 C7.52765763,10.7764417 7.45163469,10.7042979 7.38006913,10.6502521 C7.338467,10.6108333 7.32484725,10.5927354 7.30899882,10.5719104 C7.29587434,10.5538125 7.28101644,10.5339792 7.24610036,10.4980312 C7.21118429,10.4625792 7.2002885,10.4521667 7.1846877,10.4380354 C7.16958216,10.4244 7.15125742,10.4070458 7.10495028,10.3611812 C7.08934948,10.3458104 7.06483394,10.3115979 7.04056604,10.2783771 C7.01877444,10.2481312 6.99846864,10.2198687 6.98435364,10.2044979 C6.94275151,10.1591292 6.91377859,10.1286354 6.88381516,10.0969021 C6.86202357,10.0743417 6.83973671,10.0505417 6.81175433,10.0205437 C6.79541063,10.0029417 6.78129562,9.98162083 6.76767588,9.96104375 C6.75479903,9.94145833 6.74117929,9.92112917 6.72557849,9.90402292 C6.70007242,9.87600833 6.68125241,9.88567708 6.67580451,9.88939583 C6.66045134,9.89980833 6.65450818,9.92955833 6.6725853,9.96575417 C6.69388163,10.0074042 6.72656901,10.0545083 6.74637955,10.0827708 C6.75083692,10.0884729 6.75430377,10.0936792 6.75702772,10.0973979 C6.76544719,10.1102896 6.77312378,10.123925 6.7803051,10.1373125 C6.79194379,10.1573937 6.80358248,10.1784667 6.81819275,10.1980521 C6.85038487,10.2416854 6.88530095,10.2776333 6.91922649,10.3128375 C6.93036992,10.3239937 6.94200861,10.3356458 6.95265677,10.3475458 C6.97568652,10.3718417 6.99326838,10.3971292 7.01159312,10.4241521 C7.03041314,10.451175 7.04972841,10.4794375 7.07498685,10.5062125 C7.08662554,10.5178646 7.09677844,10.5315 7.10594081,10.5446396 C7.11708424,10.5597625 7.12798003,10.5748854 7.14110451,10.5877771 C7.16041979,10.6063708 7.17973506,10.6267 7.19929797,10.6462854 C7.23099483,10.6795062 7.26442511,10.7137187 7.2963696,10.7407417 C7.32063751,10.7613187 7.34614358,10.7875979 7.37140201,10.8126375 C7.43677679,10.8894917 7.50685657,10.9668417 7.56480239,11.0404729 C7.59823267,11.0831146 7.65865481,11.1141042 7.69629483,11.1426146 C7.73789696,11.1736042 7.77083198,11.2283937 7.803767,11.2702917 C7.82902544,11.2995458 7.88399968,11.3498729 7.9107439,11.3808625 C7.97587105,11.4644104 8.02044476,11.5092833 8.1051348,11.5722542 C8.15688983,11.6104333 8.19700617,11.6453896 8.23662725,11.6957167 C8.25990463,11.7259625 8.33444178,11.7978583 8.36143364,11.831575 C8.43200868,11.9213208 8.46395317,12.0048687 8.45380027,12.0071 C8.40551208,12.0199917 8.28838228,11.9166104 8.21978829,11.8717375 C8.1620901,11.8333104 8.15342299,11.8179396 8.09968691,11.778025 C8.08755295,11.7676125 8.00212001,11.7068729 7.97215657,11.6699333 C7.94887919,11.6488604 7.88449494,11.5796917 7.86517967,11.5551479 C7.7678604,11.4311896 7.73467775,11.4235042 7.62299584,11.3144208 C7.54152501,11.2348396 7.44098653,11.1634396 7.36124911,11.0922875 C7.33797173,11.067 7.31419909,11.0417125 7.29116934,11.0159292 C7.26442511,10.9898979 7.23149009,10.9653542 7.20895561,10.9395708 C7.17156322,10.8927146 7.12178924,10.8009854 7.07771079,10.7680125 C7.0309084,10.7330562 6.99698285,10.7000833 6.95018046,10.6648792 C6.93358913,10.653475 6.91823597,10.6316583 6.90164464,10.6187667 C6.87911015,10.6021562 6.85236593,10.5828187 6.83503171,10.56125 C6.78080036,10.4918333 6.72706428,10.4216729 6.6725853,10.3515125 C6.6468316,10.3182917 6.61117263,10.290525 6.5859142,10.2560646 C6.53217811,10.1824333 6.48859493,10.1058271 6.43461121,10.0349229 C6.3595788,9.93674792 6.25161137,9.86683542 6.17905528,9.76742083 C6.10476576,9.665775 6.06019205,9.54652708 5.98961701,9.43992292 C5.95915831,9.39381042 5.91161302,9.36108542 5.8794209,9.31745208 C5.85936273,9.29117292 5.84920983,9.26191875 5.83088508,9.23390417 C5.79374032,9.17688333 5.74966187,9.12135 5.71152659,9.06606458 C5.66175261,8.99317708 5.62782707,8.91359583 5.57854836,8.8372375 C5.57012888,8.82632917 5.55279466,8.7747625 5.52233596,8.73658333 C5.49237252,8.69840417 5.46637119,8.65526667 5.43244564,8.60097292 C5.39802483,8.54692708 5.38118587,8.51097917 5.35691797,8.47379167 C5.33240243,8.43635625 5.31630636,8.40115208 5.29946741,8.37487292 C5.28337134,8.34859375 5.24771238,8.29975417 5.23508316,8.28041667 C5.18951892,8.21000833 5.1776326,8.17728333 5.12909678,8.11257708 C5.10012387,8.07291042 5.06916991,8.04018542 5.04316858,8.05010208 C5.02236751,8.06448125 5.02954883,8.089025 5.03425383,8.10662708 C5.05555016,8.16439167 5.05555016,8.15422708 5.07783702,8.19538125 C5.11522941,8.26430208 5.12860152,8.297275 5.16921312,8.35950208 C5.18803313,8.38999583 5.22047289,8.45866875 5.24721711,8.49635208 C5.27321844,8.53477917 5.29946741,8.57890833 5.31729689,8.61064167 C5.3361169,8.64411042 5.36459455,8.73187292 5.39331983,8.76831667 C5.41362563,8.79484375 5.44210328,8.84888958 5.46141855,8.88706875 C5.50054436,8.96491458 5.55031834,9.02615 5.59068231,9.08788125 C5.61816943,9.13845625 5.64466603,9.18952708 5.67190551,9.24010208 C5.72539397,9.32117083 5.78928295,9.39777708 5.84301903,9.48033333 C5.87595405,9.53859375 5.90789854,9.59710208 5.9403383,9.65561042 C5.97178753,9.70345833 6.01561834,9.74386875 6.04706757,9.79320417 C6.08495522,9.85146458 6.10649918,9.91517917 6.14438684,9.9722 C6.17435028,10.0173208 6.21347609,10.0602104 6.24343953,10.1053312 C6.29469929,10.1824333 6.34125406,10.2568083 6.39523777,10.3304396 C6.42495358,10.3703542 6.46457465,10.4048146 6.49404283,10.4449771 C6.53514969,10.5002625 6.56758945,10.5659604 6.6101821,10.6125687 C6.66094661,10.6599208 6.67530925,10.6881833 6.71468269,10.7347917 C6.7741143,10.8059437 6.92120755,11.0146896 6.89644437,11.0159292 C6.80977327,11.0273333 6.64386002,10.8384208 6.57328498,10.7699958 C6.518806,10.7161979 6.45863149,10.677275 6.42049621,10.6264521 C6.36527433,10.5510854 6.32466273,10.4672896 6.26869796,10.3939062 C6.24888742,10.3676271 6.21842872,10.3465542 6.19812292,10.3212667 C6.15974,10.2716833 6.12408104,10.2193729 6.07950733,10.1762354 C6.06118258,10.1583854 6.04137204,10.1427667 6.02428545,10.1229333 C5.95668199,10.0354187 5.8997267,9.94245 5.8333614,9.85196042 C5.80587428,9.81477292 5.76947241,9.78204792 5.74248055,9.74486042 C5.72118423,9.71610208 5.70954554,9.68436875 5.69023026,9.65362708 C5.66348604,9.61247292 5.62931286,9.5720625 5.60256863,9.53165208 C5.58226283,9.50115833 5.57012888,9.4709125 5.54982308,9.44017083 C5.51416411,9.38587708 5.46637119,9.338525 5.43095985,9.2834875 C5.40198694,9.2388625 5.39431036,9.17985833 5.36508981,9.13572917 C5.29154319,9.02193542 5.20982472,8.90615833 5.13726863,8.7926125 C5.11844862,8.76335833 5.1112673,8.73038542 5.09294255,8.70113125 C5.03375857,8.60890625 4.97828906,8.5070125 4.91984798,8.41528333 C4.89805639,8.38107083 4.88889401,8.34239583 4.86710242,8.30892708 C4.83986293,8.26727708 4.79875607,8.23529583 4.77176421,8.19414167 C4.75145841,8.16240833 4.74328656,8.1277 4.72669524,8.09150417 C4.70440838,8.04365625 4.67494021,7.99580833 4.6499294,7.95043958 C4.6343286,7.922425 4.62615676,7.89366667 4.6093178,7.86664375 C4.53849513,7.75681667 4.48054931,7.63856042 4.42260348,7.51658542 C4.39264004,7.45311875 4.34757107,7.39337083 4.31760763,7.32940833 C4.28368209,7.25875208 4.25124233,7.1861125 4.21929784,7.11669583 C4.20245888,7.06959167 4.18561993,7.02298333 4.1690286,6.97612708 C4.13436016,6.902 4.08210987,6.83902917 4.04818432,6.76267083 C4.02490694,6.71085625 4.01277298,6.66201667 3.99147666,6.61863125 C3.97859981,6.59210417 3.95284611,6.57003958 3.9340261,6.58193958 C3.91570135,6.59334375 3.91272977,6.61714375 3.92436846,6.65755417 C3.94715058,6.7354 3.9902385,6.82415417 4.01004904,6.86853125 C4.05016537,6.95678958 4.06997591,7.04851875 4.11058751,7.1385125 C4.13237911,7.18809583 4.16481886,7.23569583 4.18710572,7.28354375 C4.22672679,7.36733958 4.26387155,7.45411042 4.30200683,7.53443542 C4.32429369,7.5817875 4.34187554,7.62715625 4.36738161,7.67153333 C4.38100135,7.69508542 4.40031663,7.72136458 4.41195532,7.74739583 C4.43696612,7.80441667 4.44513797,7.86466042 4.4703964,7.91870625 C4.49738826,7.97547917 4.54097145,8.02307917 4.56722041,8.0786125 C4.70168443,8.36520417 4.83788188,8.63915208 5.00057592,8.8937625 C5.04589252,8.96441875 5.06916991,9.0514375 5.11473414,9.12209375 C5.16153654,9.19498125 5.22641605,9.25200208 5.27321844,9.32439375 C5.31209662,9.38364583 5.321259,9.46595417 5.3564227,9.52966875 C5.408673,9.62610833 5.47825751,9.70717708 5.5359557,9.796675 C5.55180413,9.82171458 5.5562615,9.85072083 5.57260519,9.87650417 C5.59439679,9.9112125 5.62188391,9.94517708 5.64466603,9.97938958 C5.6741342,10.0262458 5.68923973,10.0805396 5.72167949,10.123925 C5.75585267,10.1710292 5.80537901,10.2102 5.83955219,10.2578 C5.88264011,10.3168042 5.91161302,10.3852292 5.95618673,10.4444812 C5.9871407,10.4858833 6.03493362,10.5141458 6.06588758,10.5553 C6.11640445,10.6209979 6.28652745,10.8458583 6.33630142,10.9095729 C6.41232436,11.0057646 6.54629312,11.1475729 6.60968684,11.2745062 C6.62900212,11.313925 6.69660558,11.4063979 6.68224294,11.4247437 C6.64584107,11.4492875 6.47670861,11.2638458 6.44798333,11.2360792 C6.37691302,11.1676542 6.31550036,11.0746854 6.25408769,10.9965917 C6.23972505,10.9794854 6.07653575,10.8193312 6.06316363,10.8017292 C6.04706757,10.7809042 6.02973335,10.7580958 6.01561834,10.7370229 C5.970797,10.6695896 5.94306225,10.588025 5.8942788,10.5235667 C5.87446826,10.4975354 5.8435143,10.4774542 5.82370376,10.451175 C5.78606374,10.4020875 5.75981478,10.3448187 5.72366054,10.2944917 C5.66546709,10.2154062 5.59142521,10.14475 5.53347938,10.0659125 C5.47008566,9.97914167 5.42551195,9.87749583 5.36137534,9.79146875 C5.32943084,9.749075 5.28881924,9.71089583 5.25836054,9.66552708 C5.24523606,9.64495 5.23954053,9.62511667 5.22641605,9.60429167 C5.20313867,9.5690875 5.1721847,9.52917292 5.15385995,9.49025 C5.13677337,9.45430208 5.12587757,9.42008958 5.10507651,9.38736458 C5.03821594,9.28274375 4.97110774,9.17167708 4.90424718,9.06730417 C4.87428374,9.02044792 4.85744478,8.96937708 4.82723371,8.92252083 C4.77745974,8.84517083 4.71456128,8.77575417 4.66429204,8.6974125 C4.60486043,8.60543542 4.57291594,8.493625 4.51397959,8.40090417 C4.47485378,8.34016458 4.42928954,8.2824 4.39065899,8.2214125 C4.34757107,8.15521875 4.32627474,8.07786875 4.28813946,8.00845208 C4.25520444,7.94746458 4.20864968,7.89093958 4.17967676,7.82920833 C4.14773227,7.76301458 4.12544542,7.69657292 4.09325329,7.6279 C4.07567144,7.59120833 4.04917485,7.5550125 4.03233589,7.51708125 C4.01178246,7.46997708 4.00658219,7.42212917 3.98578113,7.37676042 C3.92734004,7.24883542 3.83967841,7.12710833 3.77975154,6.99967917 C3.73666362,6.90844583 3.69902359,6.8142375 3.66361226,6.71804583 C3.64429698,6.66499167 3.63562987,6.61540833 3.61235249,6.565825 C3.55911167,6.44880833 3.49348927,6.32485 3.44123897,6.20832917 C3.41944738,6.14610208 3.39716053,6.083875 3.37437841,6.02164792 C3.37016867,6.00429375 3.36818761,5.98669167 3.36150156,5.96834583 C3.33723365,5.91355625 3.30479389,5.85951042 3.28349757,5.80496875 C3.26368703,5.74125417 3.24387649,5.67828333 3.22357069,5.61506458 C3.1408617,5.40855 3.06681981,5.17575625 2.98906345,4.96106042 C2.97841529,4.92164167 2.97643423,4.87329792 2.96182396,4.8314 C2.92170762,4.72157292 2.88109602,4.61100208 2.84097968,4.50067917 C2.81869283,4.44489792 2.76495674,4.4639875 2.7770907,4.5205125 C2.79368202,4.59711875 2.80383492,4.61521667 2.81621651,4.67471667 C2.82265493,4.70545833 2.82835046,4.73570417 2.83478889,4.76595 C2.84296073,4.80239375 2.86178075,4.84131667 2.87242891,4.87627292 C2.89322997,4.94197083 2.89471576,5.00717292 2.91749788,5.07014375 C2.94894711,5.15939375 2.98064397,5.24467708 3.00986451,5.33640625 C3.01853163,5.381775 3.02818926,5.42763958 3.03735164,5.47325625 C3.05047612,5.51565 3.06731507,5.55953125 3.08291587,5.59845417 C3.12872774,5.71076042 3.17181566,5.81885208 3.211932,5.92967083 C3.22778043,5.99288958 3.24437175,6.05635625 3.26022018,6.119575 C3.27631625,6.15502708 3.30083179,6.19147083 3.31692785,6.22593125 C3.33079523,6.256425 3.33376681,6.28518333 3.34689129,6.3174125 C3.37536893,6.3888125 3.4016179,6.46194792 3.43356239,6.53384375 C3.46055425,6.59359167 3.49249874,6.65333958 3.51627138,6.71680625 C3.52691955,6.74754792 3.52691955,6.774075 3.53781534,6.80407292 C3.60665696,6.9927375 3.68168937,7.190575 3.76241731,7.36733958 C3.78222785,7.4122125 3.78792338,7.45857292 3.80822918,7.50394167 C3.82531577,7.541625 3.84834552,7.5817875 3.86543211,7.61823125 C3.87360396,7.64227917 3.88227107,7.666575 3.89044291,7.690375 C3.91570135,7.74342917 3.95829401,7.7870625 3.98280955,7.839125 C4.05264169,7.98589167 4.11454962,8.124725 4.20146836,8.25041875 C4.2821963,8.36619583 4.31711237,8.51940833 4.37852504,8.65749792 C4.40749795,8.7227 4.44662376,8.779225 4.48352089,8.83649375 C4.50135037,8.8669875 4.51348432,8.89996042 4.52834223,8.93169375 C4.56821093,9.00358958 4.58975489,9.06680833 4.63680492,9.13002708 C4.67444494,9.1823375 4.67122573,9.19398958 4.70317022,9.26737292 C4.7123326,9.28918958 4.74799156,9.4262875 4.74130551,9.4262875 C4.72867629,9.43496458 4.66107283,9.39381042 4.63829071,9.36852292 C4.60733675,9.3340625 4.5585533,9.28795 4.52561828,9.21307917 C4.50902695,9.17613958 4.47485378,9.11143333 4.45727192,9.0752375 C4.41467927,8.98375625 4.34261844,8.90665417 4.28962525,8.82385 C4.25867128,8.77501042 4.24158469,8.7212125 4.21607863,8.6676625 C4.17100965,8.57196667 4.12024515,8.47379167 4.07344276,8.37437708 C4.05387985,8.33347083 4.02441168,8.29306042 4.00138193,8.25636875 C3.97661875,8.21818958 3.96498006,8.1767875 3.93972163,8.1381125 C3.88623318,8.05406875 3.82605867,7.95911667 3.78321838,7.86788333 C3.75127389,7.80069792 3.73517783,7.732025 3.7037286,7.66632708 C3.69407096,7.64525417 3.67624148,7.62442917 3.66361226,7.60533958 C3.64182067,7.57112708 3.63315356,7.53294792 3.61482881,7.49501667 C3.5905609,7.44369792 3.55440667,7.39535417 3.53013876,7.34254792 C3.4828411,7.23867083 3.45436345,7.13033125 3.40533237,7.02695 C3.38255025,6.97885417 3.34391971,6.93794792 3.32113759,6.88960417 C3.28646915,6.81597292 3.2830023,6.72424375 3.24833386,6.64639792 C3.15819592,6.44285833 3.05419059,6.232625 2.97643423,6.01867292 C2.96430028,5.98322083 2.96083343,5.94281042 2.94969001,5.90463125 C2.91650736,5.81215833 2.87094312,5.72563542 2.8380081,5.63440208 C2.8231502,5.59275208 2.81869283,5.55457292 2.80383492,5.512675 C2.7810528,5.45069583 2.75207989,5.38549375 2.72880251,5.32277083 C2.72285935,5.30145 2.72063066,5.27938542 2.71196355,5.2583125 C2.68521933,5.19955625 2.66838037,5.12964375 2.64064562,5.0679125 C2.62628298,5.03617917 2.60399612,5.00320625 2.59136691,4.96899375 C2.56957532,4.90800625 2.57601374,4.83065625 2.55422215,4.77165208 C2.52326818,4.68438542 2.48587579,4.59141667 2.45442656,4.50538958 C2.43610182,4.45605417 2.43288261,4.40721458 2.41530075,4.35713542 C2.39499495,4.29937083 2.3727081,4.23565625 2.35190703,4.1783875 C2.33011544,4.11814375 2.33110597,4.05542083 2.31129543,3.99220208 C2.29693279,3.94485 2.27712225,3.89551458 2.26102619,3.85163333 C2.23106275,3.76808542 2.21942406,3.67908333 2.18797483,3.60074167 C2.18277457,3.58661042 2.17782193,3.5714875 2.17262167,3.55760417 C2.16444982,3.53628333 2.15033481,3.51545833 2.12854322,3.52140833 C2.10427531,3.52810208 2.10477057,3.5595875 2.10625637,3.57991667 C2.11071374,3.64164792 2.13349585,3.69866875 2.15132534,3.74825208 C2.17064061,3.80081042 2.18029825,3.85733542 2.19490852,3.90791042 C2.20308037,3.93964375 2.20159458,3.97583958 2.20976642,4.01054792 C2.22090985,4.0593875 2.23873934,4.10673958 2.25285434,4.15508333 C2.26399777,4.20342708 2.25805461,4.25003542 2.26870277,4.28771875 C2.300152,4.39233958 2.33506808,4.51034792 2.37047941,4.61100208 C2.38533731,4.66256875 2.38781363,4.72182083 2.40267154,4.76669375 C2.42223444,4.81974792 2.44154972,4.87305 2.46086499,4.92635208 C2.47720868,4.97097708 2.48166605,5.01386667 2.4999908,5.05576458 C2.51930608,5.09989375 2.54208819,5.14675 2.55793662,5.19658125 C2.57824243,5.26153542 2.576509,5.32549792 2.59854823,5.38598958 C2.63445483,5.48515625 2.68001906,5.5796125 2.7146875,5.67555625 C2.72583093,5.70976875 2.72929778,5.74646042 2.74143173,5.78166458 C2.7708999,5.86496458 2.79170097,5.95371875 2.82166441,6.03652292 C2.86475233,6.15453125 2.92022183,6.26956458 2.96231922,6.38633333 C3.00441662,6.50161458 3.00986451,6.63995208 3.0581527,6.74754792 C3.08291587,6.80085 3.13417564,6.83283125 3.15770065,6.88464583 C3.17330145,6.91786667 3.16884408,6.95629375 3.18048277,6.99496875 C3.19410252,7.03909792 3.21539884,7.08273125 3.23075201,7.12388542 C3.24040965,7.16107292 3.25056255,7.19776458 3.26121071,7.23445625 C3.27582098,7.2783375 3.30677495,7.32172292 3.32609022,7.36386875 C3.35753945,7.43254167 3.37338788,7.50468542 3.41276132,7.565425 C3.4422295,7.61128958 3.48036478,7.65492292 3.50463269,7.7067375 C3.53162455,7.76425417 3.54128219,7.82548958 3.56753115,7.88548542 C3.60665696,7.97250417 3.65345936,8.05679583 3.68639438,8.14778125 C3.71685308,8.23008958 3.72750124,8.31884375 3.76712232,8.39123542 C3.80624813,8.46313125 3.85577447,8.5278375 3.89539555,8.60047708 C3.91991109,8.65377917 3.94467426,8.70708125 3.96943743,8.76038333 C3.9902385,8.80401667 4.02886905,8.84219583 4.05313695,8.886325 C4.08359566,8.94061875 4.11355909,8.99863125 4.13807464,9.05366875 C4.15738991,9.09581458 4.16481886,9.13572917 4.18834387,9.17167708 C4.22425047,9.22820208 4.2502518,9.27357083 4.28665367,9.32984792 C4.31859816,9.380175 4.35475239,9.44339375 4.37753451,9.50314167 C4.39437347,9.54801458 4.41294585,9.59511875 4.43845191,9.63255417 C4.4656914,9.67122917 4.5023409,9.70469792 4.52611354,9.74684375 C4.54914329,9.78849375 4.58158305,9.92385625 4.56895383,9.93055 C4.53998092,9.9409625 4.45727192,9.86162917 4.43473744,9.83361458 C4.36936266,9.75452917 4.33692291,9.64817292 4.27749129,9.5631375 C4.21459284,9.47264792 4.17348597,9.42132917 4.12470252,9.31695625 C4.09597724,9.2567125 4.04620327,9.14837292 4.01103956,9.094575 C3.97810454,9.044 3.9340261,8.99912708 3.9075295,8.94210625 C3.8872237,8.89549792 3.87657554,8.83996458 3.856765,8.79385208 C3.82531577,8.72666667 3.76142679,8.68328125 3.7294823,8.61460833 C3.69258517,8.53750625 3.67624148,8.457925 3.63810619,8.38602917 C3.61978144,8.35132083 3.59402774,8.31190208 3.57768405,8.27595417 C3.5553972,8.22984167 3.5452443,8.18496875 3.5234527,8.13885625 C3.47986952,8.04563958 3.41350422,7.9655625 3.37016867,7.87234583 C3.3250997,7.77615417 3.29984126,7.67277292 3.25353413,7.57558958 C3.22926622,7.523775 3.18642593,7.47964583 3.16166276,7.42683958 C3.12823248,7.357175 3.11139352,7.28453542 3.0784585,7.21412708 C3.05864796,7.17148542 3.02917979,7.12983542 3.00936925,7.08843333 C2.98064397,7.02719792 2.97049107,6.9615 2.94250869,6.89803333 C2.8786197,6.75572917 2.81250203,6.60673125 2.74910831,6.46442708 C2.72533567,6.40988542 2.71914487,6.35212083 2.6943817,6.29708333 C2.66986616,6.24873958 2.64559825,6.20064375 2.62133034,6.1523 C2.56536558,6.02660625 2.5460503,5.87983958 2.4898379,5.75315417 C2.46136025,5.68919167 2.42545365,5.62820417 2.39994759,5.55928333 C2.36032651,5.45069583 2.34472571,5.33938125 2.30510464,5.2285625 C2.2446825,5.05923542 2.19589905,4.88321458 2.13522928,4.715375 C2.11739979,4.66430417 2.11492348,4.61521667 2.09659873,4.56315417 C2.07827398,4.51381875 2.05994923,4.46448333 2.04187212,4.41514792 C2.02949053,4.37572917 2.02156632,4.31846042 2.01042289,4.26664583 C1.96560155,4.12409375 1.91954205,3.98178958 1.87422544,3.83700625 C1.86456781,3.80304167 1.86209149,3.74131042 1.8504528,3.69668542 C1.84327148,3.67214167 1.82965173,3.64313542 1.82147989,3.620575 C1.80934593,3.58785 1.8098412,3.55983542 1.79919303,3.52562292 C1.76576275,3.42100208 1.7372851,3.29952292 1.70435008,3.19515 C1.69469245,3.16168125 1.69172086,3.114825 1.6810727,3.07714167 C1.63427031,2.92814375 1.61148819,2.745925 1.55205657,2.60684375 C1.54091315,2.58056458 1.52407419,2.55205417 1.49782523,2.55825208 C1.47132863,2.56494583 1.47702416,2.59543958 1.47999574,2.62047917 C1.48767233,2.68890417 1.51293076,2.74716458 1.52407419,2.80319375 C1.52877919,2.82848125 1.52828393,2.86368542 1.53076025,2.89393125 C1.53422709,2.91946667 1.53695104,2.95095208 1.54537052,2.97772708 C1.57285764,3.06598542 1.60480213,3.17085417 1.63080346,3.25886458 C1.63947057,3.30101042 1.63228925,3.36596458 1.64343268,3.41430833 C1.68156796,3.55611667 1.70979798,3.72445208 1.76105775,3.85163333 C1.80786014,3.96741042 1.81652725,4.10574792 1.84995753,4.23119375 C1.8606057,4.28499167 1.86407254,4.34027708 1.8707586,4.39432292 C1.87893045,4.44712917 1.90839862,4.48357292 1.92449468,4.52795 C1.93662864,4.56042708 1.93563811,4.58868958 1.9472768,4.62265417 C1.97525918,4.71289583 1.99556499,4.80189792 2.0285,4.89263542 C2.05078686,4.9548625 2.08446477,5.01411458 2.10675163,5.07535 C2.11640927,5.10311667 2.11269479,5.12790833 2.12086664,5.15889792 C2.13572454,5.22087708 2.14686797,5.2836 2.16494508,5.34483542 C2.2087759,5.46805 2.25136855,5.60217292 2.295447,5.72513958 C2.31996254,5.79356458 2.32788676,5.86050208 2.35190703,5.92669583 C2.4492263,6.19221458 2.54778372,6.45798125 2.64460773,6.72126875 C2.66045616,6.77977708 2.67655222,6.8380375 2.69240065,6.89605 C2.71369698,6.95629375 2.74910831,7.00637292 2.77387148,7.05992292 C2.80507308,7.12834792 2.81522598,7.20049167 2.84147494,7.27288333 C2.87242891,7.35791875 2.91204999,7.42361667 2.94448974,7.51261875 C2.95984291,7.55476458 2.97494844,7.60087708 2.99426372,7.64178333 C3.00936925,7.67277292 3.03586585,7.70202708 3.05097138,7.73326458 C3.07598218,7.78582292 3.08143008,7.85176875 3.10545036,7.904575 C3.13120406,7.95713333 3.17577777,8.00027083 3.20623647,8.04911042 C3.23421885,8.094975 3.23719043,8.15348333 3.26022018,8.20529792 C3.29662205,8.28636667 3.34391971,8.35975 3.37883578,8.44503333 C3.39319842,8.48098125 3.40013211,8.5129625 3.41598054,8.54742292 C3.43430528,8.58708958 3.46402109,8.62477292 3.48234584,8.6646875 C3.4828411,8.6646875 3.48383163,8.66567917 3.48482216,8.66964583 C3.48705084,8.6751 3.48952716,8.6825375 3.49101295,8.69121458 C3.49547032,8.70807292 3.50067059,8.72865 3.50611848,8.743525 C3.51429033,8.76608542 3.5397964,8.80847917 3.55044456,8.82310625 C3.55688299,8.83153542 3.57520773,8.8521125 3.5905609,8.87120208 C3.59749459,8.87839167 3.60418064,8.88657292 3.61037144,8.89624167 C3.64528751,8.95103125 3.64924962,9.029125 3.67772727,9.0901125 C3.70620491,9.1496125 3.75696942,9.19646875 3.78544706,9.25770417 C3.80822918,9.30456042 3.82036314,9.4203375 3.79188549,9.4248 C3.6717841,9.42455208 3.66361226,9.25696042 3.62399118,9.16895 C3.59204669,9.10077292 3.54276798,9.044 3.50686138,8.97855 C3.49968006,8.96541042 3.48804137,8.93962708 3.48036478,8.91235625 C3.4726882,8.88954792 3.46303056,8.86475625 3.45386819,8.84566667 C3.43826739,8.81294167 3.43826739,8.81839583 3.42761923,8.7955875 C3.4164758,8.77302708 3.38354078,8.73063333 3.37239735,8.7108 C3.37214972,8.70906458 3.37165446,8.70807292 3.3711592,8.70658542 C3.32559496,8.63295417 3.29464099,8.52758958 3.26220124,8.47825417 C3.24387649,8.4504875 3.22010385,8.42247292 3.20227436,8.39421042 C3.17181566,8.34735417 3.15720539,8.29033333 3.13268985,8.23827083 C3.10990773,8.19067083 3.07400113,8.14331875 3.05196191,8.09323958 C3.02521768,8.03448333 3.02373189,7.95986042 2.99574951,7.89986458 C2.9816345,7.86763542 2.95464264,7.83491042 2.93953711,7.80441667 C2.90585919,7.73599167 2.88654392,7.66260833 2.85261837,7.595175 C2.83701757,7.56319375 2.80853993,7.5327 2.7926915,7.499975 C2.76594727,7.44295417 2.75207989,7.38171875 2.72236409,7.32866458 C2.659218,7.21611042 2.59186217,7.09041667 2.53911661,6.97092083 C2.50865791,6.90076042 2.49850501,6.82985625 2.46804631,6.76167917 C2.44154972,6.70193125 2.40514785,6.64342292 2.37865126,6.58665 C2.36082177,6.54847083 2.35586914,6.5107875 2.34051597,6.46888958 C2.31624806,6.40244792 2.28578936,6.33352708 2.26102619,6.26733333 C2.24666355,6.22146875 2.23502486,6.1210625 2.22090985,6.08114792 C2.2025851,6.03106875 2.17633614,5.97702292 2.15479218,5.92867917 C2.12235243,5.8548 2.11170426,5.77794583 2.07876924,5.7045625 C2.05400607,5.6480375 2.02602369,5.58804167 2.00472736,5.52978125 C1.98689788,5.48019792 1.98194524,5.43482917 1.96163944,5.38896458 C1.94678154,5.35425625 1.92598047,5.31434167 1.91285599,5.27839375 C1.89725519,5.23525625 1.8863594,5.1646 1.87273965,5.10757917 C1.85144332,5.0441125 1.8246991,4.98362083 1.80538382,4.92114583 C1.7942404,4.87528125 1.79250697,4.76768542 1.78086828,4.73892708 C1.71549351,4.54530417 1.65408084,4.33953333 1.59316344,4.14615833 C1.56518106,4.05666042 1.55205657,3.96741042 1.52679814,3.87989583 C1.51813103,3.84543542 1.5171405,3.80105833 1.50797813,3.76585417 C1.49064391,3.71007292 1.46687126,3.65255625 1.44904178,3.59503958 C1.43938414,3.5566125 1.43344098,3.51645 1.4257644,3.47703125 C1.41660202,3.43711667 1.39530569,3.3959625 1.38044779,3.35555208 C1.3430554,3.23927917 1.3227496,3.11556875 1.28832879,3.00227083 C1.27644247,2.95516667 1.27693773,2.89368333 1.26430851,2.85029792 C1.22023007,2.70972917 1.2095819,2.54610417 1.16797977,2.39834583 C1.15832214,2.35545625 1.15163608,2.31231875 1.14197844,2.27314792 C1.06942235,1.99721667 1.03747786,1.68756875 0.95724518,1.42205 C0.941644382,1.371475 0.96145492,1.30627292 0.947587543,1.25148333 C0.931491481,1.18975208 0.914652524,1.13521042 0.896080145,1.08017292 C0.888898825,1.05215833 0.888403562,1.02984583 0.882212769,1.00431042 C0.868593024,0.9594375 0.848782487,0.924233333 0.824019314,0.929191667 C0.795046403,0.938860417 0.801484828,0.9653875 0.802475355,1.00381458 C0.80470404,1.06480208 0.810647202,1.11636875 0.823276419,1.16669583 C0.833924583,1.20834583 0.826990895,1.24330208 0.838629586,1.2807375 C0.864383285,1.3670125 0.872059868,1.48799583 0.886422508,1.56559375 C0.891870406,1.59807083 0.887908298,1.64145625 0.894346723,1.6793875 C0.902023307,1.71855833 0.932482008,1.770125 0.940653855,1.81251875 C0.949320965,1.87003542 0.948330438,1.94465833 0.957988075,2.00614167 C0.969131503,2.05845208 0.984237038,2.10828333 0.997856783,2.15786667 C1.00949547,2.2000125 1.00058073,2.24067083 1.01320995,2.27959375 C1.02633443,2.3205 1.04763076,2.35991875 1.05580261,2.40503958 C1.06248866,2.45363125 1.05530734,2.52527917 1.06496498,2.56792083 C1.12736817,2.81063125 1.14569292,3.0984625 1.21676322,3.33125625 C1.22567797,3.36447708 1.22691612,3.400425 1.2353356,3.43414167 C1.29427195,3.63792917 1.33934093,3.85584792 1.40075359,4.05715625 C1.40793491,4.0891375 1.40694439,4.12161458 1.41511623,4.156075 C1.43492677,4.227475 1.45325152,4.30383333 1.46835705,4.376225 C1.47553837,4.40820625 1.47504311,4.43919583 1.48346259,4.47117708 C1.50475892,4.5458 1.53125551,4.61819167 1.55502815,4.691575 C1.56419053,4.727275 1.567905,4.76272708 1.57434343,4.79793125 C1.58003896,4.82619375 1.59563976,4.85842292 1.6038116,4.88544583 C1.61644082,4.92759167 1.61247871,4.96825 1.62659372,5.00717292 C1.63526083,5.02973333 1.65309032,5.05502083 1.65952874,5.07931667 C1.66869111,5.12245417 1.67438664,5.1660875 1.6865206,5.20848125 C1.70335956,5.2598 1.73109431,5.30987917 1.75239064,5.36070208 C1.7677438,5.40284792 1.76724854,5.4457375 1.7833446,5.48614792 C1.81231751,5.55779583 1.84327148,5.64233542 1.8707586,5.71795 C1.89403598,5.78067292 1.89675993,5.84413958 1.91904678,5.90810208 C1.93415232,5.94975208 1.95396286,5.99338542 1.96906839,6.03354792 C1.9777355,6.06652083 1.98343103,6.09850208 1.99506972,6.13246667 C2.00522262,6.16296042 2.03815764,6.21105625 2.05994923,6.25072292 C2.07777872,6.29460417 2.06960687,6.35484792 2.08396951,6.4022 C2.09857978,6.4512875 2.12557164,6.49045833 2.14216296,6.53533125 C2.15751613,6.5807 2.15702087,6.62904375 2.16915482,6.6759 C2.1822793,6.71135208 2.20679484,6.74630833 2.22190038,6.77903333 C2.23601539,6.81820417 2.24988276,6.857375 2.26449303,6.89654583 C2.27563646,6.92183333 2.29693279,6.94786458 2.30857148,6.97290417 C2.33011544,7.01827292 2.34720203,7.0671125 2.3665173,7.11347292 C2.3930139,7.17991458 2.39549022,7.26172708 2.41579602,7.3378375 C2.42124391,7.35915833 2.42074865,7.41146875 2.40712891,7.41741875 C2.3766702,7.42287292 2.3422494,7.37477708 2.32144833,7.34453125 C2.28578936,7.29420417 2.25136855,7.23792708 2.22487196,7.17693958 C2.21620485,7.1533875 2.21026169,7.13132292 2.20308037,7.10851458 C2.18277457,7.05793958 2.16766903,7.00067083 2.14439165,6.94885625 C2.13101954,6.91786667 2.11071374,6.88340625 2.09957031,6.8499375 C2.08297898,6.80134583 2.0909032,6.744325 2.07158792,6.70193125 C2.05549186,6.66647917 2.02701421,6.63846458 2.01091815,6.60276458 C1.99903183,6.57053542 1.99358393,6.53632292 1.97946892,6.50434167 C1.9621347,6.46517083 1.93836206,6.43021458 1.9168181,6.39352292 C1.90072204,6.35782292 1.90270309,6.32162708 1.89007387,6.27923333 C1.8762065,6.22965 1.86110096,6.1805625 1.83980463,6.13494583 C1.81850831,6.08908125 1.79151645,6.04172917 1.77121065,5.99412917 C1.76155301,5.96785 1.75660038,5.94082708 1.74892379,5.9143 C1.73629457,5.8786 1.71796983,5.83967708 1.70335956,5.80397708 C1.69518771,5.77769792 1.68899692,5.74943542 1.67785349,5.72439583 C1.66027164,5.685225 1.63996583,5.64159167 1.6241174,5.59845417 C1.61198345,5.56325 1.6100024,5.52631042 1.59786844,5.49209792 C1.57632448,5.43111042 1.55502815,5.36218958 1.53472235,5.30219375 C1.52110261,5.25558542 1.51614997,5.20848125 1.50327312,5.16137708 C1.48569127,5.10683542 1.46117573,5.05278958 1.44086993,4.99775208 C1.4257644,4.95362292 1.42229755,4.90627083 1.4094207,4.86139792 C1.38861964,4.80264167 1.35915146,4.7481 1.33934093,4.68612083 C1.32770223,4.63777708 1.32572118,4.58868958 1.31507302,4.54183333 C1.28065221,4.42754375 1.24449798,4.30135417 1.20809611,4.18458542 C1.16698925,4.05393333 1.16377004,3.90642292 1.12538712,3.77453125 C1.09889052,3.68032292 1.06546024,3.5893375 1.03648733,3.49686458 C1.02583917,3.44876875 1.02435338,3.40364792 1.01221942,3.35629583 C0.986713355,3.25241875 0.947835175,3.11532083 0.913661997,3.00673333 C0.895832514,2.94921667 0.90103278,2.89070833 0.884689086,2.82848125 C0.867602497,2.76699792 0.86661197,2.69287083 0.846801433,2.62717292 C0.834172215,2.58626667 0.818819048,2.5570125 0.809161411,2.50544583 C0.799008511,2.45363125 0.799999038,2.39239583 0.792322454,2.35347292 C0.784398239,2.31504583 0.717290043,2.08448333 0.709613459,2.04184167 C0.701689244,1.9992 0.702184508,1.92160208 0.696984242,1.89408333 C0.693517398,1.87499375 0.658601325,1.77557917 0.654391586,1.75004375 C0.649438951,1.72376458 0.649438951,1.6942625 0.639286051,1.64343958 C0.628637887,1.59236875 0.599169712,1.478575 0.594464709,1.44585 C0.589016811,1.41287708 0.589016811,1.3461875 0.582330755,1.31296667 C0.575644698,1.27999375 0.553357844,1.20413125 0.538252309,1.1498375 C0.520918088,1.0843875 0.534785464,1.01397917 0.516460717,0.952247917 C0.503088604,0.90663125 0.486992542,0.8612625 0.470648849,0.817877083 C0.460000685,0.77945 0.446876204,0.72813125 0.444399886,0.704827083 C0.441675937,0.670366667 0.43919962,0.59723125 0.43771383,0.570952083 C0.436723303,0.533020833 0.420874873,0.471041667 0.416912765,0.416995833 C0.412455394,0.343116667 0.396606964,0.26403125 0.384968273,0.219158333 C0.378282217,0.192135417 0.380510902,0.15990625 0.374815373,0.135610417 C0.356490625,0.0622270833 0.338661141,-0.0044625 0.301764015,0.000247916666 C0.275267421,0.00495833333 0.265609784,0.0257833333 0.277000843,0.0741270833 C0.290125324,0.130404167 0.296068486,0.174533333 0.309935862,0.230066667 C0.317364814,0.260064583 0.318602972,0.334191667 0.319593499,0.358735417 C0.321574553,0.39865 0.323555607,0.407822917 0.328508241,0.445754167 C0.330736926,0.461125 0.337175351,0.497816667 0.341880354,0.513683333 C0.348318779,0.540210417 0.356490625,0.57640625 0.355500099,0.595495833 C0.354509572,0.62103125 0.354014308,0.648302083 0.354014308,0.68499375 C0.354014308,0.703835417 0.355500099,0.71028125 0.362681418,0.742758333 C0.369862738,0.775235417 0.373824846,0.781433333 0.376301163,0.808952083 C0.377786953,0.8315125 0.374815373,0.853825 0.376796427,0.874154167 C0.37729169,0.899441667 0.380015639,0.924233333 0.387444591,0.947289583 C0.402302494,0.995385417 0.433751722,1.06182708 0.420874873,1.13322708 C0.406759865,1.20884167 0.430037247,1.28048958 0.446876204,1.3461875 C0.45504805,1.38833333 0.44638094,1.43494167 0.454552787,1.47510417 C0.470153585,1.53138125 0.483525698,1.59137708 0.499126497,1.64988542 C0.511260451,1.69773333 0.502593341,1.74087083 0.514974927,1.7864875 C0.533052042,1.85045 0.576387594,1.93647708 0.582330755,1.96523542 C0.587035758,1.99399375 0.586292862,2.07109583 0.594959973,2.12092708 C0.603627083,2.17001458 0.615265774,2.22604375 0.618484986,2.25728125 C0.622447094,2.28851875 0.617246828,2.30265 0.62046604,2.32570625 C0.624428147,2.3487625 0.655877376,2.460325 0.660582379,2.48908333 C0.666030277,2.51784167 0.664544486,2.53271667 0.670735279,2.5629625 C0.676678441,2.59320833 0.701689244,2.71245625 0.707137142,2.75113125 C0.713327935,2.78955833 0.711346881,2.81236667 0.71828057,2.85054583 C0.729919261,2.91004583 0.753444274,2.960125 0.766073492,3.01714583 C0.774245339,3.05904375 0.77152139,3.08532292 0.776721656,3.11953542 C0.78885561,3.1728375 0.806685094,3.22093333 0.816342731,3.27150833 C0.824019314,3.31018333 0.824514578,3.34985 0.832438793,3.38951667 C0.850268277,3.47529583 0.862897495,3.56231458 0.885927245,3.64759792 C0.900537516,3.697925 0.930005691,3.7440375 0.944615963,3.79213333 C0.95724518,3.83700625 0.960464393,3.88510208 0.972103084,3.92898333 C0.983741774,3.96741042 1.01073363,4.00211875 1.02088653,4.04277708 C1.02732496,4.07822917 1.02633443,4.11368125 1.03202996,4.14913333 C1.04119233,4.18929583 1.05926945,4.22970625 1.06694603,4.27086042 C1.07313683,4.30234583 1.07041288,4.3330875 1.07808946,4.36556458 C1.08972815,4.4015125 1.10706237,4.43349375 1.11572948,4.46820208 C1.12439659,4.51233125 1.12390133,4.55670833 1.13504476,4.60108542 C1.14816924,4.65215625 1.16946557,4.7019875 1.18580926,4.74933958 C1.20041953,4.79371667 1.19274295,4.8418125 1.20611506,4.88990833 C1.23484034,4.99378542 1.26901352,5.10857083 1.30392959,5.20525833 C1.31903512,5.2583125 1.31655881,5.3118625 1.33587408,5.36888333 C1.34949383,5.40681458 1.36633278,5.43235 1.38094305,5.46383542 C1.39332464,5.49804792 1.38218121,5.53523542 1.39233411,5.57391042 C1.40892544,5.63638542 1.41907834,5.72117292 1.44136519,5.78290417 C1.46588074,5.85256875 1.50649234,5.90958958 1.53125551,5.97702292 C1.55552342,6.04842292 1.55676158,6.119575 1.58053422,6.19345417 C1.60331634,6.25617708 1.63526083,6.3144375 1.65903348,6.37220208 C1.67933928,6.423025 1.67191033,6.4899625 1.6912256,6.54326458 C1.71252193,6.60202083 1.75412406,6.64689375 1.77641091,6.70688958 C1.80166935,6.77581042 1.81850831,6.84324375 1.83980463,6.91216458 C1.84649069,6.94141875 1.85243385,6.970425 1.85812938,6.99967917 C1.88338782,7.08868125 1.93118074,7.16206458 1.96163944,7.2471 C1.97377339,7.28701458 1.97724024,7.32023542 1.98838367,7.357175 C2.01017526,7.41791458 2.0346908,7.48088542 2.06267318,7.53988958 C2.08694109,7.59145625 2.12037137,7.64302292 2.14414402,7.69582917 C2.16568798,7.74417292 2.17014535,7.79375625 2.19094641,7.84433125 C2.21026169,7.89242708 2.23403433,7.94548125 2.25285434,7.99630417 C2.26399777,8.02729375 2.26548356,8.05456458 2.27860804,8.08357083 C2.33853492,8.21868542 2.4125768,8.35503958 2.47473237,8.48717917 C2.50816265,8.55981875 2.52376345,8.63816042 2.55793662,8.71203958 C2.58517611,8.76906042 2.61811113,8.82484167 2.6436172,8.88682083 C2.65971326,8.92599167 2.66441826,8.963675 2.68125722,9.0008625 C2.71518277,9.07325417 2.76223279,9.14638958 2.79492018,9.2180375 C2.80383492,9.23613542 2.82884573,9.31298958 2.81869283,9.34249167 C2.8177023,9.34645833 2.81621651,9.35216042 2.81151151,9.35439167 C2.78872939,9.36058958 2.74366041,9.3221625 2.71864961,9.296875 C2.63247377,9.21258333 2.61910166,9.052925 2.55843189,8.94285 C2.54109767,8.91186042 2.52079187,8.87715208 2.5054387,8.84417917 C2.49701922,8.82112292 2.49181895,8.79881042 2.48067553,8.77550625 C2.44353077,8.70485 2.39697601,8.64063958 2.36354572,8.56626458 C2.33952545,8.51197083 2.33655387,8.45023958 2.31228596,8.39867292 C2.2142238,8.18695208 2.1010561,7.98266875 2.00670841,7.7707 C1.96312523,7.67376458 1.95396286,7.5639375 1.91632284,7.45906875 C1.89354072,7.39684167 1.85614833,7.345275 1.83064226,7.28751042 C1.80934593,7.24189375 1.8043933,7.19355 1.7840875,7.14694167 C1.75660038,7.08645 1.71796983,7.02967708 1.69419718,6.96422708 C1.67983454,6.92183333 1.67389138,6.8782 1.65804295,6.83605417 C1.63872768,6.78969375 1.60727845,6.75126667 1.58697265,6.70589792 C1.55725684,6.63896042 1.55255184,6.57301458 1.53076025,6.49665625 C1.51862629,6.45550208 1.50178733,6.41236458 1.48816759,6.37492917 C1.47751943,6.33922917 1.47330969,6.30303333 1.461671,6.26857292 C1.43245045,6.18899167 1.38465753,6.11858333 1.35469409,6.03652292 C1.33537882,5.98074167 1.33884566,5.911325 1.31507302,5.857775 C1.29575774,5.81364583 1.26034641,5.77794583 1.24251692,5.73208125 C1.22320165,5.68423333 1.24103113,5.62597292 1.22567797,5.56895208 C1.21106769,5.51465833 1.18878084,5.4635875 1.17095136,5.41326042 C1.16079845,5.38078333 1.15782687,5.34905 1.1486645,5.31806042 C1.12489186,5.25186667 1.10136684,5.18641667 1.07709893,5.12022292 C1.06546024,5.08675417 1.06496498,5.05576458 1.05134523,5.02527083 C1.03351575,4.98634792 1.00454284,4.94965625 0.990427831,4.9072625 C0.974084137,4.84305208 0.968636239,4.77611458 0.953283073,4.7138875 C0.927529374,4.63009167 0.896575409,4.56191458 0.872059868,4.48109375 C0.866116707,4.45555833 0.866116707,4.43051875 0.859430651,4.40200833 C0.839620113,4.33036042 0.829467212,4.24929167 0.809656675,4.17789167 C0.801980091,4.14293542 0.803713513,4.11318542 0.795046403,4.07922083 C0.775235865,4.01129167 0.751958484,3.94237083 0.731157419,3.87741667 C0.720509255,3.83601458 0.71828057,3.79287708 0.708127669,3.75221875 C0.674697387,3.64611042 0.644733949,3.52116042 0.612789457,3.41802708 C0.605112873,3.38753333 0.607341559,3.36100625 0.598179185,3.32679375 C0.573168381,3.24597292 0.539738099,3.14779792 0.521413352,3.06425 C0.512250978,3.01590625 0.511755714,2.96929792 0.501602814,2.92417708 C0.488973596,2.86715625 0.469163058,2.81311042 0.457524368,2.75683333 C0.45356226,2.73055417 0.457524368,2.71072083 0.45504805,2.68865625 C0.450343048,2.65171667 0.446876204,2.615025 0.440190147,2.57858125 C0.403788284,2.43181458 0.346337725,2.25108333 0.313897969,2.10357292 C0.304735596,2.05051875 0.302754542,1.99721667 0.297059012,1.9441625 C0.291115851,1.90771875 0.288639534,1.86433333 0.27799137,1.82640208 C0.266600311,1.787975 0.249018459,1.74806042 0.243322929,1.70839375 C0.235151082,1.64467917 0.234655819,1.58319583 0.225245813,1.52220833 C0.224998182,1.51774583 0.223512391,1.5127875 0.222521864,1.50807708 C0.209397383,1.43271042 0.171757362,1.27875417 0.163090251,1.21851042 C0.153184983,1.14487917 0.144022609,1.07075208 0.135355499,0.999104167 C0.133869708,0.952247917 0.125697862,0.903160417 0.119011805,0.85308125 C0.108858905,0.77721875 0.0910294206,0.710529167 0.0821146787,0.632435417 C0.0764191491,0.579877083 0.0793907297,0.533020833 0.072952305,0.489139583 C0.0692378292,0.460629167 0.0677520388,0.412533333 0.0333312296,0.412533333 C-0.00158484301,0.412533333 0.00287252796,0.453191667 0.000891474196,0.485916667 C-0.0038135285,0.565002083 0.0110443748,0.667639583 0.0169875361,0.716479167 C0.0281309635,0.80696875 0.019711485,0.894979167 0.0298643855,0.987204167 C0.0353122834,1.038275 0.051655977,1.09008958 0.0575991383,1.13917708 C0.0697330926,1.22594792 0.0784002028,1.31445417 0.0895436303,1.39750625 C0.0900388937,1.39899375 0.0900388937,1.40023333 0.0905341572,1.40172083 C0.0932581061,1.4413875 0.0982107405,1.47981458 0.104896797,1.51650625 C0.10539206,1.520225 0.106382587,1.52394375 0.106877851,1.52741458 C0.107373114,1.52939792 0.107868378,1.53138125 0.108363641,1.53311667 C0.108858905,1.5351 0.108858905,1.53708333 0.109354168,1.53906667 L0.109849431,1.53981042 C0.113068644,1.55666875 0.117030751,1.57352708 0.121983386,1.5901375 C0.131641023,1.62360625 0.127183652,1.65062917 0.136346026,1.68508958 C0.163337883,1.78549583 0.157642354,1.89482708 0.185129475,1.99225833 C0.225245813,2.13828125 0.246542141,2.299675 0.287649007,2.44445833 C0.299287698,2.48660417 0.28814427,2.52825417 0.299782961,2.57362292 C0.311421652,2.61998333 0.323555607,2.66436042 0.334699034,2.710225 C0.345842461,2.76551042 0.337175351,2.82104375 0.352033254,2.87707292 C0.365157736,2.92764792 0.380510902,2.98045417 0.395121174,3.02954167 C0.410226709,3.08854583 0.411464867,3.15077292 0.428056193,3.21523125 C0.446876204,3.2799375 0.468667795,3.35084167 0.480306486,3.4167875 C0.493678599,3.49141042 0.50110755,3.57768542 0.514974927,3.65602708 C0.527604145,3.721725 0.563510744,3.80081042 0.579359174,3.87245833 C0.583321282,3.89675417 0.581340228,3.92030625 0.585797599,3.94485 C0.594959973,3.99641667 0.610313139,4.0474875 0.621456567,4.09682292 C0.626904465,4.11963125 0.624923411,4.1397125 0.631609467,4.165 C0.656372639,4.25970417 0.685345551,4.37870417 0.714813726,4.47216875 C0.721995045,4.49844792 0.72546189,4.52547083 0.731652683,4.55224583 C0.750720325,4.61918333 0.771026126,4.66851875 0.778207446,4.70471458 C0.784398239,4.7362 0.788360347,4.77313958 0.797027457,4.80784792 C0.810647202,4.85916667 0.826495632,4.90329583 0.836153269,4.94792083 C0.844077484,4.98287708 0.84927775,5.01461042 0.858935387,5.04981458 C0.870574078,5.09220833 0.887908298,5.13137917 0.904994887,5.1720375 C0.933472535,5.25756875 0.936939379,5.3475625 0.966902817,5.43036667 C0.984732301,5.47945417 1.00850495,5.52680625 1.02484864,5.57936458 C1.03797312,5.62746042 1.04119233,5.685225 1.05679313,5.73827917 C1.08428025,5.82033958 1.11572948,5.91380417 1.14569292,5.99660833 C1.18060899,6.09403958 1.20240058,6.2013875 1.2353356,6.29336458 C1.24870772,6.33055208 1.24647903,6.3665 1.25836535,6.40740625 C1.28610011,6.49938333 1.3180446,6.60276458 1.34751277,6.69622917 C1.36385647,6.74606042 1.36435173,6.7934125 1.38317174,6.84076458 C1.41462097,6.91885833 1.46068047,6.98480417 1.48965338,7.06512917 C1.51441655,7.13429792 1.51961682,7.20272292 1.54586578,7.26618958 C1.58003896,7.35196875 1.6201553,7.4389875 1.65309032,7.52898125 C1.67587243,7.5907125 1.68255849,7.65293958 1.70880745,7.71144792 C1.73109431,7.76202292 1.76006722,7.81334167 1.78235407,7.86366875 C1.79770724,7.90804583 1.81330804,7.952175 1.82816594,7.9968 C1.84079516,8.03076458 1.87645413,8.08828125 1.9012173,8.13389792 C1.92870442,8.19488542 1.93365706,8.261575 1.9574297,8.32776875 C1.99358393,8.428175 2.04236738,8.53056458 2.08496004,8.62427708 C2.10155136,8.66072083 2.10477057,8.69542917 2.11938085,8.7346 C2.14414402,8.80178542 2.18797483,8.85186458 2.21620485,8.91359583 C2.24270144,8.9726 2.24988276,9.035075 2.27563646,9.09234375 C2.31377175,9.17613958 2.34274466,9.21927708 2.3422494,9.33926875 C2.34125887,9.35017708 2.33853492,9.35835833 2.32640097,9.362325 C2.30460937,9.37125 2.27885567,9.33356667 2.26449303,9.31993125 C2.20060405,9.25745625 2.19094641,9.19696458 2.15132534,9.11019375 C2.08991267,8.97855 2.01190868,8.85459167 1.9519818,8.72592292 C1.92053257,8.6587375 1.90790336,8.58634583 1.87645413,8.51668125 C1.85812938,8.47478333 1.83064226,8.43214167 1.81182225,8.3909875 C1.7833446,8.33074375 1.76873433,8.26802083 1.73778036,8.2124875 C1.69320665,8.13315417 1.65804295,8.03919375 1.62263161,7.94944792 C1.60851661,7.91597917 1.60727845,7.88325417 1.59266818,7.851025 C1.57681975,7.81656458 1.55156131,7.78483125 1.53596051,7.75185833 C1.51342603,7.69657292 1.49881575,7.6293875 1.4765289,7.57311042 C1.42824071,7.46650625 1.3735141,7.35444792 1.33240724,7.24189375 C1.29476722,7.13900833 1.27644247,7.03959375 1.23855482,6.93422917 C1.22369691,6.89133958 1.20289585,6.8439875 1.18828558,6.80085 C1.17516109,6.76192708 1.17466583,6.7279625 1.16178898,6.69102292 C1.12736817,6.59607083 1.0822992,6.49640833 1.04218286,6.40567083 C1.02237232,6.36079792 1.01717206,6.31642083 0.999590205,6.26882083 C0.97878914,6.21105625 0.953778336,6.14734167 0.932977272,6.09007292 C0.904994887,6.01470625 0.90400436,5.92644792 0.875031449,5.84686667 C0.81337115,5.67654792 0.734624263,5.49854375 0.68237397,5.31830833 C0.672716333,5.27740208 0.67519265,5.2345125 0.663058696,5.1928625 C0.634581048,5.10336458 0.605112873,5.00345417 0.57737812,4.90775833 C0.546424155,4.80140208 0.549890999,4.68884792 0.516955981,4.58497083 C0.474858588,4.4506 0.427560929,4.31027917 0.385463537,4.17813958 C0.372834319,4.13748125 0.378282217,4.09632708 0.365652999,4.05318958 C0.337175351,3.94980833 0.302259279,3.82932083 0.267838469,3.73387292 C0.250504249,3.68627292 0.250504249,3.6339625 0.232674765,3.5893375 C0.211378437,3.53529167 0.156156563,3.555125 0.161109198,3.61586458 C0.164823673,3.67139792 0.183891316,3.74304583 0.189586846,3.77155625 C0.195777639,3.80998333 0.195777639,3.84841042 0.20469238,3.88882083 C0.221036074,3.96096458 0.244808719,4.0207125 0.264619257,4.0861625 C0.285915585,4.15409167 0.285915585,4.21780625 0.305726123,4.28771875 C0.315879023,4.32217917 0.329251136,4.36159792 0.3398993,4.394075 C0.361690892,4.4639875 0.361690892,4.53910625 0.38447301,4.60282083 C0.402797757,4.65166042 0.416417502,4.71264792 0.432265932,4.76619792 C0.442418833,4.80189792 0.440190147,4.83065625 0.451333575,4.86536458 C0.470648849,4.92858333 0.49095465,4.99205 0.510765188,5.05526875 C0.520422825,5.09196042 0.516460717,5.12394167 0.525127827,5.15790625 C0.538747572,5.2077375 0.550386263,5.2598 0.564996534,5.3059125 C0.57737812,5.35103333 0.576387594,5.41425208 0.592483655,5.46135625 C0.619970776,5.54887083 0.651915268,5.64159167 0.681383443,5.7239 C0.714318462,5.81562917 0.71828057,5.91182083 0.75146322,6.0050375 C0.810647202,6.16965417 0.865621444,6.3590625 0.925300688,6.52591042 C0.940653855,6.5688 0.935453589,6.61243333 0.948825702,6.65904167 C0.968636239,6.73044167 0.983741774,6.80085 1.00900021,6.87175417 C1.0213818,6.90571875 1.04317339,6.93968333 1.05778366,6.97067292 C1.07660367,7.01108333 1.0815563,7.05471667 1.10037631,7.09611875 C1.11473895,7.1295875 1.13653055,7.16355208 1.14915976,7.19900417 C1.16797977,7.25181042 1.16129372,7.31651667 1.18159952,7.3661 C1.19744795,7.4062625 1.22023007,7.44989583 1.23484034,7.49179375 C1.2516793,7.53741042 1.25118403,7.58600208 1.27000404,7.62839583 C1.28659537,7.66632708 1.31358723,7.702275 1.33092145,7.73896667 C1.34701751,7.77417083 1.35073198,7.81036667 1.36484699,7.84904167 C1.37945726,7.88920417 1.40149649,7.93011042 1.41808781,7.96729792 C1.43690782,8.00919583 1.43789835,8.05729167 1.45721362,8.10018125 C1.47380495,8.13761667 1.49931102,8.17406042 1.51441655,8.21447083 C1.52828393,8.25686458 1.53026498,8.303225 1.54487525,8.34735417 C1.57038132,8.41156458 1.61049766,8.46858542 1.63823241,8.52982083 C1.65903348,8.57618125 1.6607669,8.6275 1.68156796,8.67460417 C1.70484535,8.72865 1.73827563,8.78145625 1.76279117,8.8342625 C1.79523092,8.90467083 1.81949883,8.98028542 1.84946227,9.04747083 C1.90319835,9.16721458 1.92102784,9.29885833 1.97624971,9.41612292 C2.01686131,9.5036375 2.07109266,9.58619375 2.10972321,9.67147708 C2.1315148,9.71907708 2.13820086,9.7699 2.16048771,9.81576458 C2.18525088,9.86782708 2.22759591,9.91170833 2.25235908,9.96426667 C2.27068383,10.0163292 2.28578936,10.0696312 2.30758095,10.1202062 C2.33803966,10.1871437 2.38187047,10.2461479 2.41208154,10.3106062 C2.42941576,10.3475458 2.43659708,10.3844854 2.4539313,10.4209292 C2.48736158,10.4923292 2.54159293,10.552325 2.57452795,10.6232292 C2.59186217,10.6698375 2.6084535,10.7166937 2.62479719,10.7637979 C2.66045616,10.8394125 2.71716382,10.9036229 2.75430858,10.980725 C2.78055754,11.03725 2.79838703,11.0969979 2.83181731,11.1483167 C2.88357234,11.2291375 2.91700262,11.2824396 2.9667766,11.3637562 C2.99971161,11.4168104 3.04205664,11.4946562 3.06929613,11.5521729 C3.09529746,11.6086979 3.13888064,11.65605 3.16562487,11.7120792 C3.1916262,11.7668687 3.22555174,11.8261208 3.25452466,11.8781833 C3.28795494,11.9371875 3.32212811,11.9808208 3.35852998,12.0361062 C3.41845685,12.1265958 3.45609688,12.2232833 3.51478559,12.3147646 C3.55589246,12.3784792 3.60269485,12.4429375 3.64776383,12.5044208 C3.76712232,12.6690375 3.93848347,12.9630667 4.01227772,13.0622333 C4.07294749,13.1423104 4.12321673,13.2372625 4.1791815,13.3213062 C4.22226942,13.3862604 4.27650077,13.4504708 4.3228079,13.5112104 C4.36168608,13.5612896 4.39264004,13.6153354 4.43028007,13.6673979 L4.45974824,13.7070646 C5.99209333,15.6571771 7.56678344,16.9483271 8.90028026,17.7949625 L8.899785,17.7952104 C9.60206856,18.2350146 9.98069746,18.3636833 9.98069746,18.3636833 C10.0705878,18.4006229 10.0091751,18.4653292 9.9638585,18.4935917 L2.05747292,23.5555542 C2.03221448,23.5719167 1.97129708,23.6170375 1.99556499,23.6671167 C2.014385,23.7055437 2.09511294,23.6837271 2.11640927,23.6765375 C8.46147685,21.4465271 13.0659411,19.6131833 15.8807708,18.2759208 C18.7344788,16.9203125 19.6935564,16.1445812 19.5890559,15.7588229" id="Brush-wing"></path>
            </g>
        </g>
    </g>
</svg>