<svg width="119" height="19" viewBox="0 0 119 19" version="1.1" xmlns="http://www.w3.org/2000/svg" xmlns:xlink="http://www.w3.org/1999/xlink">
<g id="Canvas" fill="none">
<g id="Delta Logo">
<path id="Fill 23" fill-rule="evenodd" clip-rule="evenodd" d="M 15.3193 14.9921L 11.9221 14.9921L 10.4985 11.2523L 4.59081 11.2523L 3.17354 14.9921L 0 14.9921L 6.0736 0.000732143L 6.0736 0L 9.34827 0L 15.3193 14.9921ZM 9.57821 8.75494L 7.54917 3.45642L 5.51514 8.75494L 9.57821 8.75494Z" transform="translate(103.008 1.74512)" fill="#FEFEFE"/>
<path id="Fill 25" fill-rule="evenodd" clip-rule="evenodd" d="M 13.0339 0L 0 0L 0 2.59252L 4.88637 2.59252L 4.88637 14.9291L 8.14751 14.9291L 8.14751 2.59252L 13.0339 2.59252L 13.0339 0Z" transform="translate(86.4434 1.80908)" fill="#FEFEFE"/>
<path id="Fill 27" fill-rule="evenodd" clip-rule="evenodd" d="M 9.50923 12.3329L 3.25687 12.3329L 3.25687 0L 0 0L 0 14.9277L 9.50923 14.9277L 9.50923 12.3329Z" transform="translate(72.4526 1.80957)" fill="#FEFEFE"/>
<path id="Fill 29" fill-rule="evenodd" clip-rule="evenodd" d="M 3.24619 8.45698L 9.41308 8.45698L 9.41308 5.8652L 3.24619 5.8652L 3.24619 2.59252L 10.2172 2.59252L 10.2172 0L 0 0L 0 14.9284L 10.4436 14.9284L 10.4436 12.3344L 3.24619 12.3344L 3.24619 8.45698Z" transform="translate(53.0386 1.80896)" fill="#FEFEFE"/>
<path id="Fill 31" fill-rule="evenodd" clip-rule="evenodd" d="M 0 14.9284L 5.13137 14.9284C 10.4023 14.9284 13.5488 12.1228 13.5488 7.46346C 13.5488 2.80411 10.4023 0 5.13137 0L 0 0L 0 14.9284ZM 3.24316 2.59253L 5.12763 2.59253C 8.55044 2.59253 10.2611 4.32771 10.2611 7.46348C 10.2611 10.597 8.55044 12.3344 5.12763 12.3344L 3.24316 12.3344L 3.24316 2.59253Z" transform="translate(31.7183 1.80884)" fill="#FEFEFE"/>
<path id="Fill 35" fill-rule="evenodd" clip-rule="evenodd" d="M 11.4087 0L 11.4087 0.000732143L 11.4079 0L 0 4.95661L 11.4087 4.95661L 17.3598 4.95661L 22.8166 4.95661L 11.4087 0Z" transform="translate(0 13.7822)" fill="#FEFEFE"/>
<path id="Fill 33" fill-rule="evenodd" clip-rule="evenodd" d="M 10.5725 11.5071L 21.1422 16.7383L 10.5725 0L 10.5725 0.00439286L 10.5718 0L 0 16.7383L 10.5725 11.48L 10.5725 11.5071Z" transform="translate(0.835938 0)" fill="#FEFEFE"/>
</g>
</g>
</svg>
