<?xml version="1.0" encoding="UTF-8" standalone="no"?>
<svg
   xmlns:dc="http://purl.org/dc/elements/1.1/"
   xmlns:cc="http://creativecommons.org/ns#"
   xmlns:rdf="http://www.w3.org/1999/02/22-rdf-syntax-ns#"
   xmlns:svg="http://www.w3.org/2000/svg"
   xmlns="http://www.w3.org/2000/svg"
   xmlns:sodipodi="http://sodipodi.sourceforge.net/DTD/sodipodi-0.dtd"
   xmlns:inkscape="http://www.inkscape.org/namespaces/inkscape"
   width="310.72662"
   height="75.374336"
   viewBox="0 0 594.26467 932.75741"
   version="1.0"
   id="svg2467"
   sodipodi:version="0.32"
   inkscape:version="0.92.3 (2405546, 2018-03-11)"
   sodipodi:docname="Gucci_Logo (1).svg"
   inkscape:output_extension="org.inkscape.output.svg.inkscape">
  <metadata
     id="metadata2485">
    <rdf:RDF>
      <cc:Work
         rdf:about="">
        <dc:format>image/svg+xml</dc:format>
        <dc:type
           rdf:resource="http://purl.org/dc/dcmitype/StillImage" />
        <dc:title></dc:title>
      </cc:Work>
    </rdf:RDF>
  </metadata>
  <defs
     id="defs2483">
    <inkscape:perspective
       sodipodi:type="inkscape:persp3d"
       inkscape:vp_x="0 : 495 : 1"
       inkscape:vp_y="0 : 1000 : 0"
       inkscape:vp_z="765 : 495 : 1"
       inkscape:persp3d-origin="382.5 : 330 : 1"
       id="perspective2487" />
  </defs>
  <sodipodi:namedview
     inkscape:window-height="1005"
     inkscape:window-width="1920"
     inkscape:pageshadow="2"
     inkscape:pageopacity="0.0"
     guidetolerance="10.0"
     gridtolerance="10.0"
     objecttolerance="10.0"
     borderopacity="1.0"
     bordercolor="#666666"
     pagecolor="#ffffff"
     id="base"
     showgrid="false"
     inkscape:zoom="2"
     inkscape:cx="186.21866"
     inkscape:cy="163.57864"
     inkscape:window-x="-9"
     inkscape:window-y="-9"
     inkscape:current-layer="svg2467"
     inkscape:window-maximized="1"
     inkscape:snap-bbox="true"
     inkscape:bbox-paths="true"
     inkscape:bbox-nodes="true"
     inkscape:snap-bbox-midpoints="true"
     inkscape:snap-bbox-edge-midpoints="true"
     inkscape:object-paths="true"
     inkscape:snap-intersection-paths="true"
     inkscape:snap-smooth-nodes="true"
     inkscape:snap-object-midpoints="true"
     inkscape:snap-center="true"
     inkscape:snap-global="true"
     fit-margin-top="5"
     fit-margin-right="5"
     fit-margin-left="5"
     fit-margin-bottom="5" />
  <g
     id="g837"
     transform="matrix(0.65149678,0,0,0.65149678,234.83299,1724.0932)">
    <path
       d="m 2413.9137,-2188.4529 -10.6743,3.5453 q -62.2633,-135.2047 -177.9002,-215.2591 -113.8529,-80.0543 -286.4165,-80.0543 -96.0648,0 -183.2362,40.9153 -87.1683,39.139 -152.992,112.0766 -64.0438,71.1607 -103.1827,172.5631 -39.1355,101.4023 -39.1355,224.1527 0,122.7503 39.1355,224.1531 39.1389,101.4024 103.1827,174.3399 65.8237,71.1607 152.992,110.2993 87.1714,39.1357 183.2362,39.1357 170.7834,0 277.5229,-53.3698 108.5196,-55.1465 183.2369,-167.2226 l 10.6741,3.5453 -3.5453,113.8562 q -40.9158,42.696 -94.2855,76.4946 -53.3698,32.0217 -115.6331,55.1498 -60.487,21.348 -126.3106,32.0218 -65.8203,12.4636 -131.6444,12.4636 -136.9804,0 -261.5107,-44.4756 -124.5305,-44.4761 -218.8159,-124.5304 -94.2855,-81.8317 -149.4353,-195.6879 -55.1497,-115.6336 -55.1497,-256.1749 0,-140.5413 55.1497,-254.3943 55.1498,-115.6368 149.4353,-197.4681 94.2854,-81.8344 218.8159,-124.5304 124.5303,-44.4756 261.5107,-44.4756 65.8241,0 131.6444,10.6737 65.8236,10.6738 126.3106,33.8019 62.2633,21.348 115.6331,55.1498 53.3697,32.0218 94.2855,74.7178 z"
       style="font-style:normal;font-variant:normal;font-weight:normal;font-stretch:normal;font-size:medium;line-height:1000%;font-family:GoldenbookW01-Bold;-inkscape-font-specification:GoldenbookW01-Bold;letter-spacing:0px;word-spacing:0px;fill:#000000;fill-opacity:1;stroke:none;stroke-width:325.42510986px;stroke-linecap:butt;stroke-linejoin:miter;stroke-opacity:1"
       id="path830"
       inkscape:connector-curvature="0" />
    <path
       d="m -1506.2863,-1848.6634 q -19.5579,8.8838 -37.3587,23.1375 -17.8007,14.2209 -17.8007,39.139 v 218.8155 q -85.3916,122.7503 -218.8159,190.3513 -133.4243,67.6038 -295.3135,67.6038 -136.9812,0 -261.5116,-44.4761 -124.5272,-44.4756 -218.8158,-124.5306 -94.2855,-81.8311 -149.4353,-195.6874 -55.1465,-115.6335 -55.1465,-256.1749 0,-140.5413 55.1465,-254.3947 55.1498,-115.6364 149.4353,-197.4676 94.2886,-81.835 218.8158,-124.5305 124.5304,-44.4761 261.5116,-44.4761 65.8237,0 131.6475,10.6742 65.8204,10.6738 126.3072,33.8019 62.2636,21.348 115.6333,55.1499 53.3697,32.0217 94.2887,74.7172 l 7.1268,188.5712 -10.674,3.5453 q -62.2635,-135.2047 -177.8969,-215.2591 -113.8564,-80.0548 -286.4196,-80.0548 -96.0655,0 -183.2338,40.9158 -87.1717,39.139 -152.9954,112.0766 -64.0437,71.1607 -103.1793,172.5631 -39.1389,101.4023 -39.1389,224.1527 0,120.9702 37.3588,222.373 39.1389,101.4023 103.1826,174.3433 65.8205,71.1573 152.9921,112.076 87.1716,39.1357 185.0139,39.1357 185.0172,0 316.6614,-71.1575 v -332.6722 q 0,-24.8952 -19.558,-39.139 -17.8008,-14.2209 -35.582,-23.1375 l 1.6271,-8.8842 q 8.8841,1.6276 32.0219,3.5452 23.1377,1.6277 48.0327,3.5453 26.6849,0 49.8128,0 23.1378,0 33.7987,0 10.6739,0 28.4747,0 19.558,0 40.9157,0 21.3479,-1.6276 40.9189,-3.5453 19.558,-1.6276 30.232,-3.5452 z"
       style="font-style:normal;font-variant:normal;font-weight:normal;font-stretch:normal;font-size:medium;line-height:1000%;font-family:GoldenbookW01-Bold;-inkscape-font-specification:GoldenbookW01-Bold;letter-spacing:0px;word-spacing:0px;fill:#000000;fill-opacity:1;stroke:none;stroke-width:325.42510986px;stroke-linecap:butt;stroke-linejoin:miter;stroke-opacity:1"
       id="path824"
       inkscape:connector-curvature="0" />
    <path
       d="m -217.7427,-2514.0084 q -17.8007,8.8843 -35.5788,23.1379 -17.8007,14.2209 -19.5579,53.3698 -1.6272,42.6955 -3.5472,108.5195 0,64.0435 -1.6272,145.8748 0,81.8349 -1.6272,177.9001 0,96.0658 0,199.2482 -1.6272,115.6331 -28.4747,197.4681 -26.6848,81.8311 -71.1575,136.981 -42.6957,55.15 -96.0655,87.1716 -51.5929,32.0218 -103.1825,48.0326 -49.8127,17.8009 -94.2854,21.348 -44.4759,5.3372 -69.3807,5.3372 -101.4025,0 -195.6911,-26.6852 -94.2855,-24.8947 -165.4462,-81.8345 -71.1573,-56.9267 -113.8532,-147.6552 -42.6957,-90.7281 -42.6957,-220.5957 0,-103.1825 0,-201.025 0,-99.6255 0,-185.017 0,-85.3915 -1.6272,-152.9924 0,-69.3806 -1.6272,-112.0761 -1.6272,-39.139 -19.5581,-53.3698 -17.8006,-14.2209 -35.5786,-23.1379 l 1.6272,-8.8838 q 8.884,1.6276 28.4746,3.5453 21.3479,1.6276 42.6958,3.5453 23.1378,0 44.4759,1.6276 21.3478,0 32.0217,0 10.674,0 32.022,0 21.3478,-1.6276 44.4725,-1.6276 23.1378,-1.6277 42.6959,-3.5453 21.3478,-1.6277 30.2318,-3.5453 l 1.6272,8.8838 q -19.5579,8.8843 -37.3587,23.1379 -16.0109,14.2209 -17.8007,53.3698 -1.6272,42.6955 -3.5472,112.0761 0,67.6009 0,152.9924 0,85.3915 0,185.0169 0,97.8426 0,201.0251 0,193.9111 90.7285,286.4165 90.7285,92.5082 268.6286,92.5082 51.5897,0 117.4134,-12.4637 65.8237,-14.2209 122.7504,-56.9267 58.7067,-42.6955 97.8456,-120.9702 40.9156,-78.2775 40.9156,-208.1418 0,-140.5413 -1.6272,-240.1636 0,-101.4023 -1.6271,-172.563 0,-72.9376 -1.6272,-124.5305 -1.6271,-51.5896 -3.5471,-94.2856 -1.6272,-39.139 -19.5582,-53.3697 -17.8007,-14.2209 -35.5786,-23.1379 l 1.6272,-8.8839 q 19.5579,3.5453 44.4725,7.1266 24.895,1.6277 46.256,1.6277 19.558,0 44.4725,-1.6277 26.6849,-3.5452 46.2559,-7.1266 z"
       style="font-style:normal;font-variant:normal;font-weight:normal;font-stretch:normal;font-size:medium;line-height:1000%;font-family:GoldenbookW01-Bold;-inkscape-font-specification:GoldenbookW01-Bold;letter-spacing:0px;word-spacing:0px;fill:#000000;fill-opacity:1;stroke:none;stroke-width:325.42510986px;stroke-linecap:butt;stroke-linejoin:miter;stroke-opacity:1"
       id="path826"
       inkscape:connector-curvature="0" />
    <path
       d="m 1073.1511,-2188.4529 -10.6739,3.5453 q -62.2669,-135.2047 -177.9002,-215.2591 -113.8565,-80.0543 -286.4165,-80.0543 -96.0653,0 -183.237,40.9153 -87.1716,39.139 -152.9921,112.0766 -64.0437,71.1607 -103.1824,172.5631 -39.1389,101.4023 -39.1389,224.1527 0,122.7503 39.1389,224.1531 39.1387,101.4024 103.1824,174.3399 65.8204,71.1607 152.992,110.2993 87.1718,39.1357 183.2371,39.1357 170.7832,0 277.5226,-53.3698 108.5163,-55.1465 183.2339,-167.2226 l 10.674,3.5453 -3.5472,113.8562 q -40.9157,42.696 -94.2855,76.4946 -53.3697,32.0217 -115.6366,55.1498 -60.4834,21.348 -126.3071,32.0218 -65.8238,12.4636 -131.6443,12.4636 -136.9844,0 -261.5116,-44.4756 -124.5305,-44.4761 -218.8159,-124.5304 -94.2887,-81.8317 -149.4351,-195.6879 -55.1498,-115.6336 -55.1498,-256.1749 0,-140.5413 55.1498,-254.3943 55.1464,-115.6368 149.4351,-197.4681 94.2854,-81.8344 218.8159,-124.5304 124.5272,-44.4756 261.5116,-44.4756 65.8206,0 131.6443,10.6737 65.8237,10.6738 126.3071,33.8019 62.2669,21.348 115.6366,55.1498 53.3698,32.0218 94.2855,74.7178 z"
       style="font-style:normal;font-variant:normal;font-weight:normal;font-stretch:normal;font-size:medium;line-height:1000%;font-family:GoldenbookW01-Bold;-inkscape-font-specification:GoldenbookW01-Bold;letter-spacing:0px;word-spacing:0px;fill:#000000;fill-opacity:1;stroke:none;stroke-width:325.42510986px;stroke-linecap:butt;stroke-linejoin:miter;stroke-opacity:1"
       id="path828"
       inkscape:connector-curvature="0" />
    <path
       d="m 2950.1067,-1339.8744 q -8.8842,-1.6276 -30.2322,-3.5453 -19.5581,0 -42.6956,-1.6276 -23.1379,0 -44.476,-1.6277 -19.5581,0 -30.2319,0 -10.6742,0 -32.0217,0 -21.348,0 -44.4761,0 -21.348,1.6277 -42.6955,3.5453 -19.5585,1.6277 -30.2322,3.5453 l -1.6277,-7.1271 q 17.8008,-8.8838 35.5787,-23.1374 17.8009,-14.2209 19.558,-53.3698 1.6277,-42.6959 1.6277,-88.9484 1.6277,-46.2557 1.6277,-104.9626 0,-58.7068 0,-133.4241 0,-76.4945 0,-179.677 0,-103.1825 0,-179.6771 0,-76.4978 0,-135.2042 0,-58.7068 -1.6277,-103.1829 0,-46.2525 -1.6277,-88.9485 -1.6276,-39.1385 -19.558,-53.3697 -17.8008,-16.0109 -35.5787,-24.8947 l 1.6277,-7.1271 q 10.6737,3.5453 30.2322,5.3371 21.3475,0 42.6955,1.6277 23.1379,1.6276 44.4761,1.6276 21.3475,0 32.0217,0 10.6738,0 30.2319,0 21.348,-1.6276 44.476,-1.6276 23.1375,-1.6277 42.6956,-3.5453 21.348,-1.6277 30.2322,-3.5453 l 1.6276,7.1266 q -19.5579,8.8843 -37.3584,24.8951 -16.0108,14.2214 -17.8008,53.3698 -1.6276,42.6959 -3.5452,88.9484 0,44.4761 0,103.1825 0,58.7069 0,135.2047 0,76.4941 0,179.6766 0,103.1829 0,179.677 0,74.7178 0,133.4246 0,58.7064 0,104.9627 1.6276,46.2524 3.5452,88.9484 1.6277,39.1385 17.8008,53.3698 17.8005,14.2209 37.3584,23.1374 z"
       style="font-style:normal;font-variant:normal;font-weight:normal;font-stretch:normal;font-size:medium;line-height:1000%;font-family:GoldenbookW01-Bold;-inkscape-font-specification:GoldenbookW01-Bold;letter-spacing:0px;word-spacing:0px;fill:#000000;fill-opacity:1;stroke:none;stroke-width:325.42510986px;stroke-linecap:butt;stroke-linejoin:miter;stroke-opacity:1"
       id="path832"
       inkscape:connector-curvature="0" />
  </g>
</svg>
