<?xml version="1.0" encoding="UTF-8" standalone="no"?>
<!-- Created with Inkscape (http://www.inkscape.org/) -->

<svg
   xmlns:svg="http://www.w3.org/2000/svg"
   xmlns="http://www.w3.org/2000/svg"
   version="1.1"
   width="120"
   height="40"
   id="svg2994">
  <defs
     id="defs2996" />
  <g
     transform="translate(-618.88194,-655.00084)"
     id="layer1">
    <path
       d="m 627.12442,668.67646 1.51875,-1.61125 c 0.36125,-0.385 1.71875,-1.81125 1.71875,-2.30875 0,-0.545 -0.83625,-0.5625 -1.2,-0.5625 l 0,-0.44375 c 0.6575,0.0238 1.33375,0.0813 1.99625,0.10125 0.62875,-0.02 1.28375,-0.0775 1.91625,-0.10125 l 0,0.44375 c -1.21875,0.04 -1.4475,0.4275 -2.24,1.29 l -2.07875,2.33 4.34125,4.2575 c 0.58875,0.545 0.74875,0.8825 1.5625,1.01375 l 0,0.4475 c -0.455,-0.0225 -0.925,-0.0812 -1.37875,-0.10375 -0.47625,0.0225 -0.93,0.0812 -1.4025,0.10375 l -4.2975,-4.585 -0.45625,0.45125 0,1.4025 c 0,1.4975 -0.2025,2.175 1.58375,2.28375 l 0,0.4475 c -0.835,-0.0225 -1.695,-0.0812 -2.535,-0.10375 -0.84,0.0225 -1.675,0.0812 -2.55875,0.10375 l 0,-0.4475 c 1.6925,-0.10875 1.58125,-0.6525 1.58125,-2.14375 l 0,-8.96 c 0,-0.52625 0,-1.73 -0.24875,-2.1575 -0.29375,-0.5225 -0.92625,-0.5225 -1.46875,-0.5925 l 0,-0.43875 3.64625,-0.71625 0,10.6"
       id="path38"
       style="fill:#231f20;fill-opacity:1;fill-rule:nonzero;stroke:none" />
    <path
       d="m 642.87568,671.59771 c -0.62875,0.61 -1.59375,1.28876 -2.4725,1.28876 -0.9225,0 -1.44001,-0.7875 -1.44001,-1.63 0,-1.81125 2.56501,-2.69375 3.91251,-3.35 l 0,3.69124 z m -2.43,-3.1675 c -1.435,0.65375 -3.58375,1.4725 -3.58375,3.36875 0,1.27125 1.15625,2.0025 2.34875,2.0025 1.39875,0 2.6975,-0.75374 3.755,-1.61374 0.225,0.9025 1.02125,1.61374 1.95125,1.61374 0.84,0 1.67375,-0.77499 2.03999,-1.52125 l -0.43375,-0.23 c -0.24375,0.3125 -0.4725,0.72375 -0.925,0.72375 -0.8825,0 -0.78999,-1.67499 -0.78999,-2.23875 l 0,-3.74 c 0,-2.60125 -1.16,-3.25125 -3.66125,-3.25125 -1.14875,0 -4.14875,0.31375 -4.14875,1.9825 0,0.4975 0.36,0.8125 0.8575,0.8125 0.56875,0 0.86,-0.49375 0.91,-0.9925 0.0638,-1.2 0.985,-1.28875 2.11125,-1.28875 1.84,0 1.975,1.0825 1.975,2.61875 0,0.2525 0.0438,0.545 -0.18125,0.65875 l -2.225,1.095"
       id="path42"
       style="fill:#231f20;fill-opacity:1;fill-rule:nonzero;stroke:none" />
    <path
       d="m 648.78818,664.53021 0,-0.4075 c 1.13125,-0.6525 2.265,-1.56 2.73875,-2.85 l 0.34249,0 0,2.64875 2.57501,0 0,0.60875 -2.57501,0 0,6.47125 c 0,1.0225 0.2025,2.08375 1.40375,2.08375 0.7875,0 1.195,-0.44875 1.62375,-1.01625 l 0.41,0.2925 c -0.41,1.08375 -1.53875,1.44125 -2.62375,1.44125 -1.63,0 -2.74375,-0.62625 -2.74375,-2.3225 l 0,-6.95 -1.15125,0"
       id="path46"
       style="fill:#231f20;fill-opacity:1;fill-rule:nonzero;stroke:none" />
    <path
       d="m 659.82192,666.83896 c 0.27125,-1.48125 0.9475,-2.78125 2.64,-2.78125 1.42,0 2.18625,0.9125 2.18625,2.32625 0,0.56625 -0.74375,0.455 -1.105,0.455 l -3.72125,0 z m 6.10626,4.5775 c -0.67876,0.9025 -1.69501,1.66875 -2.84626,1.66875 -2.4125,0 -3.54125,-2.395 -3.54125,-4.5475 l 0.0888,-1.0875 6.48375,0 c 0.22,0 0.56,0.0925 0.56,-0.2025 0,-2.46124 -2.1025,-3.70375 -4.31125,-3.70375 -2.935,0 -5.09,2.56625 -5.09,5.40375 0,2.89875 2.3125,4.855 5.1125,4.855 1.69125,0 2.95375,-0.60375 4.02,-1.9125 l -0.47625,-0.47375"
       id="path50"
       style="fill:#231f20;fill-opacity:1;fill-rule:nonzero;stroke:none" />
    <path
       d="m 676.28067,673.64896 -0.22749,0 -0.085,-3.23625 0.45501,0 c 0.36249,1.4525 1.1325,2.8825 2.80125,2.8825 0.98874,0 1.88874,-0.5 1.88874,-1.59124 0,-1.29125 -1.30625,-1.81376 -2.27374,-2.31501 -1.30625,-0.67999 -2.71375,-1.43125 -2.71375,-3.13125 0,-1.56375 1.245,-2.71375 2.80499,-2.71375 0.70125,0 1.5525,0.20375 2.1825,0.55625 l 0.45125,-0.53 0.27,0 -0.0425,2.825 -0.4525,0 c -0.405,-1.13999 -0.89875,-2.33749 -2.31875,-2.33749 -0.7425,0 -1.43875,0.42999 -1.43875,1.24874 0,1.1775 1.235,1.58625 2.09125,2.06125 1.5525,0.8175 2.97125,1.41 2.97125,3.45125 0,1.865 -1.5725,2.98375 -3.30875,2.98375 -0.85625,0 -1.8025,-0.26375 -2.4825,-0.80375 l -0.5725,0.65"
       id="path54"
       style="fill:#231f20;fill-opacity:1;fill-rule:nonzero;stroke:none" />
    <path
       d="m 688.36817,668.09646 c 0,-0.93125 0,-1.72625 0.4725,-2.53875 0.4775,-0.82 1.3375,-1.2975 2.29125,-1.2975 2.465,0 3.11625,2.33875 3.11625,4.4025 0,2.04125 -0.72375,4.4225 -3.16125,4.4225 -0.81875,0 -1.70124,-0.29 -2.22,-0.905 -0.49875,-0.5875 -0.49875,-1.7025 -0.49875,-2.4725 l 0,-1.61125 z m -0.2725,-4.5525 c -1.04625,0.2475 -2.15375,0.53875 -3.285,0.69 l 0,0.4675 c 0.7225,0 1.3325,-0.0863 1.51625,0.72375 0.11375,0.52125 0.11375,2.10375 0.11375,2.73626 l 0,8.86749 c 0,1.49625 0.13251,2.0625 -1.56125,2.175 l 0,0.44375 c 0.90251,-0.0263 1.80876,-0.0812 2.71875,-0.10375 0.83875,0.0225 1.67625,0.0775 2.51,0.10375 l 0,-0.44375 c -1.8975,-0.0888 -1.74,-0.67875 -1.74,-2.3075 l 0,-4.39125 c 0.975,0.8825 1.92376,1.29625 3.25251,1.29625 2.85749,0 4.89125,-2.31375 4.89125,-5.0725 0,-2.9425 -2.03376,-5.17125 -5.02125,-5.17125 -1.46875,-0.0137 -2.51375,0.65375 -3.39125,1.85375 l -0.004,-1.8675"
       id="path58"
       style="fill:#231f20;fill-opacity:1;fill-rule:nonzero;stroke:none" />
    <path
       d="m 705.32067,671.59771 c -0.62875,0.61 -1.595,1.28876 -2.46875,1.28876 -0.92375,0 -1.4425,-0.7875 -1.4425,-1.63 0,-1.81125 2.56625,-2.69375 3.91125,-3.35 l 0,3.69124 z m -2.42625,-3.1675 c -1.4375,0.65375 -3.59,1.4725 -3.59,3.36875 0,1.27125 1.15375,2.0025 2.355,2.0025 1.39,0 2.6975,-0.75374 3.75751,-1.61374 0.21875,0.9025 1.01499,1.61374 1.95249,1.61374 0.83001,0 1.67,-0.77499 2.03376,-1.52125 l -0.43125,-0.23 c -0.25125,0.3125 -0.48125,0.72375 -0.9325,0.72375 -0.875,0 -0.79375,-1.67499 -0.79375,-2.23875 l 0,-3.74 c 0,-2.60125 -1.155,-3.25125 -3.65751,-3.25125 -1.14625,0 -4.14625,0.31375 -4.14625,1.9825 0,0.4975 0.36375,0.8125 0.85875,0.8125 0.56875,0 0.86126,-0.49375 0.90125,-0.9925 0.0738,-1.2 0.99375,-1.28875 2.12375,-1.28875 1.84125,0 1.9725,1.0825 1.9725,2.61875 0,0.2525 0.0475,0.545 -0.17875,0.65875 l -2.225,1.095"
       id="path62"
       style="fill:#231f20;fill-opacity:1;fill-rule:nonzero;stroke:none" />
    <path
       d="m 719.23317,669.79271 c 0,1.79125 -0.65374,3.39875 -2.68499,3.39875 -2.44001,0 -3.09626,-2.35625 -3.09626,-4.39875 0,-1.97125 0.65625,-4.5325 3.09626,-4.5325 1.30499,0 2.68499,0.88125 2.68499,2.31375 l 0,3.21875 z m 3.78376,3.26125 0,-0.4525 c -0.7225,0 -1.32875,0.0487 -1.62625,-0.74749 -0.2275,-0.58876 -0.2275,-1.7225 -0.2275,-2.3575 l 0,-11.42 -3.62375,0.71625 0,0.43875 c 1.6275,0.0462 1.69375,0.7725 1.69375,2.1375 l 0,3.57 c -0.81,-0.94625 -1.98375,-1.395 -3.22625,-1.395 -2.86875,0 -4.82875,2.48625 -4.82875,5.24875 0,2.8125 1.975,5.01 4.82875,5.01 1.54,0 2.55625,-0.54375 3.53,-1.71875 0.07,0.60875 0.205,1.2 0.45249,1.71875 l 3.02751,-0.74875"
       id="path66"
       style="fill:#231f20;fill-opacity:1;fill-rule:nonzero;stroke:none" />
    <path
       d="m 727.44943,666.83896 c 0.27,-1.48125 0.95,-2.78125 2.6425,-2.78125 1.41875,0 2.18875,0.9125 2.18875,2.32625 0,0.56625 -0.74875,0.455 -1.1075,0.455 l -3.72375,0 z m 6.0925,4.5775 c -0.67876,0.9025 -1.69376,1.66875 -2.85126,1.66875 -2.41125,0 -3.54125,-2.395 -3.54125,-4.5475 l 0.0913,-1.0875 6.48249,0 c 0.22126,0 0.5625,0.0925 0.5625,-0.2025 0,-2.46124 -2.105,-3.70375 -4.31375,-3.70375 -2.935,0 -5.0925,2.56625 -5.0925,5.40375 0,2.89875 2.31375,4.855 5.1125,4.855 1.6875,0 2.9575,-0.60375 4.02,-1.9125 l -0.47,-0.47375"
       id="path70"
       style="fill:#231f20;fill-opacity:1;fill-rule:nonzero;stroke:none" />
    <path
       d="m 650.72317,686.63396 c -0.27499,-0.39374 -0.48874,-0.52374 -0.96749,-0.53499 l 0,-0.20376 c 0.28125,0.0113 0.55624,0.0263 0.84,0.0338 0.23125,-0.008 0.47625,-0.0225 0.70624,-0.0338 l 3.74875,4.57501 0,-2.47126 c 0,-0.38374 0,-1.00374 -0.075,-1.365 -0.10875,-0.49625 -0.345,-0.465 -0.7875,-0.53499 l 0,-0.20376 c 0.32375,0.0113 0.6425,0.0263 0.9725,0.0338 0.31125,-0.008 0.61125,-0.0225 0.94,-0.0338 l 0,0.20376 c -0.32875,0.0388 -0.555,0.0113 -0.6725,0.39125 -0.0875,0.28375 -0.10625,1.195 -0.10625,1.55499 l 0,3.81625 -0.27125,0 c -0.19125,-0.2425 -0.38625,-0.48875 -0.5825,-0.745 l -3.4775,-4.1925 0,2.9725 c 0,0.32625 0,0.99 0.13,1.29125 0.15375,0.3475 0.44625,0.3275 0.77125,0.3675 l 0,0.20125 c -0.33625,-0.008 -0.6775,-0.0263 -1.015,-0.0325 -0.33125,0.006 -0.66,0.025 -0.98875,0.0325 l 0,-0.20125 c 0.34626,-0.04 0.67375,-0.0563 0.76375,-0.43875 0.0712,-0.3175 0.0712,-0.87375 0.0712,-1.22 l 0,-3.2625"
       id="path74"
       style="fill:#231f20;fill-opacity:1;fill-rule:nonzero;stroke:none" />
    <path
       d="m 659.14567,687.61271 c 0,-0.28 0,-0.93625 -0.0913,-1.17875 -0.115,-0.30125 -0.4775,-0.30125 -0.76125,-0.30125 l 0,-0.2375 4.3975,0 0,1.33501 -0.2025,0 c -0.16875,-1.03376 -0.62374,-1.0975 -1.5625,-1.0975 l -0.635,0 c -0.2775,0 -0.235,-0.0263 -0.235,0.36625 l 0,2.09875 c 1.2175,0.0512 1.39251,-0.4525 1.4475,-1.09 l 0.20375,0 c -0.009,0.4 -0.015,0.8025 -0.035,1.20375 0.02,0.36375 0.0263,0.73375 0.035,1.1 l -0.20375,0 c -0.125,-0.9325 -0.59375,-0.975 -1.4475,-0.975 l 0,1.45125 c 0,0.265 0,0.68125 0.16376,0.89625 0.23125,0.3075 0.7775,0.3225 1.1325,0.3175 0.91625,-0.0213 1.5175,-0.13125 1.63,-1.1875 l 0.20875,0 -0.08,1.42499 -4.8175,0 0,-0.20375 c 0.28375,0 0.64625,0 0.76125,-0.30125 0.0913,-0.23749 0.0913,-0.89374 0.0913,-1.17624 l 0,-2.44501"
       id="path78"
       style="fill:#231f20;fill-opacity:1;fill-rule:nonzero;stroke:none" />
    <path
       d="m 669.21943,687.39646 -0.71001,2.40875 c -0.23875,0.71 -0.48625,1.4125 -0.72875,2.12 l -0.29999,0 -1.55125,-4.76874 c -0.0712,-0.21001 -0.195,-0.67625 -0.32875,-0.82376 -0.14875,-0.20749 -0.38,-0.21624 -0.63625,-0.23374 l 0,-0.20376 c 0.42625,0.0113 0.85249,0.0263 1.2725,0.0338 0.43625,-0.008 0.8775,-0.0225 1.3125,-0.0338 l 0,0.20376 c -0.27875,0.0263 -0.79125,0.0263 -0.79125,0.43375 0,0.2025 0.19875,0.86375 0.26125,1.0825 l 0.93875,3.0425 1.40125,-4.76251 0.28125,0 1.4625,4.69376 0.61125,-1.9375 c 0.11875,-0.38751 0.47,-1.615 0.47,-1.95625 0,-0.5525 -0.3175,-0.5525 -0.7625,-0.59625 l 0,-0.20376 c 0.32,0.0113 0.63875,0.0263 0.95625,0.0338 0.31125,-0.008 0.6125,-0.0225 0.92625,-0.0338 l 0,0.20376 c -0.65876,-0.015 -0.7825,0.67499 -0.92625,1.16875 l -1.45875,4.6575 -0.31125,0 -1.38875,-4.52875"
       id="path82"
       style="fill:#231f20;fill-opacity:1;fill-rule:nonzero;stroke:none" />
    <path
       d="m 681.45318,690.59771 c 0,0.8375 0.03,0.88251 0.8775,0.9575 l 0,0.20125 c -0.445,-0.008 -0.88625,-0.0263 -1.32875,-0.0325 -0.4525,0.006 -0.90375,0.025 -1.3575,0.0325 l 0,-0.20125 c 0.86125,-0.075 0.89375,-0.12625 0.89375,-0.9575 l 0,-1.1 -0.81375,-1.405 c -0.0925,-0.17999 -0.77251,-1.52625 -1.0825,-1.83249 -0.14875,-0.16876 -0.3,-0.1225 -0.51125,-0.16125 l 0,-0.20376 c 0.39874,0.0113 0.80624,0.0263 1.205,0.0338 0.4125,-0.008 0.8325,-0.0225 1.24875,-0.0338 l 0,0.20376 c -0.19501,0 -0.66625,-0.015 -0.66625,0.28499 0,0.22875 0.1275,0.42625 0.23375,0.62 l 1.15125,2.135 0.56875,-0.905 c 0.1875,-0.30875 0.87625,-1.44 0.87625,-1.76125 0,-0.335 -0.4,-0.34749 -0.6375,-0.37374 l 0,-0.20376 c 0.32,0.0113 0.62874,0.0263 0.94875,0.0338 0.295,-0.008 0.57875,-0.0225 0.87,-0.0338 l 0,0.20376 c -0.515,0.0438 -0.70125,0.38999 -0.94001,0.78999 l -1.53624,2.53125 0,1.1775"
       id="path86"
       style="fill:#231f20;fill-opacity:1;fill-rule:nonzero;stroke:none" />
    <path
       d="m 688.47943,686.03021 c 1.565,0 2.11374,1.46125 2.11374,2.79375 0,1.31875 -0.47625,2.795 -2.05624,2.795 -1.62126,0 -2.17,-1.38 -2.17,-2.77375 0,-1.305 0.57875,-2.815 2.1125,-2.815 z m 0.025,5.83125 c 1.79625,0 3.21625,-1.26125 3.21625,-3.07625 0,-1.75125 -1.48875,-2.99125 -3.18375,-2.99125 -1.71625,0 -3.25125,1.29125 -3.25125,3.05125 0,1.7825 1.48375,3.01625 3.21875,3.01625"
       id="path90"
       style="fill:#231f20;fill-opacity:1;fill-rule:nonzero;stroke:none" />
    <path
       d="m 695.46317,686.48021 c 0,-0.1 -0.0237,-0.2675 0.0975,-0.31625 0.0788,-0.0388 0.47375,-0.0125 0.5775,-0.0125 0.8,0 1.2475,0.55 1.2475,1.32625 0,1.28 -0.80625,1.305 -1.9225,1.305 l 0,-2.3025 z m 1.32876,2.39 c 0.8825,-0.0775 1.61249,-0.56375 1.61249,-1.51375 0,-1.23125 -1.01874,-1.46125 -2.03625,-1.46125 -0.37375,0.0113 -0.755,0.0263 -1.12625,0.0338 -0.5025,-0.008 -1.02,-0.0225 -1.52375,-0.0338 l 0,0.20376 c 0.28125,0 0.65251,-0.007 0.75375,0.29999 0.0763,0.23875 0.0763,0.89 0.0763,1.17875 l 0,2.49126 c 0,0.28125 0,0.94 -0.0763,1.18125 -0.10125,0.30499 -0.4725,0.30499 -0.75375,0.30499 l 0,0.20125 c 0.44001,-0.008 0.885,-0.0263 1.32625,-0.0325 0.42375,0.006 0.84626,0.025 1.255,0.0325 l 0,-0.20125 c -0.28125,0 -0.65,0.007 -0.755,-0.30499 -0.0812,-0.24126 -0.0812,-0.9 -0.0812,-1.18125 l 0,-1.04625 c 0.46875,0 0.43376,0.0525 0.7325,0.38875 l 1.465,1.83124 0.41876,0.51375 c 0.225,-0.008 0.44124,-0.0263 0.6625,-0.0325 0.2675,0.006 0.53125,0.025 0.7975,0.0325 l 0,-0.20125 c -0.4525,-0.075 -0.5825,-0.1975 -0.8675,-0.52874 l -1.88,-2.15625"
       id="path94"
       style="fill:#231f20;fill-opacity:1;fill-rule:nonzero;stroke:none" />
    <path
       d="m 702.82192,689.55396 0,1.04375 c 0,0.8375 0.0288,0.88251 0.87375,0.9575 l 0,0.20125 c -0.4325,-0.008 -0.86,-0.0263 -1.2925,-0.0325 -0.4525,0.006 -0.90125,0.025 -1.34875,0.0325 l 0,-0.20125 c 0.2825,0 0.645,0 0.76375,-0.30499 0.0825,-0.24 0.0825,-0.89 0.0825,-1.1775 l 0,-2.49501 c 0,-0.28499 0,-0.9375 -0.0825,-1.17624 -0.11875,-0.3025 -0.48125,-0.3025 -0.76375,-0.3025 l 0,-0.20376 c 0.4225,0.0113 0.83875,0.0263 1.27,0.0338 0.46375,-0.008 0.90875,-0.0225 1.37125,-0.0338 l 0,0.20376 c -0.845,0.07 -0.87375,0.12374 -0.87375,0.95875 l 0,2.15875 c 0.41876,-0.4425 2.135,-2.24625 2.135,-2.7625 0,-0.37 -0.40125,-0.32875 -0.6675,-0.355 l 0,-0.20376 c 0.35375,0.0113 0.7,0.0263 1.05875,0.0338 0.31,-0.008 0.60875,-0.0225 0.92376,-0.0338 l 0,0.20376 c -0.49,0.0113 -0.60875,0.12374 -0.89875,0.49749 l -1.4175,1.7475 1.22875,1.42125 c 0.11,0.13125 1.04,1.35125 1.45875,1.65625 0.1775,0.13375 0.30625,0.11375 0.52125,0.13375 l 0,0.20125 c -0.46875,-0.008 -0.94,-0.0263 -1.40875,-0.0325 -0.4575,0.006 -0.9,0.025 -1.3475,0.0325 l 0,-0.20125 c 0.15625,0 0.74249,0.0237 0.74249,-0.2675 0,-0.185 -0.55999,-0.8425 -0.70124,-1.01125 l -1.08125,-1.30125 -0.54625,0.57875"
       id="path98"
       style="fill:#231f20;fill-opacity:1;fill-rule:nonzero;stroke:none" />
  </g>
</svg>
