<?xml version="1.0" encoding="iso-8859-1"?>
<!-- Generator: Adobe Illustrator 18.0.0, SVG Export Plug-In . SVG Version: 6.00 Build 0)  -->
<!DOCTYPE svg PUBLIC "-//W3C//DTD SVG 1.1//EN" "http://www.w3.org/Graphics/SVG/1.1/DTD/svg11.dtd">
<svg version="1.1" id="Capa_1" xmlns="http://www.w3.org/2000/svg" xmlns:xlink="http://www.w3.org/1999/xlink" x="0px" y="0px"
	 viewBox="0 0 249.168 249.168" style="enable-background:new 0 0 249.168 249.168;" xml:space="preserve">
<path d="M243.728,198.143c-2.159,1.478-4.617,2.187-7.051,2.187c-3.985,0-7.903-1.902-10.325-5.439l-27.474-40.127
	c-8.621,2.544-18.15,4.215-28.24,4.812c0.325,0.744,0.714,1.47,1.188,2.165c4.106,6.021,12.347,7.578,18.366,3.474
	c3.419-2.336,8.088-1.452,10.421,1.972c2.334,3.422,1.451,8.088-1.972,10.421c-4.853,3.309-10.381,4.895-15.854,4.895
	c-9.024,0-17.898-4.31-23.354-12.311c-2.208-3.238-3.684-6.823-4.403-10.559c-36.045-1.869-65.172-17.434-71.439-37.546h-6.925v21
	c0,4.143-3.357,7.5-7.5,7.5s-7.5-3.357-7.5-7.5v-21h-11v12c0,4.143-3.357,7.5-7.5,7.5s-7.5-3.357-7.5-7.5v-12H24.82
	c-2.5,3.412-6.525,5.637-11.079,5.637C6.152,127.721,0,121.569,0,113.98s6.152-13.741,13.741-13.741
	c5.072,0,9.492,2.756,11.872,6.845h10.054v-11c0-4.143,3.357-7.5,7.5-7.5s7.5,3.357,7.5,7.5v11h11v-20c0-4.143,3.357-7.5,7.5-7.5
	s7.5,3.357,7.5,7.5v20h6.552c5.799-22.057,39.007-38.967,79.11-38.967c2.622,0,5.212,0.076,7.769,0.218l32.869-18.528
	c3.609-2.035,8.182-0.757,10.216,2.851c2.034,3.608,0.758,8.182-2.851,10.216l-16.054,9.049c4.73,1.182,9.213,2.625,13.415,4.286
	l14.547-8.2c3.609-2.034,8.182-0.757,10.216,2.851c2.034,3.608,0.758,8.183-2.851,10.216l-6.037,3.403
	c9.265,6.313,15.627,14.07,17.871,22.606h-55.681c-2.342-3.887-6.591-6.495-11.459-6.495c-7.392,0-13.384,5.992-13.384,13.384
	s5.992,13.384,13.384,13.384c4.338,0,8.183-2.073,10.629-5.273h56.14c-2.645,8.489-9.374,16.163-18.965,22.345l24.879,36.337
	C250.881,186.463,249.424,194.242,243.728,198.143z"/>
<g>
</g>
<g>
</g>
<g>
</g>
<g>
</g>
<g>
</g>
<g>
</g>
<g>
</g>
<g>
</g>
<g>
</g>
<g>
</g>
<g>
</g>
<g>
</g>
<g>
</g>
<g>
</g>
<g>
</g>
</svg>
