<?xml version="1.0" encoding="utf-8"?>
<!-- Generator: Adobe Illustrator 21.0.0, SVG Export Plug-In . SVG Version: 6.00 Build 0)  -->
<svg version="1.1" id="Layer_1" xmlns="http://www.w3.org/2000/svg" xmlns:xlink="http://www.w3.org/1999/xlink" x="0px" y="0px"
	 width="68.171px" height="50px" viewBox="0 0 68.171 50" style="enable-background:new 0 0 68.171 50;" xml:space="preserve">
<style type="text/css">
	.st0{fill:#B2BA21;}
	.st1{fill:#544E47;}
</style>
<path class="st0" d="M67.6,25.37c-0.7-0.05-1.4,0.08-2.12,0.06c-2.2,0.06-4.43-0.3-6.5-1.1c-0.17-0.1-0.4-0.15-0.5-0.36
	c-0.35-0.67-0.5-1.4-0.67-2.14c0.83-1.1,1.04-2.5,0.95-3.83c-0.15-2.14-0.7-4.22-1.3-6.28c-0.7,0.92-1.13,2-1.43,3.1
	c-1.04-0.43-2.13-0.73-3.23-0.97c-0.02,0.37-0.03,0.73-0.03,1.1c1.05,0.3,2.08,0.64,3.07,1.1c-0.12,1.75,0.2,3.55,1.1,5.08
	c0.5,0.75,0.55,1.68,0.8,2.53c-2.26-1-4.07-3-4.84-5.33c-0.6-1.97-0.57-4.1-0.26-6.12c0.13-0.5,0.16-1.1,0.48-1.54
	c0.74-0.2,1.53-0.46,2.3-0.28c2.12,0.33,4.26-0.34,6.08-1.4c0.9-0.55,1.8-1.2,2.45-2.06c-1.14,0.04-2.28,0.17-3.4,0.3
	c-1.42,0.18-2.87,0.45-4.08,1.25c-0.57,0.34-1.02,0.84-1.57,1.2c-0.52,0.26-1.12,0.3-1.68,0.42c0.68-1.7,1.82-3.17,3.26-4.28
	c1.5,0.32,3-0.3,4.25-1.07c1.82-1.1,3.4-2.53,4.98-3.94c-2.44-0.35-5,0.3-6.96,1.8c-1.04,0.76-1.83,1.78-2.52,2.85
	c-1,0.77-1.92,1.66-2.7,2.68c-0.04-0.66-0.17-1.3-0.3-1.94c0.23-0.34,0.6-0.6,0.7-1.02c0.17-0.8-0.22-1.67-0.93-2.06
	c-0.8-0.42-1.94,0-2.2,0.9c-0.42,1.16,0.64,2.6,1.92,2.3c0.23,1.07,0.55,2.26,0.02,3.3c-0.28,0.6-0.48,1.24-0.75,1.85
	c-0.2-0.34-0.52-0.66-0.5-1.07c0.02-0.98-0.24-1.96-0.77-2.78c-1.13-1.84-3.1-3.04-5.18-3.53c0.82,1.54,1.58,3.13,2.57,4.58
	c0.7,1.02,1.63,2.02,2.92,2.17c0.5,0.84,0.9,1.8,0.63,2.8c-1.03-0.16-2.06-0.27-3.1-0.4c0.22,0.35,0.4,0.72,0.66,1.03
	c0.78,0.17,1.57,0.26,2.35,0.4c-0.04,1.25-0.02,2.5,0.3,3.7c0.12,0.5,0.37,0.97,0.36,1.5c-0.73-0.3-1.4-0.7-2.03-1.16
	c-0.6-3.57-2.8-6.58-5.1-9.27c-0.18,1.15-0.17,2.32-0.07,3.47c-0.84-0.16-1.73-0.2-2.52-0.54c-0.35-0.55-0.58-1.17-0.8-1.8
	c-0.12-0.23,0.04-0.47,0.1-0.7c0.53-1.37,0.3-2.88,0-4.27c-0.5-1.9-1.24-3.76-2.07-5.55c-0.03,0-0.1-0.04-0.13-0.05
	c-0.55,1.25-0.97,2.6-0.95,3.97c-0.05,2.18,1,4.2,2.13,5.98c0.46,0.65,0.7,1.4,0.94,2.15c-2.18-0.65-3.85-2.46-4.82-4.46
	c-0.43-1.1-1.2-2.02-2.16-2.7c-1.96-1.45-4.45-2.06-6.87-1.96c1.16,1.26,2.34,2.53,3.77,3.48c1.3,0.88,2.87,1.23,4.42,1.4
	c0.34,0,0.58,0.25,0.72,0.54c0.63,1.22,1.5,2.3,2.56,3.18c-0.6-0.12-1.2-0.22-1.72-0.58c-2.22-1.35-5-1.36-7.45-0.7
	c-0.83,0.23-1.72,0.38-2.43,0.9c1.56,1.18,3.55,1.8,5.52,1.68c1.56-0.06,3.05-0.57,4.5-1.08c1.27,0.14,2.5,0.48,3.67,0.98
	c1.2,0.5,2.47,0.76,3.74,0.97c0.4,1.78,1.2,3.6,2.73,4.68c0.62,0.46,1.4,0.64,2.12,0.84c0.76,0.4,1.48,0.88,2.27,1.22
	c0.77,0.32,1.07,1.18,1.6,1.78c-0.54,0.04-1.08,0.1-1.6,0.17c-0.68-0.93-2.13-0.88-2.83-0.02c-0.68,0.76-0.32,2.12,0.64,2.46
	c1.2,0.5,2.77-0.63,2.37-1.97c0.67-0.12,1.35-0.15,2.02-0.03c1.6,1.62,3.7,2.72,5.87,3.38c2.5,0.72,5.2,1.02,7.8,0.64
	c0.02-0.56-0.25-1.1-0.56-1.55L67.6,25.37z M57.42,20.67c-0.37-0.9-0.4-1.9-0.47-2.86c-0.02-1.34-0.02-2.72,0.27-4.04
	c0.1,1.7,0.22,3.4,0.3,5.1c0.03,0.6,0,1.22-0.1,1.82V20.67z M62.02,7.82c-1.7,1.07-3.68,1.67-5.66,1.96L56.33,9.6
	c1.94-0.47,3.77-1.26,5.7-1.78H62.02z M59.18,3.56c1.34-0.8,2.78-1.5,4.32-1.86c-0.7,0.52-1.55,0.84-2.3,1.28
	c-1.32,0.67-2.57,1.46-3.92,2.03c0.54-0.6,1.23-1,1.9-1.44L59.18,3.56z M51.58,4.42c-0.5-0.34,0.1-0.78,0.48-0.87
	c0.37-0.1,0.7,0.12,1,0.3c-0.55,0-1.07,0.18-1.47,0.57H51.58z M49.04,7.77c-0.65-0.87-1.42-1.63-2.14-2.43
	c1.77,1.1,3.3,2.75,4.03,4.73c-0.73-0.68-1.26-1.54-1.9-2.3H49.04z M40.16,6.64c-0.34-1.5-0.55-3.06-0.4-4.6
	c0.45,2.38,1.07,4.73,1.35,7.14c-0.48-0.77-0.7-1.67-0.94-2.54H40.16z M32.3,5.3c-0.86-0.53-1.74-1-2.55-1.57
	c2.23,0.6,4.37,1.73,6.02,3.36c-1.24-0.44-2.35-1.15-3.48-1.8L32.3,5.3z M31.36,11.55c-0.61-0.04-1.23-0.1-1.83-0.27
	c2.3-0.17,4.64-0.2,6.94,0.1c-1.67,0.36-3.4,0.3-5.1,0.17H31.36z M46.92,14.93c-0.5-1.14-0.97-2.3-1.15-3.54
	c0.57,1.2,1.1,2.43,1.78,3.58c0.57,1.05,1.25,2.05,1.68,3.18c-1.07-0.82-1.73-2.05-2.3-3.23L46.92,14.93z M50.06,23.33l-0.3-0.3
	c0.4-0.62,1.2-0.8,1.83-0.48c-0.56,0.2-1.13,0.36-1.54,0.8L50.06,23.33z"/>
<path class="st0" d="M59.04,16.46c0.1,0.63,0.16,1.26,0.18,1.9c1.04,1.05,1.75,2.36,2.44,3.66c0.48-0.02,0.97-0.15,1.4-0.36
	C62.26,19.59,60.78,17.82,59.04,16.46z M21.6,47.4v2.55h0.55v-2.57L21.6,47.4z M40.14,47.4v1.56c-0.4-0.52-0.8-1.04-1.18-1.56h-0.53
	v2.55H39v-1.6l1.2,1.6h0.5c-0.02-0.86,0-1.7-0.02-2.56h-0.54V47.4z M47.24,49.95h0.55c0-0.85-0.02-1.7,0-2.54h-0.56v2.55
	L47.24,49.95z M57.15,48.4H56.1v-1h-0.54v2.54c0.18,0,0.36,0,0.55,0.02v-1.04h1.05v1.02h0.57V47.4h-0.58
	C57.15,47.4,57.15,48.4,57.15,48.4z M63.94,47.4v1.5c-0.44-0.47-0.82-1-1.2-1.5h-0.5v2.55h0.54v-1.62c0.4,0.5,0.76,1.06,1.2,1.55
	l0.5,0.12v-2.6C64.48,47.4,63.94,47.4,63.94,47.4z M23.34,47.9h0.8c0,0.68,0,1.36-0.02,2.04c0.14,0,0.42,0,0.56,0.02v-2.04
	c0.25,0,0.5,0,0.75-0.04c0-0.12,0.04-0.36,0.05-0.48h-2.13v0.5H23.34z M27.17,47.37l-1.1,2.6c0.14-0.02,0.45-0.03,0.6-0.04
	c0.06-0.2,0.12-0.37,0.2-0.55h1.05c0.15,0.38,0.37,0.7,0.86,0.6c-0.35-0.87-0.74-1.72-1.1-2.6h-0.5L27.17,47.37z M27.07,48.87
	l0.33-0.8l0.36,0.8h-0.7H27.07z M30.45,47.4H29.9v2.55h1.84v-0.5h-1.3V47.4H30.45z M32.9,47.4v2.55h0.57V47.4h-0.58H32.9z
	 M35.7,47.38c-0.37,0.86-0.72,1.72-1.1,2.57h0.6l0.2-0.57h1.1l0.22,0.56h0.6c-0.38-0.84-0.74-1.7-1.1-2.57H35.7V47.38z M35.6,48.88
	l0.34-0.8l0.37,0.8h-0.7H35.6z M46.1,47.37c-0.83-0.17-1.2,0.67-1.72,1.13v-1.1h-0.57c0,0.85,0,1.7,0.02,2.54h0.56
	c0-0.4-0.02-0.8,0.27-1.12l0.82,1.13h0.67c-0.35-0.5-0.72-1-1.1-1.48c0.37-0.36,0.73-0.72,1.07-1.1L46.1,47.37z M51.04,47.41
	c-0.68-0.03-1.37,0-2.06,0v0.5h0.78v2.04h0.56v-2.03h0.84l-0.12-0.48V47.41z M52.6,48.84c-0.17-0.84,0.86-1.26,1.45-0.72l0.34-0.4
	c-0.5-0.38-1.24-0.53-1.8-0.16c-0.75,0.47-0.76,1.7-0.02,2.2c0.57,0.4,1.34,0.23,1.84-0.2l-0.36-0.36
	C53.57,49.6,52.75,49.55,52.6,48.84z M61,47.4h-1.95v2.54H61v-0.5h-1.4l0.02-0.54h1.2v-0.5c-0.4,0-0.8,0-1.2,0.02v-0.53h1.33
	l0.06-0.5L61,47.4z"/>
<path class="st1" d="M23.38,25.24c1.24,0.37,2.6-0.1,3.48-1c-0.2-0.58-0.43-1.16-0.68-1.72c-0.45,0.4-0.86,0.92-1.48,1.08
	c-0.56,0.17-1.22-0.02-1.56-0.5c-0.48-0.67-0.56-1.53-0.58-2.33c-0.02-1.55,0-3.1-0.02-4.64c-0.56-0.02-1.13-0.02-1.7,0
	c0.03,1.95-0.1,3.92,0.1,5.87c-0.8,1.1-2.15,1.88-3.53,1.6c-0.57-0.1-0.93-0.6-1.23-1.05c1.62-2.42,2.7-5.26,2.8-8.2
	c0.03-1.22-0.15-2.6-1.1-3.48c-0.74-0.75-2.05-0.7-2.8,0.04c-0.85,0.85-1.02,2.14-1.08,3.3c0,2-0.02,4.03,0,6.05
	c0.08,1.47,0.35,3.07,1.43,4.16c0.98,1,2.5,1.13,3.8,0.8c0.9-0.2,1.65-0.73,2.34-1.32c0.45,0.62,1.05,1.18,1.8,1.36L23.38,25.24z
	 M15.7,14.54c0-0.9,0.07-1.94,0.78-2.6c0.85,0.63,0.8,1.8,0.77,2.76c-0.16,2-0.64,3.97-1.54,5.75v-5.9L15.7,14.54z M10.97,23.76
	c1.44-1.53,2-3.7,1.94-5.77c-0.03-2-0.5-4.12-1.85-5.66c-1-1.17-2.57-1.8-4.1-1.68c-1.2,0.03-2.43,0.7-2.92,1.84
	c-0.6,1.28-0.2,3,1,3.76c1.23,0.8,2.85,0.54,4.08-0.1l-0.6-1.53c-0.77,0.26-1.64,0.63-2.42,0.25c-0.9-0.46-0.77-1.9,0.12-2.3
	c1.2-0.55,2.7-0.07,3.54,0.9c1,1.15,1.36,2.7,1.46,4.18c0.1,1.67-0.22,3.5-1.36,4.78c-1.7,1.96-5.12,1.96-6.77-0.05
	c-1.9-2.34-1.75-5.97,0.07-8.3c-0.2-0.6-0.44-1.17-0.7-1.73c-1.93,1.79-2.69,4.55-2.41,7.05c0.18,1.78,0.93,3.55,2.3,4.73
	c2.38,2.1,6.43,1.96,8.6-0.37L10.97,23.76z"/>
<path class="st1" d="M22.67,13.85c0.2-0.8-0.8-1.47-1.48-1.02c-0.58,0.3-0.65,1.2-0.14,1.6c0.54,0.5,1.52,0.15,1.6-0.58H22.67z
	 M29.8,25.25c1.52-1.94,2.87-4.15,3.14-6.65c0.4,0.37,0.83,0.74,1.26,1.1c-0.15,1.32,0,2.74,0.78,3.85c0.85,1.3,2.46,1.92,3.98,1.8
	c1.45-0.03,2.8-0.7,3.83-1.7c-0.22-0.57-0.45-1.14-0.7-1.7c-0.64,0.55-1.22,1.2-2.04,1.47c-1.07,0.37-2.42,0.38-3.3-0.45
	c-0.64-0.58-0.87-1.48-0.93-2.33c1.58,0.67,3.57,0.82,4.97-0.3c1.22-0.96,1.3-2.96,0.22-4.03c-1.06-1.03-2.78-1.16-4.1-0.58
	c-1.02,0.43-1.74,1.33-2.24,2.3c-0.8-0.68-1.48-1.46-2.15-2.26c-0.55-0.02-1.1,0.3-1.63,0.45c0.94,2.45-0.2,5.06-1.64,7.05
	c-0.86-2.45-1.83-4.86-3.07-7.15c-0.64,0-1.27,0-1.9,0.05c1.57,2.9,2.9,5.93,3.85,9.1h1.65L29.8,25.25z M38.1,17.15
	c0.65-0.13,1.47-0.04,1.85,0.57c0.3,0.5,0.04,1.2-0.5,1.45c-1.04,0.54-2.26,0.23-3.28-0.2c0.32-0.86,1-1.67,1.94-1.83L38.1,17.15z
	 M17.24,32.4c-0.04,1-0.17,2-0.6,2.9c-0.52,1.25-1.54,2.32-2.86,2.72c-1.35,0.4-2.94,0.25-4.07-0.64c-0.9-0.7-1.43-1.8-1.62-2.92
	c-0.27-1.78,0.02-3.73,1.15-5.2c1.2-1.6,3.53-2.23,5.35-1.4c0.96,0.4,1.43,1.63,1,2.6c-0.2,0.56-0.73,0.87-1.14,1.26
	c0.14,0.52,0.38,1,0.58,1.52c1.45-0.56,2.5-2.06,2.42-3.63c0.02-1.45-0.95-2.82-2.28-3.37c-2.68-1.12-6.1-0.1-7.62,2.4
	c-1.13,1.78-1.47,3.98-1.17,6.04c0.23,1.42,0.86,2.8,1.93,3.8c1.6,1.46,4.02,1.82,6.04,1.14c1.18-0.4,2.13-1.26,2.87-2.24
	c-0.02,1.4,0.16,2.86-0.4,4.17c-0.25,0.63-0.85,1.12-1.55,1.14c-0.7,0.1-1.3-0.28-1.87-0.63l-0.65,1.6c1.4,1,3.5,1.02,4.78-0.16
	c1.13-1.06,1.38-2.7,1.42-4.18c0-2.3,0.02-4.6,0-6.9h-1.68L17.24,32.4z M66.73,37.43c-0.44,0.47-1.16,0.82-1.77,0.5
	c-0.62-0.5-0.45-1.4-0.48-2.1c-0.05-1.4,0.22-2.92-0.5-4.2c-0.62-1.1-2-1.5-3.18-1.36c-0.8,0.08-1.52,0.52-2.15,1.02v-0.93
	c-0.56-0.02-1.13-0.02-1.7,0v3.56c0,0.4,0.04,0.83-0.16,1.2c-0.66,1.35-1.85,2.54-3.36,2.83c-0.95,0.18-2.07,0.1-2.8-0.6
	c-0.52-0.48-0.7-1.2-0.85-1.86c1.45,0.47,3.2,0.7,4.54-0.22c1.4-0.9,1.66-3.14,0.4-4.3c-1.56-1.48-4.3-0.97-5.58,0.66
	c-1.24,1.55-1.35,3.77-0.65,5.57c-0.4,0.4-0.92,0.96-1.55,0.7c-0.66-0.36-0.73-1.22-0.78-1.9c-0.03-3.4,0-6.83-0.02-10.26h-1.68
	c-0.02,1.77,0,3.53,0,5.3c-0.97-0.74-2.22-1.14-3.42-0.84c-1.53,0.26-2.67,1.6-3,3.07c-0.4,1.7-0.27,3.66,0.83,5.08
	c0.97,1.27,2.8,1.7,4.28,1.2c0.74-0.25,1.33-0.8,1.85-1.35c0.4,0.65,0.97,1.3,1.76,1.43c1.04,0.24,2-0.37,2.74-1.05
	c1.3,1.2,3.27,1.45,4.9,0.88c1.03-0.35,1.85-1.1,2.56-1.9v1.98h1.68c0.05-1.4,0-2.8,0.02-4.23c0.03-1.12,0.5-2.28,1.43-2.96
	c0.56-0.43,1.36-0.52,2-0.2c0.4,0.2,0.6,0.67,0.64,1.1c0.12,1.38-0.07,2.78,0.1,4.15c0.13,1.1,0.98,2.18,2.15,2.3
	c1.18,0.24,2.35-0.36,3.14-1.22c-0.24-0.52-0.42-1.05-0.67-1.56c-0.33-0.02-0.5,0.35-0.74,0.5L66.73,37.43z M51.2,32.1
	c0.72-0.34,1.7-0.45,2.33,0.1c0.57,0.47,0.34,1.47-0.32,1.76c-1.04,0.52-2.27,0.16-3.27-0.3c0.3-0.6,0.65-1.24,1.28-1.55L51.2,32.1z
	 M43.5,37.4c-0.87,0.92-2.56,0.86-3.3-0.18c-0.65-0.92-0.74-2.12-0.57-3.2c0.15-0.86,0.62-1.77,1.5-2.07
	c0.73-0.25,1.62-0.15,2.2,0.37c0.72,0.6,1,1.57,1,2.47c0.05,0.92-0.17,1.92-0.84,2.6L43.5,37.4z"/>
<path class="st1" d="M39.5,40.84c-1.14-0.43-2-1.45-2.38-2.6c-0.67-1.88-0.3-3.9-0.45-5.85c-0.06-0.74-0.5-1.43-1.2-1.72
	c-0.92-0.43-1.97-0.06-2.92-0.37c-0.45-0.1-0.72-0.5-1-0.85c-0.52,0.16-1.04,0.32-1.56,0.5c0.56,1.96,0.72,4.03,0.5,6.06
	c-0.1,0.64-0.2,1.32-0.62,1.8c-0.3,0.34-0.86,0.3-1.14-0.03c-0.5-0.58-0.5-1.4-0.56-2.12v-5.3c-0.55,0-1.1-0.03-1.63,0
	c-0.04,0.2-0.08,0.4-0.1,0.62c-1.38-1.1-3.5-1.16-4.9-0.08c-1.08,0.82-1.57,2.22-1.65,3.55c-0.08,1.42,0.2,2.97,1.17,4.07
	c0.97,1.12,2.64,1.48,4.04,1.05c0.78-0.24,1.4-0.8,1.92-1.37c0.3,0.42,0.58,0.87,1.03,1.15c0.95,0.65,2.4,0.5,3.14-0.4
	c0.73-0.86,0.93-2.02,1.05-3.12c0.1-1.3,0.06-2.6-0.1-3.87c0.7,0.17,1.44,0.23,2.16,0.2c0.26,0,0.66,0.05,0.66,0.38
	c0.1,1.82-0.13,3.68,0.3,5.47c0.36,1.54,1.2,3,2.54,3.87c1.62,1.1,3.72,1.2,5.57,0.75c-0.05-0.57-0.36-1.07-0.57-1.6
	c-1.1,0.18-2.25,0.23-3.3-0.18V40.84z M25.67,37.24c-0.8,1.1-2.68,1.08-3.46-0.05c-0.63-0.96-0.7-2.2-0.5-3.3
	c0.16-0.8,0.62-1.64,1.43-1.94c0.94-0.36,2.1-0.04,2.65,0.82c0.86,1.3,0.85,3.2-0.1,4.45L25.67,37.24z"/>
</svg>
