<?xml version="1.0" encoding="utf-8"?>
<!-- Generator: Adobe Illustrator 14.0.0, SVG Export Plug-In . SVG Version: 6.00 Build 43363)  -->
<!DOCTYPE svg PUBLIC "-//W3C//DTD SVG 1.1//EN" "http://www.w3.org/Graphics/SVG/1.1/DTD/svg11.dtd">
<svg version="1.1" id="Layer_1" xmlns="http://www.w3.org/2000/svg" xmlns:xlink="http://www.w3.org/1999/xlink" x="0px" y="0px"
	 width="250px" height="134.318px" viewBox="0 0 250 134.318" enable-background="new 0 0 250 134.318" xml:space="preserve">
<g>
	<path d="M250,107.308c0,14.923-12.104,27.028-27.029,27.028H27.03C12.103,134.336,0,122.23,0,107.308V27.033
		C0,12.109,12.103,0.007,27.03,0.007h195.94C237.896,0.007,250,12.109,250,27.033V107.308"/>
	<path fill="#FFFFFF" d="M222.974,6.168H27.03c-11.504,0-20.868,9.364-20.868,20.865v80.274c0,11.505,9.364,20.868,20.868,20.868
		h195.943c11.503,0,20.866-9.363,20.866-20.868V27.033C243.84,15.533,234.477,6.168,222.974,6.168 M241.081,107.308
		c0,9.984-8.122,18.112-18.107,18.112H27.03c-9.984,0-18.109-8.128-18.109-18.112V27.033c0-9.984,8.125-18.106,18.109-18.106
		h195.943c9.985,0,18.107,8.122,18.107,18.106V107.308z"/>
	<rect x="162.491" y="55.716" fill="#E4503C" width="15.058" height="36.054"/>
	<path fill="#E4503C" d="M197.304,54.455c-8.853,0.148-15.127,5.864-15.438,11.107c-0.095,3.469,1.395,7.008,6.952,10.007
		c2.879,1.558,8.347,2.13,10.958,3.608c0.982,0.597,1.644,1.829,1.644,2.912c0,1.151-0.927,2.057-2.49,2.057
		c-1.682,0-2.026-1.36-2.021-3.707l0.004-1.765h-14.901v0.949c0,2.564,0,5.219,1.588,7.294c3.021,3.756,8.495,5.979,14.305,5.827
		c3.743,0,11.871-1.169,15.625-5.655c0.97-1.164,2.876-3.374,2.876-7.045c0-0.981-0.158-4.334-2.233-6.409
		c-1.813-1.823-4.448-3.52-10.744-5.012c-4.957-1.175-6.804-1.857-6.567-4.316c0.04-0.464,0.314-1.535,2.042-1.535
		c1.773,0,2.22,1.727,2.22,2.566v0.939h14.202l-0.037-0.975C214.979,57.075,205.794,54.304,197.304,54.455"/>
	<path fill="#E4503C" d="M47.469,68.836v11.907c0,9.055,8.487,12.281,16.429,12.281c7.794,0,12.084-1.73,14.354-5.794
		c1.015-1.752,1.454-5.013,1.378-8.775v-0.898H66.304v5.087c0,1.422-1.029,1.927-1.908,1.927c-0.77,0-2.066-0.434-2.066-2.069
		V64.636c0-1.63,1.296-2.067,2.066-2.067c0.879,0,1.908,0.506,1.908,1.929v4.44h13.604v-0.834c0-2.831-0.433-6.199-1.787-8.046
		c-1.577-2.146-4.614-5.602-15.062-5.602C53.299,54.456,47.469,59.832,47.469,68.836"/>
	<polygon fill="#E4503C" points="103.284,55.714 103.284,65.939 98.576,65.939 98.576,55.714 83.519,55.714 83.519,91.765 
		98.576,91.765 98.576,77.342 103.284,77.342 103.284,91.765 118.334,91.765 118.334,55.714 	"/>
	<path fill="#E4503C" d="M151.73,77.545c3.199-1.971,5.03-5.635,5.03-10.264c0-5.562-4.497-11.567-11.767-11.567h-22.075v36.051
		h15.055V80.647l5.243,11.117h16.587C159.804,91.765,152.543,78.979,151.73,77.545 M138.919,71.166h-0.924v-7.801h0.924
		c2.288,0,3.479,1.974,3.479,3.917C142.398,69.509,140.56,71.166,138.919,71.166"/>
	<polygon fill="#FFFFFF" points="98.925,99.133 105.262,99.133 105.262,104.503 111.593,99.133 118.771,99.133 111.593,105.768 
		118.488,116.929 111.735,116.929 107.369,109.722 105.262,111.843 105.262,116.929 98.925,116.929 	"/>
	<polygon fill="#FFFFFF" points="59.012,99.133 74.472,99.133 74.472,103.545 65.393,103.545 65.393,105.962 73.054,105.962 
		73.054,110.094 65.393,110.094 65.393,112.655 74.472,112.655 74.472,116.929 59.012,116.929 	"/>
	<polygon fill="#FFFFFF" points="39.58,99.133 56.743,99.133 56.743,103.973 51.21,103.973 51.21,116.929 44.968,116.929 
		44.968,103.973 39.58,103.973 	"/>
	<path fill="#FFFFFF" d="M83.351,99.133h6.475l6.895,17.796h-6.336l-0.703-2.261h-6.047l-0.703,2.261h-6.195L83.351,99.133z
		 M84.76,109.866h3.799l-1.829-4.52L84.76,109.866z"/>
	<polygon fill="#FFFFFF" points="213.556,99.133 229.012,99.133 229.012,103.545 219.932,103.545 219.932,105.962 227.595,105.962 
		227.595,110.094 219.932,110.094 219.932,112.655 229.012,112.655 229.012,116.929 213.556,116.929 	"/>
	<path fill="#FFFFFF" d="M32.126,104.386c-0.325-2.281-4.269-2.281-4.75-0.994c-0.455,1.173,1.564,1.709,3.688,1.988
		c4.253,0.853,6.949,2.564,7.09,5.835c0.145,4.134-4.112,6.269-8.368,6.269c-4.54,0-8.794-1.571-8.794-6.121h5.463
		c0.57,1.563,2.197,1.989,3.616,1.989c1.986,0,2.837-1.989,0.71-2.562c-4.683-1.14-10.213-1.992-9.361-7.398
		c0.283-2.852,2.976-5.126,7.941-5.126c3.688,0,7.516,1.28,8.229,6.12H32.126"/>
	<path fill="#FFFFFF" d="M205.126,104.386c-0.322-2.281-4.271-2.281-4.751-0.994c-0.452,1.173,1.562,1.709,3.686,1.988
		c4.256,0.853,6.952,2.564,7.094,5.835c0.146,4.134-4.113,6.269-8.371,6.269c-4.532,0-8.79-1.571-8.79-6.121h5.462
		c0.566,1.563,2.198,1.989,3.615,1.989c1.985,0,2.838-1.989,0.711-2.562c-4.687-1.14-10.217-1.992-9.363-7.398
		c0.286-2.852,2.978-5.126,7.943-5.126c3.688,0,7.519,1.28,8.227,6.12H205.126"/>
	<path fill="#FFFFFF" d="M173.297,99.133h6.051v11.3c0,4.381,5.769,4.517,5.769,0v-11.3h6.192v11.3c0,4.664-3.374,7.063-9.006,7.063
		c-5.77,0-9.006-2.398-9.006-7.487V99.133"/>
	<polygon fill="#FFFFFF" points="131.007,99.133 137.344,99.133 137.344,105.208 142.685,105.208 142.685,99.133 149.019,99.133 
		149.019,116.929 142.685,116.929 142.685,110.148 137.344,110.148 137.344,116.929 131.007,116.929 	"/>
	<path fill="#FFFFFF" d="M161.24,98.443c13.229,0,13.652,19.07,0.281,19.07C147.73,117.514,148.012,99.004,161.24,98.443
		 M161.521,103.247c-2.109,0-3.658,1.551-3.658,4.802c0,3.39,1.266,5.225,3.658,5.225c2.111,0,3.374-1.977,3.374-5.225
		C164.896,104.656,163.069,103.247,161.521,103.247"/>
	<path fill="#FFFFFF" d="M129.196,26.475h5.173v5.237c0,0.747-0.518,2.209-1.211,3.247h-3.278c1.271-1.579,1.214-2.59,1.214-2.768
		h-1.897V26.475"/>
	<path fill="#FFFFFF" d="M27.343,48.285V25.948h13.042c11.65,0,10.779,12.917,4.344,14.487l4.349,7.85h-8.342l-3.658-6.8h-2.087v6.8
		H27.343 M34.991,36.772h4.178c3.474,0,3.474-6.107,0-6.107h-4.178V36.772z"/>
	<polygon fill="#FFFFFF" points="78.892,26.472 99.932,26.472 99.932,32.407 93.151,32.407 93.151,48.285 85.497,48.285 
		85.497,32.407 78.892,32.407 	"/>
	<path fill="#FFFFFF" d="M149.874,32.931c-0.397-2.8-5.237-2.8-5.825-1.224c-0.558,1.441,1.912,2.097,4.523,2.441
		c5.209,1.05,8.539,3.15,8.694,7.155c0.187,5.062-5.044,7.685-10.263,7.685c-5.563,0-10.775-1.924-10.775-7.508h6.696
		c0.689,1.917,2.688,2.44,4.434,2.44c2.432,0,3.473-2.44,0.862-3.136c-5.739-1.404-12.522-2.447-11.476-9.078
		c0.348-3.493,3.652-6.282,9.739-6.282c4.52,0,9.214,1.57,10.089,7.506H149.874"/>
	<path fill="#FFFFFF" d="M52.938,26.475h7.421v13.856c0,5.367,7.072,5.536,7.072,0V26.475h7.591v13.856
		c0,5.713-4.143,8.658-11.043,8.658c-7.076,0-11.041-2.945-11.041-9.178V26.475"/>
	<polygon fill="#FFFFFF" points="103.935,26.47 111.703,26.47 111.703,33.917 118.254,33.917 118.254,26.47 126.02,26.47 
		126.02,48.287 118.254,48.287 118.254,39.977 111.703,39.977 111.703,48.287 103.935,48.287 	"/>
	<path fill="#FFFFFF" d="M219.597,87.458h0.422c0.286,0,0.422,0.148,0.422,0.572c0,0.142-0.136,0.567-0.422,0.567h-0.422V87.458
		 M219.597,89.17h0.139c0.853,0,0.705,0.419,0.705,0.989c0,0.285,0,0.566,0.147,0.852h0.988c-0.139-0.141-0.139-0.994-0.139-1.28
		c0-0.853-0.711-0.853-0.85-0.853c0.563-0.14,0.85-0.563,0.85-1.136c0-0.705-0.427-1.131-1.133-1.131h-1.699v4.399h0.991V89.17z
		 M220.019,91.863c-1.69,0-2.972-1.419-2.972-2.985c0-1.7,1.281-2.978,2.972-2.978c1.558,0,2.975,1.277,2.975,2.978
		C222.993,90.444,221.576,91.863,220.019,91.863 M220.019,85.189c-2.121,0-3.677,1.563-3.677,3.688c0,1.992,1.556,3.697,3.677,3.697
		c1.979,0,3.677-1.705,3.677-3.697C223.695,86.753,221.998,85.189,220.019,85.189"/>
	<path d="M206.764,53.476c-3.915,3.582-7.816,5.794-11.579,6.587c-3.075,0.605-6.971,0.479-10.678-0.348
		c-0.036-0.009-0.514-0.108-0.514-0.108c-0.539-0.135-1.28-0.317-1.727,0.351l-0.222,0.331l0.354,0.174
		c2.137,1.024,4.806,1.58,7.516,1.557h0.055l0.047-0.012c1.293-0.41,2.676-0.454,4.014-0.498c1.952-0.06,3.964-0.14,5.607-1.365
		c2.666-0.986,4.987-2.938,6.902-4.723c0.041-0.039,0.182-0.214,0.182-0.214c0.284-0.345,0.653-0.791,0.666-1.245
		c0.003-0.126-0.016-0.25-0.074-0.373l-0.193-0.435L206.764,53.476"/>
	<path d="M164.428,35.414c-0.38,0.969-0.446,1.88-0.481,2.891c-0.003,0.142-0.03,1.059-0.03,1.059
		c-0.049,0.219-0.073,0.433-0.082,0.641c-0.032,1.002,0.387,1.895,0.796,2.758c0.251,0.53,0.487,1.029,0.62,1.549
		c0,0.016,0.099,0.744,0.099,0.744c0.058,0.381,0.116,0.753,0.107,1.095c-0.01,0.302-0.077,0.582-0.253,0.819l-0.099,0.132
		l0.037,0.157c0.609,2.375,1.602,4.667,2.873,6.631c0.276,0.605,0.751,1.15,1.203,1.673c0.401,0.454,0.801,0.924,1.093,1.454
		c4.15,4.445,8.217,7.055,12.852,8.282c0.031,0,1.207,0.273,1.207,0.273c0.797,0.202,1.622,0.411,2.629,0.445
		c1.371-0.186,2.688-0.151,4.086-0.111c2.241,0.068,4.556,0.132,6.928-0.759c0.036-0.015,1.508-0.734,1.508-0.734
		c4.56-2.226,9.729-4.745,12.365-9.133l0.009-0.021l0.021-0.063l0.175-0.425c0.194-0.413,0.484-1.041-0.092-1.489l-0.212-0.163
		l-0.207,0.157c-0.957,0.719-1.751,1.669-2.589,2.671c-0.862,1.033-1.759,2.1-2.876,2.957c-4.531,3.408-9.408,5.211-14.904,5.523
		c-6.795,0.568-13.664-2.457-21.017-9.238c-3.447-5.939-4.517-13.279-5.104-19.682l-0.132-1.453L164.428,35.414"/>
	<path d="M170.394,29.826c-1.348,2.891-2.133,5.688-2.33,8.33c-0.323,2.991,0.043,6.161,1.001,8.686
		c0.024,0.051,1.416,2.632,1.416,2.632c1.536,2.948,2.989,5.731,6.103,7.762c0.006,0.003,0.837,0.571,0.837,0.571l1.607,0.987
		l0.049-0.006c0.154,0.021,0.483,0.066,0.681-0.174c0.056-0.066,0.104-0.164,0.11-0.299c0.004-0.075-0.006-0.165-0.045-0.271
		l-0.038-0.098l-0.076-0.063c-2.74-2.067-5.32-4.022-7.122-6.961c-0.12-0.476-0.391-0.927-0.687-1.393l-0.582-1.029
		c-0.428-0.825-0.671-1.639-0.924-2.494c-0.298-0.987-0.609-2.001-1.2-3.003c-0.139-0.968-0.182-1.924-0.147-2.875
		c0.169-4.758,2.257-9.335,4.125-13.45c0,0,0.563-0.99,0.379-1.125c-0.188-0.139-0.964,0.77-0.964,0.77
		C171.998,27.067,171.114,28.477,170.394,29.826"/>
	<path fill="#FFFFFF" d="M206.998,53.731c0.197,0.448-0.388,1.05-0.689,1.438c-1.931,1.793-4.215,3.701-6.792,4.653
		c-2.642,2.037-6.294,0.813-9.566,1.847c-2.549,0.016-5.193-0.49-7.349-1.522c0.418-0.625,1.21-0.184,1.875-0.102
		c3.461,0.776,7.417,1.019,10.807,0.343C199.818,59.438,203.824,56.635,206.998,53.731"/>
	<path fill="#FFFFFF" d="M182.06,14.569c3.784-1.141,8.125-1.639,11.826-1.195c1.564,0.571,3.128,1.138,4.777,0.997
		c4.741,1.101,8.132,3.935,11.303,7.063c2.085,3.95,5.523,7.033,6.151,11.305c-0.213,0.313-0.307,0.656-0.489,0.852
		c-1.758-5.083-4.919-10.827-9.326-14.437c-0.781-1.588-2.985-1.221-3.891-2.352c-1.647-0.719-3.242-1.17-4.96-1.667
		c-5.197-2.106-11.105-0.451-16.715,1.044C180.851,15.341,181.638,15.197,182.06,14.569"/>
	<path fill="#FFFFFF" d="M177.313,16.932c0.591-0.331,1.4-0.589,2.201-0.361c-2.367,0.936-4.357,2.72-6.373,4.621
		c-0.252,0.424-0.696,0.668-0.908,0.978c-1.087,0.801-1.563,2.031-2.35,3.048c-0.443,1.11-1.09,1.663-1.508,2.665
		c-0.782,1.012-1.022,2.308-1.743,3.086c-0.312-0.21-0.558-0.646-0.428-1.104c0.514-1.345,1.13-2.647,2.044-4.121
		c1.099-1.673,2.318-2.937,3.611-4.419C173.448,19.666,175.372,18.111,177.313,16.932"/>
	<path fill="#FFFFFF" d="M164.8,35.654c0.609,6.495,1.715,13.869,5.194,19.819c5.665,5.214,12.935,10.018,21.281,9.309
		c5.775-0.334,10.652-2.282,15.062-5.608c2.219-1.709,3.546-4.191,5.437-5.625c0.505,0.388-0.031,0.98-0.194,1.551
		c-2.851,4.763-8.756,7.286-13.648,9.726c-3.743,1.41-7.386,0.367-10.862,0.86c-1.465-0.051-2.573-0.491-3.746-0.7
		c-5.167-1.357-9.129-4.344-12.629-8.076c-0.647-1.176-1.774-1.991-2.31-3.141c-1.29-1.979-2.248-4.235-2.836-6.507
		c0.607-0.817,0.182-1.93,0.099-2.939c-0.403-1.612-1.739-2.983-1.326-4.839C164.378,38.009,164.323,36.876,164.8,35.654"/>
	<path fill="#FFFFFF" d="M172.783,26.627c-2.38,5.291-4.777,10.751-3.922,16.539c1.12,1.829,1.215,3.71,2.167,5.53
		c0.394,0.893,1.14,1.666,1.293,2.45c1.823,2.938,4.369,4.871,7.226,7.014c0.13,0.354-0.202,0.313-0.372,0.288
		c-0.957-0.46-1.487-0.953-2.349-1.482c-3.917-2.531-5.13-6.246-7.417-10.174c-0.887-2.314-1.337-5.419-1.013-8.521
		c0.2-2.854,1.067-5.625,2.243-8.183C171.314,28.819,172.184,27.4,172.783,26.627"/>
	<path fill="#FFFFFF" d="M211.441,46.239c0.314,0.211,0.384,0.307,0.178,0.619c-0.547,1.625-1.139,3.581-2.293,4.622
		c-0.545-0.322,0.04-0.927,0.175-1.327C210.262,48.799,210.8,47.346,211.441,46.239"/>
	<path fill="#FFFFFF" d="M216.161,39.071c0.72,0.082,0.861,0.864,0.815,1.469c-0.04,0.981-0.188,1.927-0.561,2.813
		c-0.16-0.29-0.19-1.047-0.323-1.453c0.03-0.987-0.422-1.983,0.003-2.6L216.161,39.071"/>
	<path fill="#FFFFFF" d="M215.551,45.09c0.111,0.036,0.487,0.013,0.506,0.391c-0.243,1.29-0.478,2.96-1.445,4.172
		c-0.418-0.243-0.81-0.609-0.594-0.917C214.683,47.689,214.569,45.923,215.551,45.09"/>
	<polygon fill="#FFFFFF" points="196.875,29.231 197.676,30.909 196.579,31.368 195.779,29.688 	"/>
	<path fill="#FFFFFF" d="M190.472,25.032c-0.459-0.605-0.779-0.804-1.293-1.186c-0.462-0.114-0.807-0.198-1.211-0.054
		c-0.286,0.171-0.459,0.37-0.634,0.571c-0.056,0.234-0.259,0.551-0.233,0.924c-0.057,0.231,0.113,0.523,0.258,0.927
		c0.172,0.29,0.459,0.608,0.886,0.839c0.204,0.174,0.576,0.144,1.063,0.141c0.379-0.024,0.864-0.021,1.468,0.006
		c0.465,0.114,0.842,0.085,1.269,0.319c0.228,0.057,0.521,0.378,0.801,0.696c0.403,0.348,0.585,0.64,0.72,1.038
		c0.234,0.549,0.429,1.217,0.309,1.678c0.117,0.521,0,0.987-0.114,1.447c-0.351,0.4-0.554,0.722-0.951,0.864
		c-0.409,0.141-0.692,0.312-1.067,0.34c-0.404,0.142-0.638,0.086-1.127,0.086c-0.201-0.174-0.635-0.405-0.921-0.723
		c-0.426-0.229-0.807-0.693-1.257-1.301l0.635-0.574c0.459,0.605,0.942,1.101,1.486,1.362c0.459,0.112,0.955,0.112,1.358-0.033
		c0.428-0.255,0.749-0.544,0.868-1.008c0.336-0.403,0.229-0.921-0.083-1.618c-0.117-0.52-0.518-0.867-0.858-0.952
		c-0.231-0.06-0.545-0.261-1.035-0.261c-0.493,0-0.982-0.003-1.354,0.024c-0.375,0.029-0.869,0.029-1.068-0.145
		c-0.342-0.088-0.772-0.322-1.06-0.637c-0.147-0.41-0.551-0.756-0.806-1.186c-0.229-0.548-0.225-1.044-0.339-1.564
		c0.114-0.456,0.23-0.921,0.465-1.354c0.23-0.436,0.64-0.581,1.041-0.722c0.172-0.202,0.43-0.259,0.658-0.199
		c0.262-0.057,0.635-0.089,0.985,0c0.2,0.172,0.514,0.378,0.828,0.576c0.317,0.203,0.604,0.531,0.941,1.104L190.472,25.032"/>
	<polygon fill="#FFFFFF" points="187.364,33.464 188.162,35.137 187.035,35.714 186.234,34.044 	"/>
	<path fill="#FFFFFF" d="M179.582,26.459l0.687-0.315l3.004,7.024c0.314,0.688,0.37,1.444,0.484,1.964
		c0.082,0.634,0.052,1.246-0.18,1.673c-0.228,0.433-0.402,0.634-0.957,0.862c-0.258,0.059-0.659,0.202-1.173,0.317
		c-0.348-0.085-0.579-0.148-0.869-0.463c-0.431-0.229-0.744-0.435-1.003-0.864c-0.283-0.322-0.518-0.87-0.742-1.421l-3.119-7.051
		l0.834-0.4l3.206,7.189c0.286,0.813,0.632,1.393,0.941,1.594c0.438,0.232,0.779,0.322,1.325,0.088
		c0.987-0.485,1.249-1.529,0.528-3.06L179.582,26.459"/>
	<polygon fill="#FFFFFF" points="201.782,34.036 205.825,32.107 206.364,33.35 203.158,34.875 204.445,38.024 207.069,36.846 
		207.527,37.94 204.904,39.125 206.619,43 209.936,41.502 210.539,42.511 206.382,44.412 	"/>
	<polygon fill="#FFFFFF" points="192.328,38.032 193.568,37.484 199.236,45.066 197.405,35.873 198.642,35.325 203.239,45.707 
		202.401,46.104 198.43,37.121 200.326,47.058 199.893,47.316 193.651,39.104 197.709,48.234 197.011,48.556 	"/>
	<polygon fill="#FFFFFF" points="194.015,49.763 193.208,50.043 188.603,39.67 189.415,39.384 	"/>
	<path fill="#FFFFFF" d="M174.245,46.116l2.218-1.031c0.406-0.142,0.898-0.142,1.243-0.054c0.462,0.114,0.887,0.348,1.18,0.664
		c0.313,0.204,0.689,0.667,0.918,1.216c0.31,0.69,0.504,1.356,0.651,1.763c0.081,0.629-0.063,1.207-0.181,1.673
		c-0.312,0.291-0.659,0.691-1.211,0.927l-1.385,0.628l1.97,4.304l-0.828,0.407L174.245,46.116 M175.422,46.784l1.773,4.136
		l1.496-0.608c0.292-0.174,0.612-0.458,0.669-0.691c0.199-0.319,0.172-0.689,0.003-0.98c-0.025-0.377-0.17-0.785-0.309-1.186
		c-0.179-0.287-0.317-0.69-0.522-0.861c-0.287-0.328-0.487-0.497-0.719-0.557c-0.342-0.09-0.6-0.033-1,0.112L175.422,46.784z"/>
	<path fill="#FFFFFF" d="M182.516,43.912l1.653,3.613l1.761-0.666c0.406-0.14,0.632-0.58,0.724-0.925
		c0-0.488-0.083-1.121-0.422-1.704c-0.145-0.402-0.545-0.751-0.741-0.925c-0.404-0.346-0.785-0.314-1.189-0.172L182.516,43.912
		 M181.167,42.956l2.45-0.983c0.689-0.316,1.417-0.256,1.928,0.117c0.551,0.268,1.121,0.905,1.635,1.766
		c0.2,0.668,0.283,1.306,0.369,1.938c-0.03,0.612-0.147,1.069-0.492,1.476l3.497,4.08l-0.948,0.369l-3.186-3.872l-1.786,0.779
		l1.937,4.422l-0.687,0.313L181.167,42.956z"/>
	<path fill="#FFFFFF" d="M195.013,17.986c2.127,0.605,4.341,1.141,6.313,2.323c1.774,0.725,3.236,1.841,4.438,3.02
		c0.486,0.222,0.609,0.583,0.921,0.792c0.766,0.604,1.277,1.263,1.712,1.823c1.05,1.744,2.496,3.616,3.041,5.3
		c1.281,3.21,2.171,7.475,1.339,11.267c-0.098,0.072-0.113,0.243-0.113,0.243c-0.409-0.142-0.483-0.237-0.529-0.499
		c0.585-4.498-0.252-8.502-1.777-11.826c-0.451-1.755-1.132-3.026-2.34-4.193c-0.714-0.344-1.062-0.982-1.493-1.542
		c-1.064-0.983-2.231-1.724-3.294-2.705c-3.125-2.087-6.589-2.866-9.83-3.95c-1.506-0.189-2.651-0.502-3.883-0.156
		c-5.196,0.875-9.704,2.258-13.365,5.692c-0.612,0.772-1.229,0.948-1.958,1.365c0.527-1.457,2.158-2.271,3.313-3.314
		c2.685-1.781,5.006-2.669,7.825-3.499c0.859-0.066,1.304-0.265,2.236-0.229C190.062,17.617,192.685,17.692,195.013,17.986"/>
</g>
</svg>
