<svg xmlns="http://www.w3.org/2000/svg" width="575.84" height="198.67">
  <path d="M575.84 198.67H0V0h575.84v198.67" style="fill:#ed1c24;fill-opacity:1;fill-rule:nonzero;stroke:none"/>
  <path d="M86.23 48.45C82.87 42.65 77.99 39 70.5 39c-7.17 0-14.96 5.5-16.18 12.97-3.05 19.38 43.95 11.3 37.85 49.9-3.66 23.05-20.6 39.38-44.1 39.38-15.88 0-26.1-9.16-31.9-22.44l16.79-14.19c1.68 8.85 8.39 16.79 18 16.79 9.16 0 16.18-7.78 17.56-16.63 1.83-11.9-8.55-15.27-17.1-18.78-13.73-6.1-23.5-13.58-20.6-31.43 3.05-19.08 19.69-34.5 39.07-34.5 10.22 0 23.5 5.04 29.3 12.83L86.23 48.45M124.65 63.26l-6.41 40.59c-1.37 8.55-1.68 18.77 9.16 18.77 10.83 0 13.88-10.22 15.26-18.77l6.4-40.6h21.37l-7.02 44.1c-3.5 21.83-16.63 33.28-38.91 33.28-22.28 0-31.75-11.45-28.24-33.27l7.02-44.1h21.37M226.9 100.64c1.52-10.07-3.37-20.9-14.35-20.9-11 0-19.54 10.83-21.06 20.9-1.53 10.08 3.35 21.06 14.34 21.06s19.53-10.98 21.06-21.06zm-28.4-30.52c5.8-5.8 14.2-9.3 22.13-9.3 21.22 0 31.14 19.83 27.93 39.52-3.2 20.45-18.92 40.29-41.05 40.29-7.63 0-15.1-3.36-18.47-9.46h-.3l-7.33 47h-21.36L178.2 63.26h21.36l-1.06 6.86M279.66 71.04h.3c5.34-6.56 12.21-10.23 20.15-10.23 3.05 0 6.1.77 8.54 1.84l-5.64 19.83a13.21 13.21 0 0 0-8.4-2.74c-14.8 0-18.46 13.12-20.3 24.72l-5.34 33.73h-21.36l11.9-74.93h21.37l-1.22 7.78M353.21 90.88c.15-7.63-3.51-15.11-11.75-15.11-8.55 0-14.5 7.32-16.79 15.1zm-31.28 13.27c-1.38 9.47.45 20.15 11.6 20.15 7.01 0 12.2-4.27 16.02-10.23l19.23 3.2c-7.63 14.96-22.13 23.36-37.85 23.36-23.2 0-34.64-16.48-31.13-39.22 3.66-22.74 18.46-40.6 42.73-40.6 24.57 0 32.66 18.16 29.15 40.75l-.46 2.6h-49.3M402.04 69.97h.3a26.6 26.6 0 0 1 19.7-9.16c9.3 0 16.02 3.82 19.68 11.75 5.8-7.32 14.95-11.75 23.65-11.75 19.08 0 21.52 14.35 18.93 30.68l-7.33 46.7h-21.36l6.25-39.38c1.07-7.32 3.82-20.9-6.71-20.9-11.6 0-14.04 15.71-15.26 23.5l-5.8 36.78h-21.37l5.95-38c1.23-7.33 4.58-22.28-6.56-22.28-11.9 0-13.88 15.56-15.1 23.5l-5.8 36.78h-21.37l11.9-74.93h21.37l-1.07 6.71M541.36 90.88c.16-7.63-3.5-15.11-11.75-15.11-8.54 0-14.5 7.32-16.78 15.1zm-31.28 13.27c-1.37 9.47.46 20.15 11.6 20.15 7.02 0 12.2-4.27 16.02-10.23l19.23 3.2c-7.63 14.96-22.13 23.36-37.85 23.36-23.2 0-34.64-16.48-31.13-39.22 3.66-22.74 18.47-40.6 42.73-40.6 24.57 0 32.66 18.16 29.15 40.75l-.46 2.6h-49.29" style="fill:#fff;fill-opacity:1;fill-rule:nonzero;stroke:none"/>
</svg>
