<?xml version="1.0" encoding="UTF-8" standalone="no"?>
<!-- Created with Inkscape (http://www.inkscape.org/) -->

<svg
   xmlns:dc="http://purl.org/dc/elements/1.1/"
   xmlns:cc="http://creativecommons.org/ns#"
   xmlns:rdf="http://www.w3.org/1999/02/22-rdf-syntax-ns#"
   xmlns:svg="http://www.w3.org/2000/svg"
   xmlns="http://www.w3.org/2000/svg"
   xmlns:sodipodi="http://sodipodi.sourceforge.net/DTD/sodipodi-0.dtd"
   xmlns:inkscape="http://www.inkscape.org/namespaces/inkscape"
   width="305.5502"
   height="57.174927"
   id="svg4033"
   version="1.1"
   inkscape:version="0.48.1 "
   sodipodi:docname="New document 12">
  <title
     id="title4076">IMAX</title>
  <defs
     id="defs4035" />
  <sodipodi:namedview
     id="base"
     pagecolor="#ffffff"
     bordercolor="#666666"
     borderopacity="1.0"
     inkscape:pageopacity="0.0"
     inkscape:pageshadow="2"
     inkscape:zoom="1"
     inkscape:cx="494.24844"
     inkscape:cy="90.87876"
     inkscape:document-units="px"
     inkscape:current-layer="layer1"
     showgrid="false"
     fit-margin-top="0"
     fit-margin-left="0"
     fit-margin-right="0"
     fit-margin-bottom="0"
     inkscape:window-width="1680"
     inkscape:window-height="988"
     inkscape:window-x="-8"
     inkscape:window-y="-8"
     inkscape:window-maximized="1" />
  <metadata
     id="metadata4038">
    <rdf:RDF>
      <cc:Work
         rdf:about="">
        <dc:format>image/svg+xml</dc:format>
        <dc:type
           rdf:resource="http://purl.org/dc/dcmitype/StillImage" />
        <dc:title>IMAX</dc:title>
      </cc:Work>
    </rdf:RDF>
  </metadata>
  <g
     inkscape:label="Layer 1"
     inkscape:groupmode="layer"
     id="layer1"
     transform="translate(-198.93692,-454.79382)">
    <path
       style="fill:#231f20;fill-opacity:1;stroke:none"
       d="m 245.91848,511.77905 0.0221,-40.9901 2.9831,0 20.01996,40.9459 12.9489,0 20.01996,-40.9238 3.15988,-0.0663 -0.11049,41.03429 16.02039,-1e-5 -0.0442,-56.03821 -27.97491,0.0884 -17.54509,32.96885 -16.61701,-33.01305 -28.85878,0.0884 -0.0442,55.90563 z"
       id="path4056"
       inkscape:connector-curvature="0"
       sodipodi:nodetypes="cccccccccccccccc" />
    <rect
       style="fill:#231f20;fill-opacity:1;stroke:none"
       id="rect4052"
       width="18.991539"
       height="57.002434"
       x="198.93692"
       y="454.79382" />
    <path
       style="fill:#231f20;fill-opacity:1;stroke:none"
       d="m 353.1875,455.5625 -28.625,56.21875 18.03125,0.1875 5.65625,-10.09375 35.53125,-0.1875 4.9375,9.90625 18.75,0.1875 -28.625,-56.21875 z m 12.75,12.03125 12,21.9375 -23.15625,0.15625 z"
       id="path4058"
       inkscape:connector-curvature="0"
       sodipodi:nodetypes="ccccccccccccc" />
    <path
       style="fill:#231f20;fill-opacity:1;stroke:none"
       d="m 434.875,455.73718 -21.125,0.125 21.75,25.625 -26.375,30.25 22.625,0.125 18.5,-20.625 17.625,20.625 23.375,-0.125 -26.375,-30.125 21.625,-25.625 -21.75,-0.375 -14.5,18.125 z"
       id="path4065"
       inkscape:connector-curvature="0" />
    <g
       style="font-size:11.81147099px;font-style:normal;font-variant:normal;font-weight:bold;font-stretch:normal;text-align:start;line-height:125%;letter-spacing:0px;word-spacing:0px;writing-mode:lr-tb;text-anchor:start;fill:#000000;fill-opacity:1;stroke:none;font-family:Sans;-inkscape-font-specification:Sans Bold"
       id="text4067">
      <path
         d="m 494.54455,462.91933 2.08381,0 c 0.74542,0 1.27535,-0.12165 1.58979,-0.36497 0.31444,-0.2433 0.47166,-0.64299 0.47166,-1.19906 0,-0.25279 -0.0498,-0.48054 -0.14941,-0.68325 -0.0996,-0.20269 -0.23893,-0.36315 -0.41795,-0.48139 -0.14298,-0.098 -0.31588,-0.16844 -0.5187,-0.21122 -0.20282,-0.0428 -0.54297,-0.0642 -1.02045,-0.0642 l -0.32225,0 -1.7165,0 z m -1.01721,4.64125 0,-8.56015 2.90313,0 c 0.64617,1e-5 1.12095,0.0278 1.42434,0.0835 0.30338,0.0556 0.5673,0.14641 0.79175,0.27232 0.3518,0.19802 0.62124,0.46903 0.80832,0.81302 0.18707,0.344 0.28061,0.73179 0.28062,1.16337 -10e-6,0.53397 -0.12178,0.98652 -0.36532,1.35767 -0.24356,0.37115 -0.57043,0.60058 -0.98063,0.68829 0.31311,0.0521 0.54909,0.2045 0.70794,0.45706 0.15884,0.25256 0.26914,0.74218 0.3309,1.46886 l 0.10742,1.25079 c 0.0142,0.18552 0.0416,0.33589 0.0824,0.45111 0.0407,0.11523 0.10242,0.20769 0.1851,0.27738 l 0,0.27683 -1.05578,0 c -0.0731,-0.13962 -0.12527,-0.282 -0.15662,-0.42714 -0.0314,-0.14515 -0.0549,-0.32225 -0.0705,-0.53132 l -0.0962,-1.10444 c -0.0546,-0.73485 -0.1779,-1.19582 -0.37001,-1.3829 -0.19213,-0.18707 -0.59386,-0.28061 -1.20519,-0.28061 l -2.30441,0 0,3.72641 z"
         style="line-height:125%;font-family:Swis721 Lt BT;-inkscape-font-specification:Swis721 Lt BT Bold"
         id="path4074"
         inkscape:connector-curvature="0" />
    </g>
    <path
       sodipodi:type="arc"
       style="fill:none;stroke:#000000;stroke-width:1.09443212"
       id="path4071"
       sodipodi:cx="498.0625"
       sodipodi:cy="464.29968"
       sodipodi:rx="8.5"
       sodipodi:ry="7.9375"
       d="m 506.5625,464.29968 c 0,4.38376 -3.80558,7.9375 -8.5,7.9375 -4.69442,0 -8.5,-3.55374 -8.5,-7.9375 0,-4.38376 3.80558,-7.9375 8.5,-7.9375 4.69442,0 8.5,3.55374 8.5,7.9375 z"
       transform="matrix(0.88296517,0,0,0.94553749,56.710079,24.393401)" />
  </g>
</svg>
